<svg xmlns="http://www.w3.org/2000/svg" version="1.1" height="310" width="500">

	<circle cx = "41" cy = "2" r = "2" stroke = "black" stroke-width = "2" />

	<circle cx = "60" cy = "219" r = "2" stroke = "black" stroke-width = "2" />

	<circle cx = "143" cy = "208" r = "2" stroke = "black" stroke-width = "2" />

	<circle cx = "214" cy = "251" r = "2" stroke = "black" stroke-width = "2" />

	<circle cx = "298" cy = "68" r = "2" stroke = "black" stroke-width = "2" />

	<circle cx = "25" cy = "178" r = "2" stroke = "black" stroke-width = "2" />

	<circle cx = "83" cy = "9" r = "2" stroke = "black" stroke-width = "2" />

	<circle cx = "111" cy = "139" r = "2" stroke = "black" stroke-width = "2" />

	<circle cx = "207" cy = "216" r = "2" stroke = "black" stroke-width = "2" />

	<circle cx = "233" cy = "207" r = "2" stroke = "black" stroke-width = "2" />

	<circle cx = "8" cy = "131" r = "2" stroke = "black" stroke-width = "2" />

	<circle cx = "13" cy = "234" r = "2" stroke = "black" stroke-width = "2" />

	<circle cx = "69" cy = "105" r = "2" stroke = "black" stroke-width = "2" />

	<circle cx = "167" cy = "50" r = "2" stroke = "black" stroke-width = "2" />

	<circle cx = "262" cy = "266" r = "2" stroke = "black" stroke-width = "2" />

	<circle cx = "7" cy = "22" r = "2" stroke = "black" stroke-width = "2" />

	<circle cx = "200" cy = "274" r = "2" stroke = "black" stroke-width = "2" />

	<circle cx = "237" cy = "99" r = "2" stroke = "black" stroke-width = "2" />

	<circle cx = "274" cy = "80" r = "2" stroke = "black" stroke-width = "2" />

	<circle cx = "276" cy = "24" r = "2" stroke = "black" stroke-width = "2" />

	<circle cx = "3" cy = "53" r = "2" stroke = "black" stroke-width = "2" />

	<circle cx = "82" cy = "126" r = "2" stroke = "black" stroke-width = "2" />

	<circle cx = "193" cy = "37" r = "2" stroke = "black" stroke-width = "2" />

	<circle cx = "202" cy = "242" r = "2" stroke = "black" stroke-width = "2" />

	<circle cx = "296" cy = "166" r = "2" stroke = "black" stroke-width = "2" />
</svg>
