<svg xmlns="http://www.w3.org/2000/svg" version="1.1" height="310" width="500">

	<line x1 = "95" y1 = "75" x2 = "145" y2 = "75" style="stroke:rgb(255,0,0);stroke-width:2" />

	<line x1 = "145" y1 = "75" x2 = "145" y2 = "125" style="stroke:rgb(255,0,0);stroke-width:2" />

	<line x1 = "145" y1 = "125" x2 = "95" y2 = "125" style="stroke:rgb(255,0,0);stroke-width:2" />

	<line x1 = "95" y1 = "75" x2 = "95" y2 = "125" style="stroke:rgb(255,0,0);stroke-width:2" />
1
	<line x1 = "4" y1 = "90" x2 = "54" y2 = "90" style="stroke:rgb(255,0,0);stroke-width:2" />

	<line x1 = "54" y1 = "90" x2 = "54" y2 = "140" style="stroke:rgb(255,0,0);stroke-width:2" />

	<line x1 = "54" y1 = "140" x2 = "4" y2 = "140" style="stroke:rgb(255,0,0);stroke-width:2" />

	<line x1 = "4" y1 = "90" x2 = "4" y2 = "140" style="stroke:rgb(255,0,0);stroke-width:2" />
1
	<line x1 = "77" y1 = "153" x2 = "127" y2 = "153" style="stroke:rgb(255,0,0);stroke-width:2" />

	<line x1 = "127" y1 = "153" x2 = "127" y2 = "203" style="stroke:rgb(255,0,0);stroke-width:2" />

	<line x1 = "127" y1 = "203" x2 = "77" y2 = "203" style="stroke:rgb(255,0,0);stroke-width:2" />

	<line x1 = "77" y1 = "153" x2 = "77" y2 = "203" style="stroke:rgb(255,0,0);stroke-width:2" />
1
	<line x1 = "99" y1 = "-21" x2 = "149" y2 = "-21" style="stroke:rgb(255,0,0);stroke-width:2" />

	<line x1 = "149" y1 = "-21" x2 = "149" y2 = "29" style="stroke:rgb(255,0,0);stroke-width:2" />

	<line x1 = "149" y1 = "29" x2 = "99" y2 = "29" style="stroke:rgb(255,0,0);stroke-width:2" />

	<line x1 = "99" y1 = "-21" x2 = "99" y2 = "29" style="stroke:rgb(255,0,0);stroke-width:2" />
1
	<line x1 = "153" y1 = "86" x2 = "203" y2 = "86" style="stroke:rgb(255,0,0);stroke-width:2" />

	<line x1 = "203" y1 = "86" x2 = "203" y2 = "136" style="stroke:rgb(255,0,0);stroke-width:2" />

	<line x1 = "203" y1 = "136" x2 = "153" y2 = "136" style="stroke:rgb(255,0,0);stroke-width:2" />

	<line x1 = "153" y1 = "86" x2 = "153" y2 = "136" style="stroke:rgb(255,0,0);stroke-width:2" />
1</svg>
