<svg xmlns="http://www.w3.org/2000/svg" version="1.1" height="1000" width="1000">

	<line x1 = "134" y1 = "141" x2 = "433" y2 = "162" style="stroke:rgb(255,0,0);stroke-width:2" />

	<line x1 = "433" y1 = "162" x2 = "412" y2 = "461" style="stroke:rgb(255,0,0);stroke-width:2" />

	<line x1 = "412" y1 = "461" x2 = "113" y2 = "440" style="stroke:rgb(255,0,0);stroke-width:2" />

	<line x1 = "134" y1 = "141" x2 = "113" y2 = "440" style="stroke:rgb(255,0,0);stroke-width:2" />

	<circle cx = "273" cy = "301" r = "2" stroke = "black" stroke-width = "3" />
1
	<line x1 = "808" y1 = "551" x2 = "916" y2 = "831" style="stroke:rgb(255,0,0);stroke-width:2" />

	<line x1 = "916" y1 = "831" x2 = "636" y2 = "938" style="stroke:rgb(255,0,0);stroke-width:2" />

	<line x1 = "636" y1 = "938" x2 = "528" y2 = "658" style="stroke:rgb(255,0,0);stroke-width:2" />

	<line x1 = "808" y1 = "551" x2 = "528" y2 = "658" style="stroke:rgb(255,0,0);stroke-width:2" />

	<circle cx = "722" cy = "745" r = "2" stroke = "black" stroke-width = "3" />
1
	<line x1 = "589" y1 = "562" x2 = "439" y2 = "547" style="stroke:rgb(255,0,0);stroke-width:2" />

	<line x1 = "439" y1 = "547" x2 = "455" y2 = "398" style="stroke:rgb(255,0,0);stroke-width:2" />

	<line x1 = "455" y1 = "398" x2 = "604" y2 = "413" style="stroke:rgb(255,0,0);stroke-width:2" />

	<line x1 = "589" y1 = "562" x2 = "604" y2 = "413" style="stroke:rgb(255,0,0);stroke-width:2" />

	<circle cx = "522" cy = "480" r = "2" stroke = "black" stroke-width = "3" />
1
	<line x1 = "250" y1 = "787" x2 = "149" y2 = "676" style="stroke:rgb(255,0,0);stroke-width:2" />

	<line x1 = "149" y1 = "676" x2 = "260" y2 = "575" style="stroke:rgb(255,0,0);stroke-width:2" />

	<line x1 = "260" y1 = "575" x2 = "361" y2 = "686" style="stroke:rgb(255,0,0);stroke-width:2" />

	<line x1 = "250" y1 = "787" x2 = "361" y2 = "686" style="stroke:rgb(255,0,0);stroke-width:2" />

	<circle cx = "255" cy = "681" r = "2" stroke = "black" stroke-width = "3" />
1
	<line x1 = "692" y1 = "358" x2 = "804" y2 = "258" style="stroke:rgb(255,0,0);stroke-width:2" />

	<line x1 = "804" y1 = "258" x2 = "904" y2 = "369" style="stroke:rgb(255,0,0);stroke-width:2" />

	<line x1 = "904" y1 = "369" x2 = "793" y2 = "469" style="stroke:rgb(255,0,0);stroke-width:2" />

	<line x1 = "692" y1 = "358" x2 = "793" y2 = "469" style="stroke:rgb(255,0,0);stroke-width:2" />

	<circle cx = "798" cy = "364" r = "2" stroke = "black" stroke-width = "3" />
1
	<line x1 = "632" y1 = "204" x2 = "593" y2 = "349" style="stroke:rgb(255,0,0);stroke-width:2" />

	<line x1 = "593" y1 = "349" x2 = "448" y2 = "311" style="stroke:rgb(255,0,0);stroke-width:2" />

	<line x1 = "448" y1 = "311" x2 = "487" y2 = "166" style="stroke:rgb(255,0,0);stroke-width:2" />

	<line x1 = "632" y1 = "204" x2 = "487" y2 = "166" style="stroke:rgb(255,0,0);stroke-width:2" />

	<circle cx = "540" cy = "257" r = "2" stroke = "black" stroke-width = "3" />
1
	<line x1 = "552" y1 = "903" x2 = "422" y2 = "978" style="stroke:rgb(255,0,0);stroke-width:2" />

	<line x1 = "422" y1 = "978" x2 = "347" y2 = "848" style="stroke:rgb(255,0,0);stroke-width:2" />

	<line x1 = "347" y1 = "848" x2 = "476" y2 = "773" style="stroke:rgb(255,0,0);stroke-width:2" />

	<line x1 = "552" y1 = "903" x2 = "476" y2 = "773" style="stroke:rgb(255,0,0);stroke-width:2" />

	<circle cx = "449" cy = "876" r = "2" stroke = "black" stroke-width = "3" />
1
	<line x1 = "1069" y1 = "353" x2 = "1032" y2 = "498" style="stroke:rgb(255,0,0);stroke-width:2" />

	<line x1 = "1032" y1 = "498" x2 = "887" y2 = "460" style="stroke:rgb(255,0,0);stroke-width:2" />

	<line x1 = "887" y1 = "460" x2 = "924" y2 = "315" style="stroke:rgb(255,0,0);stroke-width:2" />

	<line x1 = "1069" y1 = "353" x2 = "924" y2 = "315" style="stroke:rgb(255,0,0);stroke-width:2" />

	<circle cx = "978" cy = "407" r = "2" stroke = "black" stroke-width = "3" />
1
	<line x1 = "907" y1 = "727" x2 = "980" y2 = "596" style="stroke:rgb(255,0,0);stroke-width:2" />

	<line x1 = "980" y1 = "596" x2 = "1111" y2 = "670" style="stroke:rgb(255,0,0);stroke-width:2" />

	<line x1 = "1111" y1 = "670" x2 = "1038" y2 = "801" style="stroke:rgb(255,0,0);stroke-width:2" />

	<line x1 = "907" y1 = "727" x2 = "1038" y2 = "801" style="stroke:rgb(255,0,0);stroke-width:2" />

	<circle cx = "1009" cy = "699" r = "2" stroke = "black" stroke-width = "3" />
1
	<line x1 = "369" y1 = "608" x2 = "519" y2 = "595" style="stroke:rgb(255,0,0);stroke-width:2" />

	<line x1 = "519" y1 = "595" x2 = "532" y2 = "744" style="stroke:rgb(255,0,0);stroke-width:2" />

	<line x1 = "532" y1 = "744" x2 = "383" y2 = "758" style="stroke:rgb(255,0,0);stroke-width:2" />

	<line x1 = "369" y1 = "608" x2 = "383" y2 = "758" style="stroke:rgb(255,0,0);stroke-width:2" />

	<circle cx = "451" cy = "676" r = "2" stroke = "black" stroke-width = "3" />
1
	<line x1 = "946" y1 = "932" x2 = "947" y2 = "1082" style="stroke:rgb(255,0,0);stroke-width:2" />

	<line x1 = "947" y1 = "1082" x2 = "797" y2 = "1082" style="stroke:rgb(255,0,0);stroke-width:2" />

	<line x1 = "797" y1 = "1082" x2 = "796" y2 = "933" style="stroke:rgb(255,0,0);stroke-width:2" />

	<line x1 = "946" y1 = "932" x2 = "796" y2 = "933" style="stroke:rgb(255,0,0);stroke-width:2" />

	<circle cx = "872" cy = "1007" r = "2" stroke = "black" stroke-width = "3" />
1
	<line x1 = "501" y1 = "1042" x2 = "591" y2 = "922" style="stroke:rgb(255,0,0);stroke-width:2" />

	<line x1 = "591" y1 = "922" x2 = "711" y2 = "1012" style="stroke:rgb(255,0,0);stroke-width:2" />

	<line x1 = "711" y1 = "1012" x2 = "621" y2 = "1132" style="stroke:rgb(255,0,0);stroke-width:2" />

	<line x1 = "501" y1 = "1042" x2 = "621" y2 = "1132" style="stroke:rgb(255,0,0);stroke-width:2" />

	<circle cx = "606" cy = "1027" r = "2" stroke = "black" stroke-width = "3" />
1
	<line x1 = "1201" y1 = "298" x2 = "1224" y2 = "342" style="stroke:rgb(255,0,0);stroke-width:2" />

	<line x1 = "1224" y1 = "342" x2 = "1179" y2 = "365" style="stroke:rgb(255,0,0);stroke-width:2" />

	<line x1 = "1179" y1 = "365" x2 = "1157" y2 = "320" style="stroke:rgb(255,0,0);stroke-width:2" />

	<line x1 = "1201" y1 = "298" x2 = "1157" y2 = "320" style="stroke:rgb(255,0,0);stroke-width:2" />

	<circle cx = "1190" cy = "331" r = "2" stroke = "black" stroke-width = "3" />
1
	<line x1 = "633" y1 = "392" x2 = "676" y2 = "417" style="stroke:rgb(255,0,0);stroke-width:2" />

	<line x1 = "676" y1 = "417" x2 = "651" y2 = "460" style="stroke:rgb(255,0,0);stroke-width:2" />

	<line x1 = "651" y1 = "460" x2 = "608" y2 = "435" style="stroke:rgb(255,0,0);stroke-width:2" />

	<line x1 = "633" y1 = "392" x2 = "608" y2 = "435" style="stroke:rgb(255,0,0);stroke-width:2" />

	<circle cx = "642" cy = "426" r = "2" stroke = "black" stroke-width = "3" />
1
	<line x1 = "282" y1 = "889" x2 = "244" y2 = "856" style="stroke:rgb(255,0,0);stroke-width:2" />

	<line x1 = "244" y1 = "856" x2 = "277" y2 = "818" style="stroke:rgb(255,0,0);stroke-width:2" />

	<line x1 = "277" y1 = "818" x2 = "315" y2 = "851" style="stroke:rgb(255,0,0);stroke-width:2" />

	<line x1 = "282" y1 = "889" x2 = "315" y2 = "851" style="stroke:rgb(255,0,0);stroke-width:2" />

	<circle cx = "280" cy = "853" r = "2" stroke = "black" stroke-width = "3" />
1
	<line x1 = "741" y1 = "519" x2 = "725" y2 = "566" style="stroke:rgb(255,0,0);stroke-width:2" />

	<line x1 = "725" y1 = "566" x2 = "677" y2 = "550" style="stroke:rgb(255,0,0);stroke-width:2" />

	<line x1 = "677" y1 = "550" x2 = "693" y2 = "503" style="stroke:rgb(255,0,0);stroke-width:2" />

	<line x1 = "741" y1 = "519" x2 = "693" y2 = "503" style="stroke:rgb(255,0,0);stroke-width:2" />

	<circle cx = "709" cy = "534" r = "2" stroke = "black" stroke-width = "3" />
1
	<line x1 = "300" y1 = "490" x2 = "292" y2 = "539" style="stroke:rgb(255,0,0);stroke-width:2" />

	<line x1 = "292" y1 = "539" x2 = "242" y2 = "531" style="stroke:rgb(255,0,0);stroke-width:2" />

	<line x1 = "242" y1 = "531" x2 = "251" y2 = "481" style="stroke:rgb(255,0,0);stroke-width:2" />

	<line x1 = "300" y1 = "490" x2 = "251" y2 = "481" style="stroke:rgb(255,0,0);stroke-width:2" />

	<circle cx = "271" cy = "510" r = "2" stroke = "black" stroke-width = "3" />
1
	<line x1 = "695" y1 = "992" x2 = "691" y2 = "942" style="stroke:rgb(255,0,0);stroke-width:2" />

	<line x1 = "691" y1 = "942" x2 = "741" y2 = "939" style="stroke:rgb(255,0,0);stroke-width:2" />

	<line x1 = "741" y1 = "939" x2 = "745" y2 = "988" style="stroke:rgb(255,0,0);stroke-width:2" />

	<line x1 = "695" y1 = "992" x2 = "745" y2 = "988" style="stroke:rgb(255,0,0);stroke-width:2" />

	<circle cx = "718" cy = "965" r = "2" stroke = "black" stroke-width = "3" />
1
	<line x1 = "644" y1 = "541" x2 = "641" y2 = "591" style="stroke:rgb(255,0,0);stroke-width:2" />

	<line x1 = "641" y1 = "591" x2 = "591" y2 = "588" style="stroke:rgb(255,0,0);stroke-width:2" />

	<line x1 = "591" y1 = "588" x2 = "594" y2 = "538" style="stroke:rgb(255,0,0);stroke-width:2" />

	<line x1 = "644" y1 = "541" x2 = "594" y2 = "538" style="stroke:rgb(255,0,0);stroke-width:2" />

	<circle cx = "617" cy = "565" r = "2" stroke = "black" stroke-width = "3" />
1
	<line x1 = "359" y1 = "608" x2 = "318" y2 = "579" style="stroke:rgb(255,0,0);stroke-width:2" />

	<line x1 = "318" y1 = "579" x2 = "347" y2 = "538" style="stroke:rgb(255,0,0);stroke-width:2" />

	<line x1 = "347" y1 = "538" x2 = "388" y2 = "567" style="stroke:rgb(255,0,0);stroke-width:2" />

	<line x1 = "359" y1 = "608" x2 = "388" y2 = "567" style="stroke:rgb(255,0,0);stroke-width:2" />

	<circle cx = "353" cy = "573" r = "2" stroke = "black" stroke-width = "3" />
1
	<line x1 = "363" y1 = "1083" x2 = "343" y2 = "1130" style="stroke:rgb(255,0,0);stroke-width:2" />

	<line x1 = "343" y1 = "1130" x2 = "297" y2 = "1110" style="stroke:rgb(255,0,0);stroke-width:2" />

	<line x1 = "297" y1 = "1110" x2 = "316" y2 = "1064" style="stroke:rgb(255,0,0);stroke-width:2" />

	<line x1 = "363" y1 = "1083" x2 = "316" y2 = "1064" style="stroke:rgb(255,0,0);stroke-width:2" />

	<circle cx = "330" cy = "1097" r = "2" stroke = "black" stroke-width = "3" />
1
	<line x1 = "702" y1 = "277" x2 = "709" y2 = "228" style="stroke:rgb(255,0,0);stroke-width:2" />

	<line x1 = "709" y1 = "228" x2 = "759" y2 = "234" style="stroke:rgb(255,0,0);stroke-width:2" />

	<line x1 = "759" y1 = "234" x2 = "752" y2 = "284" style="stroke:rgb(255,0,0);stroke-width:2" />

	<line x1 = "702" y1 = "277" x2 = "752" y2 = "284" style="stroke:rgb(255,0,0);stroke-width:2" />

	<circle cx = "731" cy = "256" r = "2" stroke = "black" stroke-width = "3" />
1
	<line x1 = "700" y1 = "331" x2 = "654" y2 = "313" style="stroke:rgb(255,0,0);stroke-width:2" />

	<line x1 = "654" y1 = "313" x2 = "671" y2 = "266" style="stroke:rgb(255,0,0);stroke-width:2" />

	<line x1 = "671" y1 = "266" x2 = "718" y2 = "284" style="stroke:rgb(255,0,0);stroke-width:2" />

	<line x1 = "700" y1 = "331" x2 = "718" y2 = "284" style="stroke:rgb(255,0,0);stroke-width:2" />

	<circle cx = "686" cy = "299" r = "2" stroke = "black" stroke-width = "3" />
1
	<line x1 = "322" y1 = "530" x2 = "305" y2 = "483" style="stroke:rgb(255,0,0);stroke-width:2" />

	<line x1 = "305" y1 = "483" x2 = "353" y2 = "467" style="stroke:rgb(255,0,0);stroke-width:2" />

	<line x1 = "353" y1 = "467" x2 = "369" y2 = "514" style="stroke:rgb(255,0,0);stroke-width:2" />

	<line x1 = "322" y1 = "530" x2 = "369" y2 = "514" style="stroke:rgb(255,0,0);stroke-width:2" />

	<circle cx = "337" cy = "498" r = "2" stroke = "black" stroke-width = "3" />
1
	<line x1 = "911" y1 = "570" x2 = "863" y2 = "583" style="stroke:rgb(255,0,0);stroke-width:2" />

	<line x1 = "863" y1 = "583" x2 = "850" y2 = "535" style="stroke:rgb(255,0,0);stroke-width:2" />

	<line x1 = "850" y1 = "535" x2 = "899" y2 = "522" style="stroke:rgb(255,0,0);stroke-width:2" />

	<line x1 = "911" y1 = "570" x2 = "899" y2 = "522" style="stroke:rgb(255,0,0);stroke-width:2" />

	<circle cx = "881" cy = "552" r = "2" stroke = "black" stroke-width = "3" />
1
	<line x1 = "925" y1 = "283" x2 = "877" y2 = "272" style="stroke:rgb(255,0,0);stroke-width:2" />

	<line x1 = "877" y1 = "272" x2 = "888" y2 = "223" style="stroke:rgb(255,0,0);stroke-width:2" />

	<line x1 = "888" y1 = "223" x2 = "936" y2 = "234" style="stroke:rgb(255,0,0);stroke-width:2" />

	<line x1 = "925" y1 = "283" x2 = "936" y2 = "234" style="stroke:rgb(255,0,0);stroke-width:2" />

	<circle cx = "907" cy = "253" r = "2" stroke = "black" stroke-width = "3" />
1
	<line x1 = "576" y1 = "349" x2 = "624" y2 = "364" style="stroke:rgb(255,0,0);stroke-width:2" />

	<line x1 = "624" y1 = "364" x2 = "608" y2 = "412" style="stroke:rgb(255,0,0);stroke-width:2" />

	<line x1 = "608" y1 = "412" x2 = "561" y2 = "397" style="stroke:rgb(255,0,0);stroke-width:2" />

	<line x1 = "576" y1 = "349" x2 = "561" y2 = "397" style="stroke:rgb(255,0,0);stroke-width:2" />

	<circle cx = "592" cy = "380" r = "2" stroke = "black" stroke-width = "3" />
1</svg>
