<svg xmlns="http://www.w3.org/2000/svg" version="1.1" height="1000" width="1000">

	<line x1 = "478" y1 = "100" x2 = "738" y2 = "250" style="stroke:rgb(255,0,0);stroke-width:2" />

	<line x1 = "738" y1 = "250" x2 = "588" y2 = "510" style="stroke:rgb(255,0,0);stroke-width:2" />

	<line x1 = "588" y1 = "510" x2 = "328" y2 = "360" style="stroke:rgb(255,0,0);stroke-width:2" />

	<line x1 = "478" y1 = "100" x2 = "328" y2 = "360" style="stroke:rgb(255,0,0);stroke-width:2" />

	<circle cx = "533" cy = "305" r = "2" stroke = "black" stroke-width = "3" />
1
	<line x1 = "284" y1 = "232" x2 = "295" y2 = "382" style="stroke:rgb(255,0,0);stroke-width:2" />

	<line x1 = "295" y1 = "382" x2 = "145" y2 = "393" style="stroke:rgb(255,0,0);stroke-width:2" />

	<line x1 = "145" y1 = "393" x2 = "134" y2 = "243" style="stroke:rgb(255,0,0);stroke-width:2" />

	<line x1 = "284" y1 = "232" x2 = "134" y2 = "243" style="stroke:rgb(255,0,0);stroke-width:2" />

	<circle cx = "215" cy = "313" r = "2" stroke = "black" stroke-width = "3" />
1
	<line x1 = "764" y1 = "913" x2 = "670" y2 = "1030" style="stroke:rgb(255,0,0);stroke-width:2" />

	<line x1 = "670" y1 = "1030" x2 = "553" y2 = "936" style="stroke:rgb(255,0,0);stroke-width:2" />

	<line x1 = "553" y1 = "936" x2 = "647" y2 = "819" style="stroke:rgb(255,0,0);stroke-width:2" />

	<line x1 = "764" y1 = "913" x2 = "647" y2 = "819" style="stroke:rgb(255,0,0);stroke-width:2" />

	<circle cx = "659" cy = "925" r = "2" stroke = "black" stroke-width = "3" />
1
	<line x1 = "364" y1 = "975" x2 = "380" y2 = "826" style="stroke:rgb(255,0,0);stroke-width:2" />

	<line x1 = "380" y1 = "826" x2 = "529" y2 = "842" style="stroke:rgb(255,0,0);stroke-width:2" />

	<line x1 = "529" y1 = "842" x2 = "513" y2 = "991" style="stroke:rgb(255,0,0);stroke-width:2" />

	<line x1 = "364" y1 = "975" x2 = "513" y2 = "991" style="stroke:rgb(255,0,0);stroke-width:2" />

	<circle cx = "447" cy = "909" r = "2" stroke = "black" stroke-width = "3" />
1
	<line x1 = "490" y1 = "624" x2 = "588" y2 = "511" style="stroke:rgb(255,0,0);stroke-width:2" />

	<line x1 = "588" y1 = "511" x2 = "701" y2 = "609" style="stroke:rgb(255,0,0);stroke-width:2" />

	<line x1 = "701" y1 = "609" x2 = "603" y2 = "722" style="stroke:rgb(255,0,0);stroke-width:2" />

	<line x1 = "490" y1 = "624" x2 = "603" y2 = "722" style="stroke:rgb(255,0,0);stroke-width:2" />

	<circle cx = "596" cy = "617" r = "2" stroke = "black" stroke-width = "3" />
1
	<line x1 = "155" y1 = "20" x2 = "305" y2 = "33" style="stroke:rgb(255,0,0);stroke-width:2" />

	<line x1 = "305" y1 = "33" x2 = "292" y2 = "183" style="stroke:rgb(255,0,0);stroke-width:2" />

	<line x1 = "292" y1 = "183" x2 = "142" y2 = "170" style="stroke:rgb(255,0,0);stroke-width:2" />

	<line x1 = "155" y1 = "20" x2 = "142" y2 = "170" style="stroke:rgb(255,0,0);stroke-width:2" />

	<circle cx = "224" cy = "102" r = "2" stroke = "black" stroke-width = "3" />
1
	<line x1 = "1247" y1 = "935" x2 = "1397" y2 = "924" style="stroke:rgb(255,0,0);stroke-width:2" />

	<line x1 = "1397" y1 = "924" x2 = "1408" y2 = "1074" style="stroke:rgb(255,0,0);stroke-width:2" />

	<line x1 = "1408" y1 = "1074" x2 = "1258" y2 = "1085" style="stroke:rgb(255,0,0);stroke-width:2" />

	<line x1 = "1247" y1 = "935" x2 = "1258" y2 = "1085" style="stroke:rgb(255,0,0);stroke-width:2" />

	<circle cx = "1328" cy = "1005" r = "2" stroke = "black" stroke-width = "3" />
1
	<line x1 = "1460" y1 = "934" x2 = "1610" y2 = "925" style="stroke:rgb(255,0,0);stroke-width:2" />

	<line x1 = "1610" y1 = "925" x2 = "1619" y2 = "1075" style="stroke:rgb(255,0,0);stroke-width:2" />

	<line x1 = "1619" y1 = "1075" x2 = "1469" y2 = "1084" style="stroke:rgb(255,0,0);stroke-width:2" />

	<line x1 = "1460" y1 = "934" x2 = "1469" y2 = "1084" style="stroke:rgb(255,0,0);stroke-width:2" />

	<circle cx = "1540" cy = "1005" r = "2" stroke = "black" stroke-width = "3" />
1
	<line x1 = "287" y1 = "646" x2 = "231" y2 = "507" style="stroke:rgb(255,0,0);stroke-width:2" />

	<line x1 = "231" y1 = "507" x2 = "370" y2 = "451" style="stroke:rgb(255,0,0);stroke-width:2" />

	<line x1 = "370" y1 = "451" x2 = "426" y2 = "590" style="stroke:rgb(255,0,0);stroke-width:2" />

	<line x1 = "287" y1 = "646" x2 = "426" y2 = "590" style="stroke:rgb(255,0,0);stroke-width:2" />

	<circle cx = "329" cy = "549" r = "2" stroke = "black" stroke-width = "3" />
1
	<line x1 = "341" y1 = "766" x2 = "241" y2 = "764" style="stroke:rgb(255,0,0);stroke-width:2" />

	<line x1 = "241" y1 = "764" x2 = "243" y2 = "664" style="stroke:rgb(255,0,0);stroke-width:2" />

	<line x1 = "243" y1 = "664" x2 = "343" y2 = "666" style="stroke:rgb(255,0,0);stroke-width:2" />

	<line x1 = "341" y1 = "766" x2 = "343" y2 = "666" style="stroke:rgb(255,0,0);stroke-width:2" />

	<circle cx = "292" cy = "715" r = "2" stroke = "black" stroke-width = "3" />
1
	<line x1 = "775" y1 = "366" x2 = "806" y2 = "461" style="stroke:rgb(255,0,0);stroke-width:2" />

	<line x1 = "806" y1 = "461" x2 = "711" y2 = "492" style="stroke:rgb(255,0,0);stroke-width:2" />

	<line x1 = "711" y1 = "492" x2 = "680" y2 = "397" style="stroke:rgb(255,0,0);stroke-width:2" />

	<line x1 = "775" y1 = "366" x2 = "680" y2 = "397" style="stroke:rgb(255,0,0);stroke-width:2" />

	<circle cx = "743" cy = "429" r = "2" stroke = "black" stroke-width = "3" />
1
	<line x1 = "452" y1 = "590" x2 = "396" y2 = "507" style="stroke:rgb(255,0,0);stroke-width:2" />

	<line x1 = "396" y1 = "507" x2 = "479" y2 = "451" style="stroke:rgb(255,0,0);stroke-width:2" />

	<line x1 = "479" y1 = "451" x2 = "535" y2 = "534" style="stroke:rgb(255,0,0);stroke-width:2" />

	<line x1 = "452" y1 = "590" x2 = "535" y2 = "534" style="stroke:rgb(255,0,0);stroke-width:2" />

	<circle cx = "465" cy = "521" r = "2" stroke = "black" stroke-width = "3" />
1
	<line x1 = "655" y1 = "705" x2 = "741" y2 = "756" style="stroke:rgb(255,0,0);stroke-width:2" />

	<line x1 = "741" y1 = "756" x2 = "690" y2 = "842" style="stroke:rgb(255,0,0);stroke-width:2" />

	<line x1 = "690" y1 = "842" x2 = "604" y2 = "791" style="stroke:rgb(255,0,0);stroke-width:2" />

	<line x1 = "655" y1 = "705" x2 = "604" y2 = "791" style="stroke:rgb(255,0,0);stroke-width:2" />

	<circle cx = "673" cy = "774" r = "2" stroke = "black" stroke-width = "3" />
1
	<line x1 = "1612" y1 = "1765" x2 = "1513" y2 = "1753" style="stroke:rgb(255,0,0);stroke-width:2" />

	<line x1 = "1513" y1 = "1753" x2 = "1525" y2 = "1654" style="stroke:rgb(255,0,0);stroke-width:2" />

	<line x1 = "1525" y1 = "1654" x2 = "1624" y2 = "1666" style="stroke:rgb(255,0,0);stroke-width:2" />

	<line x1 = "1612" y1 = "1765" x2 = "1624" y2 = "1666" style="stroke:rgb(255,0,0);stroke-width:2" />

	<circle cx = "1569" cy = "1710" r = "2" stroke = "black" stroke-width = "3" />
1
	<line x1 = "385" y1 = "710" x2 = "353" y2 = "671" style="stroke:rgb(255,0,0);stroke-width:2" />

	<line x1 = "353" y1 = "671" x2 = "392" y2 = "639" style="stroke:rgb(255,0,0);stroke-width:2" />

	<line x1 = "392" y1 = "639" x2 = "424" y2 = "678" style="stroke:rgb(255,0,0);stroke-width:2" />

	<line x1 = "385" y1 = "710" x2 = "424" y2 = "678" style="stroke:rgb(255,0,0);stroke-width:2" />

	<circle cx = "389" cy = "675" r = "2" stroke = "black" stroke-width = "3" />
1
	<line x1 = "355" y1 = "447" x2 = "308" y2 = "465" style="stroke:rgb(255,0,0);stroke-width:2" />

	<line x1 = "308" y1 = "465" x2 = "290" y2 = "418" style="stroke:rgb(255,0,0);stroke-width:2" />

	<line x1 = "290" y1 = "418" x2 = "337" y2 = "400" style="stroke:rgb(255,0,0);stroke-width:2" />

	<line x1 = "355" y1 = "447" x2 = "337" y2 = "400" style="stroke:rgb(255,0,0);stroke-width:2" />

	<circle cx = "323" cy = "433" r = "2" stroke = "black" stroke-width = "3" />
1
	<line x1 = "667" y1 = "538" x2 = "646" y2 = "492" style="stroke:rgb(255,0,0);stroke-width:2" />

	<line x1 = "646" y1 = "492" x2 = "692" y2 = "471" style="stroke:rgb(255,0,0);stroke-width:2" />

	<line x1 = "692" y1 = "471" x2 = "713" y2 = "517" style="stroke:rgb(255,0,0);stroke-width:2" />

	<line x1 = "667" y1 = "538" x2 = "713" y2 = "517" style="stroke:rgb(255,0,0);stroke-width:2" />

	<circle cx = "680" cy = "505" r = "2" stroke = "black" stroke-width = "3" />
1
	<line x1 = "1105" y1 = "995" x2 = "1136" y2 = "1035" style="stroke:rgb(255,0,0);stroke-width:2" />

	<line x1 = "1136" y1 = "1035" x2 = "1096" y2 = "1066" style="stroke:rgb(255,0,0);stroke-width:2" />

	<line x1 = "1096" y1 = "1066" x2 = "1065" y2 = "1026" style="stroke:rgb(255,0,0);stroke-width:2" />

	<line x1 = "1105" y1 = "995" x2 = "1065" y2 = "1026" style="stroke:rgb(255,0,0);stroke-width:2" />

	<circle cx = "1101" cy = "1031" r = "2" stroke = "black" stroke-width = "3" />
1
	<line x1 = "188" y1 = "641" x2 = "215" y2 = "599" style="stroke:rgb(255,0,0);stroke-width:2" />

	<line x1 = "215" y1 = "599" x2 = "257" y2 = "626" style="stroke:rgb(255,0,0);stroke-width:2" />

	<line x1 = "257" y1 = "626" x2 = "230" y2 = "668" style="stroke:rgb(255,0,0);stroke-width:2" />

	<line x1 = "188" y1 = "641" x2 = "230" y2 = "668" style="stroke:rgb(255,0,0);stroke-width:2" />

	<circle cx = "223" cy = "634" r = "2" stroke = "black" stroke-width = "3" />
1
	<line x1 = "635" y1 = "1335" x2 = "594" y2 = "1307" style="stroke:rgb(255,0,0);stroke-width:2" />

	<line x1 = "594" y1 = "1307" x2 = "622" y2 = "1266" style="stroke:rgb(255,0,0);stroke-width:2" />

	<line x1 = "622" y1 = "1266" x2 = "663" y2 = "1294" style="stroke:rgb(255,0,0);stroke-width:2" />

	<line x1 = "635" y1 = "1335" x2 = "663" y2 = "1294" style="stroke:rgb(255,0,0);stroke-width:2" />

	<circle cx = "629" cy = "1301" r = "2" stroke = "black" stroke-width = "3" />
1
	<line x1 = "371" y1 = "256" x2 = "324" y2 = "274" style="stroke:rgb(255,0,0);stroke-width:2" />

	<line x1 = "324" y1 = "274" x2 = "306" y2 = "227" style="stroke:rgb(255,0,0);stroke-width:2" />

	<line x1 = "306" y1 = "227" x2 = "353" y2 = "209" style="stroke:rgb(255,0,0);stroke-width:2" />

	<line x1 = "371" y1 = "256" x2 = "353" y2 = "209" style="stroke:rgb(255,0,0);stroke-width:2" />

	<circle cx = "339" cy = "242" r = "2" stroke = "black" stroke-width = "3" />
1
	<line x1 = "12157" y1 = "13557" x2 = "12107" y2 = "13560" style="stroke:rgb(255,0,0);stroke-width:2" />

	<line x1 = "12107" y1 = "13560" x2 = "12104" y2 = "13510" style="stroke:rgb(255,0,0);stroke-width:2" />

	<line x1 = "12104" y1 = "13510" x2 = "12154" y2 = "13507" style="stroke:rgb(255,0,0);stroke-width:2" />

	<line x1 = "12157" y1 = "13557" x2 = "12154" y2 = "13507" style="stroke:rgb(255,0,0);stroke-width:2" />

	<circle cx = "12131" cy = "13534" r = "2" stroke = "black" stroke-width = "3" />
1
	<line x1 = "980" y1 = "1165" x2 = "931" y2 = "1175" style="stroke:rgb(255,0,0);stroke-width:2" />

	<line x1 = "931" y1 = "1175" x2 = "921" y2 = "1126" style="stroke:rgb(255,0,0);stroke-width:2" />

	<line x1 = "921" y1 = "1126" x2 = "970" y2 = "1116" style="stroke:rgb(255,0,0);stroke-width:2" />

	<line x1 = "980" y1 = "1165" x2 = "970" y2 = "1116" style="stroke:rgb(255,0,0);stroke-width:2" />

	<circle cx = "951" cy = "1146" r = "2" stroke = "black" stroke-width = "3" />
1
	<line x1 = "780" y1 = "1006" x2 = "811" y2 = "966" style="stroke:rgb(255,0,0);stroke-width:2" />

	<line x1 = "811" y1 = "966" x2 = "851" y2 = "997" style="stroke:rgb(255,0,0);stroke-width:2" />

	<line x1 = "851" y1 = "997" x2 = "820" y2 = "1037" style="stroke:rgb(255,0,0);stroke-width:2" />

	<line x1 = "780" y1 = "1006" x2 = "820" y2 = "1037" style="stroke:rgb(255,0,0);stroke-width:2" />

	<circle cx = "816" cy = "1002" r = "2" stroke = "black" stroke-width = "3" />
1
	<line x1 = "846" y1 = "687" x2 = "830" y2 = "734" style="stroke:rgb(255,0,0);stroke-width:2" />

	<line x1 = "830" y1 = "734" x2 = "782" y2 = "718" style="stroke:rgb(255,0,0);stroke-width:2" />

	<line x1 = "782" y1 = "718" x2 = "799" y2 = "670" style="stroke:rgb(255,0,0);stroke-width:2" />

	<line x1 = "846" y1 = "687" x2 = "799" y2 = "670" style="stroke:rgb(255,0,0);stroke-width:2" />

	<circle cx = "814" cy = "702" r = "2" stroke = "black" stroke-width = "3" />
1
	<line x1 = "665" y1 = "67" x2 = "643" y2 = "112" style="stroke:rgb(255,0,0);stroke-width:2" />

	<line x1 = "643" y1 = "112" x2 = "598" y2 = "90" style="stroke:rgb(255,0,0);stroke-width:2" />

	<line x1 = "598" y1 = "90" x2 = "620" y2 = "45" style="stroke:rgb(255,0,0);stroke-width:2" />

	<line x1 = "665" y1 = "67" x2 = "620" y2 = "45" style="stroke:rgb(255,0,0);stroke-width:2" />

	<circle cx = "632" cy = "79" r = "2" stroke = "black" stroke-width = "3" />
1
	<line x1 = "758" y1 = "953" x2 = "774" y2 = "906" style="stroke:rgb(255,0,0);stroke-width:2" />

	<line x1 = "774" y1 = "906" x2 = "821" y2 = "922" style="stroke:rgb(255,0,0);stroke-width:2" />

	<line x1 = "821" y1 = "922" x2 = "805" y2 = "969" style="stroke:rgb(255,0,0);stroke-width:2" />

	<line x1 = "758" y1 = "953" x2 = "805" y2 = "969" style="stroke:rgb(255,0,0);stroke-width:2" />

	<circle cx = "790" cy = "938" r = "2" stroke = "black" stroke-width = "3" />
1
	<line x1 = "746" y1 = "860" x2 = "734" y2 = "811" style="stroke:rgb(255,0,0);stroke-width:2" />

	<line x1 = "734" y1 = "811" x2 = "783" y2 = "799" style="stroke:rgb(255,0,0);stroke-width:2" />

	<line x1 = "783" y1 = "799" x2 = "795" y2 = "848" style="stroke:rgb(255,0,0);stroke-width:2" />

	<line x1 = "746" y1 = "860" x2 = "795" y2 = "848" style="stroke:rgb(255,0,0);stroke-width:2" />

	<circle cx = "765" cy = "830" r = "2" stroke = "black" stroke-width = "3" />
1
	<line x1 = "536" y1 = "800" x2 = "575" y2 = "768" style="stroke:rgb(255,0,0);stroke-width:2" />

	<line x1 = "575" y1 = "768" x2 = "607" y2 = "807" style="stroke:rgb(255,0,0);stroke-width:2" />

	<line x1 = "607" y1 = "807" x2 = "568" y2 = "839" style="stroke:rgb(255,0,0);stroke-width:2" />

	<line x1 = "536" y1 = "800" x2 = "568" y2 = "839" style="stroke:rgb(255,0,0);stroke-width:2" />

	<circle cx = "572" cy = "804" r = "2" stroke = "black" stroke-width = "3" />
1
	<line x1 = "423" y1 = "459" x2 = "394" y2 = "465" style="stroke:rgb(255,0,0);stroke-width:2" />

	<line x1 = "394" y1 = "465" x2 = "388" y2 = "436" style="stroke:rgb(255,0,0);stroke-width:2" />

	<line x1 = "388" y1 = "436" x2 = "417" y2 = "430" style="stroke:rgb(255,0,0);stroke-width:2" />

	<line x1 = "423" y1 = "459" x2 = "417" y2 = "430" style="stroke:rgb(255,0,0);stroke-width:2" />

	<circle cx = "406" cy = "448" r = "2" stroke = "black" stroke-width = "3" />
1
	<line x1 = "341" y1 = "276" x2 = "361" y2 = "299" style="stroke:rgb(255,0,0);stroke-width:2" />

	<line x1 = "361" y1 = "299" x2 = "338" y2 = "319" style="stroke:rgb(255,0,0);stroke-width:2" />

	<line x1 = "338" y1 = "319" x2 = "318" y2 = "296" style="stroke:rgb(255,0,0);stroke-width:2" />

	<line x1 = "341" y1 = "276" x2 = "318" y2 = "296" style="stroke:rgb(255,0,0);stroke-width:2" />

	<circle cx = "340" cy = "298" r = "2" stroke = "black" stroke-width = "3" />
1
	<line x1 = "425" y1 = "732" x2 = "426" y2 = "702" style="stroke:rgb(255,0,0);stroke-width:2" />

	<line x1 = "426" y1 = "702" x2 = "456" y2 = "703" style="stroke:rgb(255,0,0);stroke-width:2" />

	<line x1 = "456" y1 = "703" x2 = "455" y2 = "733" style="stroke:rgb(255,0,0);stroke-width:2" />

	<line x1 = "425" y1 = "732" x2 = "455" y2 = "733" style="stroke:rgb(255,0,0);stroke-width:2" />

	<circle cx = "441" cy = "717" r = "2" stroke = "black" stroke-width = "3" />
1
	<line x1 = "453" y1 = "620" x2 = "459" y2 = "591" style="stroke:rgb(255,0,0);stroke-width:2" />

	<line x1 = "459" y1 = "591" x2 = "488" y2 = "597" style="stroke:rgb(255,0,0);stroke-width:2" />

	<line x1 = "488" y1 = "597" x2 = "482" y2 = "626" style="stroke:rgb(255,0,0);stroke-width:2" />

	<line x1 = "453" y1 = "620" x2 = "482" y2 = "626" style="stroke:rgb(255,0,0);stroke-width:2" />

	<circle cx = "471" cy = "609" r = "2" stroke = "black" stroke-width = "3" />
1
	<line x1 = "270" y1 = "395" x2 = "275" y2 = "425" style="stroke:rgb(255,0,0);stroke-width:2" />

	<line x1 = "275" y1 = "425" x2 = "245" y2 = "429" style="stroke:rgb(255,0,0);stroke-width:2" />

	<line x1 = "245" y1 = "429" x2 = "240" y2 = "400" style="stroke:rgb(255,0,0);stroke-width:2" />

	<line x1 = "270" y1 = "395" x2 = "240" y2 = "400" style="stroke:rgb(255,0,0);stroke-width:2" />

	<circle cx = "258" cy = "412" r = "2" stroke = "black" stroke-width = "3" />
1
	<line x1 = "1556" y1 = "1795" x2 = "1533" y2 = "1815" style="stroke:rgb(255,0,0);stroke-width:2" />

	<line x1 = "1533" y1 = "1815" x2 = "1513" y2 = "1792" style="stroke:rgb(255,0,0);stroke-width:2" />

	<line x1 = "1513" y1 = "1792" x2 = "1536" y2 = "1772" style="stroke:rgb(255,0,0);stroke-width:2" />

	<line x1 = "1556" y1 = "1795" x2 = "1536" y2 = "1772" style="stroke:rgb(255,0,0);stroke-width:2" />

	<circle cx = "1535" cy = "1794" r = "2" stroke = "black" stroke-width = "3" />
1
	<line x1 = "334" y1 = "370" x2 = "335" y2 = "400" style="stroke:rgb(255,0,0);stroke-width:2" />

	<line x1 = "335" y1 = "400" x2 = "305" y2 = "401" style="stroke:rgb(255,0,0);stroke-width:2" />

	<line x1 = "305" y1 = "401" x2 = "304" y2 = "371" style="stroke:rgb(255,0,0);stroke-width:2" />

	<line x1 = "334" y1 = "370" x2 = "304" y2 = "371" style="stroke:rgb(255,0,0);stroke-width:2" />

	<circle cx = "320" cy = "386" r = "2" stroke = "black" stroke-width = "3" />
1
	<line x1 = "693" y1 = "679" x2 = "674" y2 = "703" style="stroke:rgb(255,0,0);stroke-width:2" />

	<line x1 = "674" y1 = "703" x2 = "650" y2 = "684" style="stroke:rgb(255,0,0);stroke-width:2" />

	<line x1 = "650" y1 = "684" x2 = "669" y2 = "660" style="stroke:rgb(255,0,0);stroke-width:2" />

	<line x1 = "693" y1 = "679" x2 = "669" y2 = "660" style="stroke:rgb(255,0,0);stroke-width:2" />

	<circle cx = "672" cy = "682" r = "2" stroke = "black" stroke-width = "3" />
1
	<line x1 = "1202" y1 = "1612" x2 = "1232" y2 = "1609" style="stroke:rgb(255,0,0);stroke-width:2" />

	<line x1 = "1232" y1 = "1609" x2 = "1235" y2 = "1639" style="stroke:rgb(255,0,0);stroke-width:2" />

	<line x1 = "1235" y1 = "1639" x2 = "1205" y2 = "1642" style="stroke:rgb(255,0,0);stroke-width:2" />

	<line x1 = "1202" y1 = "1612" x2 = "1205" y2 = "1642" style="stroke:rgb(255,0,0);stroke-width:2" />

	<circle cx = "1219" cy = "1626" r = "2" stroke = "black" stroke-width = "3" />
1
	<line x1 = "813" y1 = "893" x2 = "783" y2 = "900" style="stroke:rgb(255,0,0);stroke-width:2" />

	<line x1 = "783" y1 = "900" x2 = "776" y2 = "870" style="stroke:rgb(255,0,0);stroke-width:2" />

	<line x1 = "776" y1 = "870" x2 = "806" y2 = "863" style="stroke:rgb(255,0,0);stroke-width:2" />

	<line x1 = "813" y1 = "893" x2 = "806" y2 = "863" style="stroke:rgb(255,0,0);stroke-width:2" />

	<circle cx = "795" cy = "882" r = "2" stroke = "black" stroke-width = "3" />
1
	<line x1 = "323" y1 = "318" x2 = "311" y2 = "334" style="stroke:rgb(255,0,0);stroke-width:2" />

	<line x1 = "311" y1 = "334" x2 = "295" y2 = "321" style="stroke:rgb(255,0,0);stroke-width:2" />

	<line x1 = "295" y1 = "321" x2 = "307" y2 = "306" style="stroke:rgb(255,0,0);stroke-width:2" />

	<line x1 = "323" y1 = "318" x2 = "307" y2 = "306" style="stroke:rgb(255,0,0);stroke-width:2" />

	<circle cx = "309" cy = "320" r = "2" stroke = "black" stroke-width = "3" />
1
	<line x1 = "310" y1 = "261" x2 = "309" y2 = "281" style="stroke:rgb(255,0,0);stroke-width:2" />

	<line x1 = "309" y1 = "281" x2 = "289" y2 = "280" style="stroke:rgb(255,0,0);stroke-width:2" />

	<line x1 = "289" y1 = "280" x2 = "290" y2 = "260" style="stroke:rgb(255,0,0);stroke-width:2" />

	<line x1 = "310" y1 = "261" x2 = "290" y2 = "260" style="stroke:rgb(255,0,0);stroke-width:2" />

	<circle cx = "300" cy = "271" r = "2" stroke = "black" stroke-width = "3" />
1
	<line x1 = "537" y1 = "561" x2 = "520" y2 = "572" style="stroke:rgb(255,0,0);stroke-width:2" />

	<line x1 = "520" y1 = "572" x2 = "509" y2 = "556" style="stroke:rgb(255,0,0);stroke-width:2" />

	<line x1 = "509" y1 = "556" x2 = "525" y2 = "545" style="stroke:rgb(255,0,0);stroke-width:2" />

	<line x1 = "537" y1 = "561" x2 = "525" y2 = "545" style="stroke:rgb(255,0,0);stroke-width:2" />

	<circle cx = "523" cy = "558" r = "2" stroke = "black" stroke-width = "3" />
1
	<line x1 = "263" y1 = "467" x2 = "243" y2 = "466" style="stroke:rgb(255,0,0);stroke-width:2" />

	<line x1 = "243" y1 = "466" x2 = "244" y2 = "446" style="stroke:rgb(255,0,0);stroke-width:2" />

	<line x1 = "244" y1 = "446" x2 = "264" y2 = "447" style="stroke:rgb(255,0,0);stroke-width:2" />

	<line x1 = "263" y1 = "467" x2 = "264" y2 = "447" style="stroke:rgb(255,0,0);stroke-width:2" />

	<circle cx = "254" cy = "457" r = "2" stroke = "black" stroke-width = "3" />
1
	<line x1 = "619" y1 = "821" x2 = "610" y2 = "839" style="stroke:rgb(255,0,0);stroke-width:2" />

	<line x1 = "610" y1 = "839" x2 = "592" y2 = "830" style="stroke:rgb(255,0,0);stroke-width:2" />

	<line x1 = "592" y1 = "830" x2 = "601" y2 = "812" style="stroke:rgb(255,0,0);stroke-width:2" />

	<line x1 = "619" y1 = "821" x2 = "601" y2 = "812" style="stroke:rgb(255,0,0);stroke-width:2" />

	<circle cx = "606" cy = "826" r = "2" stroke = "black" stroke-width = "3" />
1
	<line x1 = "640" y1 = "551" x2 = "629" y2 = "535" style="stroke:rgb(255,0,0);stroke-width:2" />

	<line x1 = "629" y1 = "535" x2 = "645" y2 = "524" style="stroke:rgb(255,0,0);stroke-width:2" />

	<line x1 = "645" y1 = "524" x2 = "656" y2 = "540" style="stroke:rgb(255,0,0);stroke-width:2" />

	<line x1 = "640" y1 = "551" x2 = "656" y2 = "540" style="stroke:rgb(255,0,0);stroke-width:2" />

	<circle cx = "643" cy = "538" r = "2" stroke = "black" stroke-width = "3" />
1
	<line x1 = "362" y1 = "443" x2 = "361" y2 = "423" style="stroke:rgb(255,0,0);stroke-width:2" />

	<line x1 = "361" y1 = "423" x2 = "381" y2 = "422" style="stroke:rgb(255,0,0);stroke-width:2" />

	<line x1 = "381" y1 = "422" x2 = "382" y2 = "442" style="stroke:rgb(255,0,0);stroke-width:2" />

	<line x1 = "362" y1 = "443" x2 = "382" y2 = "442" style="stroke:rgb(255,0,0);stroke-width:2" />

	<circle cx = "372" cy = "433" r = "2" stroke = "black" stroke-width = "3" />
1
	<line x1 = "769" y1 = "266" x2 = "763" y2 = "285" style="stroke:rgb(255,0,0);stroke-width:2" />

	<line x1 = "763" y1 = "285" x2 = "744" y2 = "279" style="stroke:rgb(255,0,0);stroke-width:2" />

	<line x1 = "744" y1 = "279" x2 = "750" y2 = "260" style="stroke:rgb(255,0,0);stroke-width:2" />

	<line x1 = "769" y1 = "266" x2 = "750" y2 = "260" style="stroke:rgb(255,0,0);stroke-width:2" />

	<circle cx = "757" cy = "273" r = "2" stroke = "black" stroke-width = "3" />
1
	<line x1 = "1203" y1 = "1047" x2 = "1200" y2 = "1027" style="stroke:rgb(255,0,0);stroke-width:2" />

	<line x1 = "1200" y1 = "1027" x2 = "1220" y2 = "1024" style="stroke:rgb(255,0,0);stroke-width:2" />

	<line x1 = "1220" y1 = "1024" x2 = "1223" y2 = "1044" style="stroke:rgb(255,0,0);stroke-width:2" />

	<line x1 = "1203" y1 = "1047" x2 = "1223" y2 = "1044" style="stroke:rgb(255,0,0);stroke-width:2" />

	<circle cx = "1212" cy = "1036" r = "2" stroke = "black" stroke-width = "3" />
1
	<line x1 = "299" y1 = "219" x2 = "293" y2 = "200" style="stroke:rgb(255,0,0);stroke-width:2" />

	<line x1 = "293" y1 = "200" x2 = "312" y2 = "194" style="stroke:rgb(255,0,0);stroke-width:2" />

	<line x1 = "312" y1 = "194" x2 = "318" y2 = "213" style="stroke:rgb(255,0,0);stroke-width:2" />

	<line x1 = "299" y1 = "219" x2 = "318" y2 = "213" style="stroke:rgb(255,0,0);stroke-width:2" />

	<circle cx = "306" cy = "207" r = "2" stroke = "black" stroke-width = "3" />
1
	<line x1 = "1031" y1 = "1365" x2 = "1021" y2 = "1348" style="stroke:rgb(255,0,0);stroke-width:2" />

	<line x1 = "1021" y1 = "1348" x2 = "1038" y2 = "1338" style="stroke:rgb(255,0,0);stroke-width:2" />

	<line x1 = "1038" y1 = "1338" x2 = "1048" y2 = "1355" style="stroke:rgb(255,0,0);stroke-width:2" />

	<line x1 = "1031" y1 = "1365" x2 = "1048" y2 = "1355" style="stroke:rgb(255,0,0);stroke-width:2" />

	<circle cx = "1035" cy = "1352" r = "2" stroke = "black" stroke-width = "3" />
1
	<line x1 = "299" y1 = "348" x2 = "315" y2 = "337" style="stroke:rgb(255,0,0);stroke-width:2" />

	<line x1 = "315" y1 = "337" x2 = "326" y2 = "353" style="stroke:rgb(255,0,0);stroke-width:2" />

	<line x1 = "326" y1 = "353" x2 = "310" y2 = "364" style="stroke:rgb(255,0,0);stroke-width:2" />

	<line x1 = "299" y1 = "348" x2 = "310" y2 = "364" style="stroke:rgb(255,0,0);stroke-width:2" />

	<circle cx = "313" cy = "351" r = "2" stroke = "black" stroke-width = "3" />
1
	<line x1 = "424" y1 = "487" x2 = "405" y2 = "495" style="stroke:rgb(255,0,0);stroke-width:2" />

	<line x1 = "405" y1 = "495" x2 = "397" y2 = "476" style="stroke:rgb(255,0,0);stroke-width:2" />

	<line x1 = "397" y1 = "476" x2 = "416" y2 = "468" style="stroke:rgb(255,0,0);stroke-width:2" />

	<line x1 = "424" y1 = "487" x2 = "416" y2 = "468" style="stroke:rgb(255,0,0);stroke-width:2" />

	<circle cx = "411" cy = "482" r = "2" stroke = "black" stroke-width = "3" />
1
	<line x1 = "363" y1 = "420" x2 = "349" y2 = "405" style="stroke:rgb(255,0,0);stroke-width:2" />

	<line x1 = "349" y1 = "405" x2 = "364" y2 = "391" style="stroke:rgb(255,0,0);stroke-width:2" />

	<line x1 = "364" y1 = "391" x2 = "378" y2 = "406" style="stroke:rgb(255,0,0);stroke-width:2" />

	<line x1 = "363" y1 = "420" x2 = "378" y2 = "406" style="stroke:rgb(255,0,0);stroke-width:2" />

	<circle cx = "364" cy = "406" r = "2" stroke = "black" stroke-width = "3" />
1
	<line x1 = "604" y1 = "731" x2 = "620" y2 = "718" style="stroke:rgb(255,0,0);stroke-width:2" />

	<line x1 = "620" y1 = "718" x2 = "633" y2 = "734" style="stroke:rgb(255,0,0);stroke-width:2" />

	<line x1 = "633" y1 = "734" x2 = "617" y2 = "747" style="stroke:rgb(255,0,0);stroke-width:2" />

	<line x1 = "604" y1 = "731" x2 = "617" y2 = "747" style="stroke:rgb(255,0,0);stroke-width:2" />

	<circle cx = "619" cy = "733" r = "2" stroke = "black" stroke-width = "3" />
1
	<line x1 = "1013" y1 = "1057" x2 = "997" y2 = "1068" style="stroke:rgb(255,0,0);stroke-width:2" />

	<line x1 = "997" y1 = "1068" x2 = "986" y2 = "1052" style="stroke:rgb(255,0,0);stroke-width:2" />

	<line x1 = "986" y1 = "1052" x2 = "1002" y2 = "1041" style="stroke:rgb(255,0,0);stroke-width:2" />

	<line x1 = "1013" y1 = "1057" x2 = "1002" y2 = "1041" style="stroke:rgb(255,0,0);stroke-width:2" />

	<circle cx = "1000" cy = "1055" r = "2" stroke = "black" stroke-width = "3" />
1
	<line x1 = "224" y1 = "446" x2 = "226" y2 = "427" style="stroke:rgb(255,0,0);stroke-width:2" />

	<line x1 = "226" y1 = "427" x2 = "245" y2 = "429" style="stroke:rgb(255,0,0);stroke-width:2" />

	<line x1 = "245" y1 = "429" x2 = "243" y2 = "448" style="stroke:rgb(255,0,0);stroke-width:2" />

	<line x1 = "224" y1 = "446" x2 = "243" y2 = "448" style="stroke:rgb(255,0,0);stroke-width:2" />

	<circle cx = "235" cy = "438" r = "2" stroke = "black" stroke-width = "3" />
1
	<line x1 = "1265" y1 = "1421" x2 = "1278" y2 = "1437" style="stroke:rgb(255,0,0);stroke-width:2" />

	<line x1 = "1278" y1 = "1437" x2 = "1262" y2 = "1450" style="stroke:rgb(255,0,0);stroke-width:2" />

	<line x1 = "1262" y1 = "1450" x2 = "1249" y2 = "1434" style="stroke:rgb(255,0,0);stroke-width:2" />

	<line x1 = "1265" y1 = "1421" x2 = "1249" y2 = "1434" style="stroke:rgb(255,0,0);stroke-width:2" />

	<circle cx = "1264" cy = "1436" r = "2" stroke = "black" stroke-width = "3" />
1
	<line x1 = "748" y1 = "200" x2 = "742" y2 = "219" style="stroke:rgb(255,0,0);stroke-width:2" />

	<line x1 = "742" y1 = "219" x2 = "723" y2 = "213" style="stroke:rgb(255,0,0);stroke-width:2" />

	<line x1 = "723" y1 = "213" x2 = "729" y2 = "194" style="stroke:rgb(255,0,0);stroke-width:2" />

	<line x1 = "748" y1 = "200" x2 = "729" y2 = "194" style="stroke:rgb(255,0,0);stroke-width:2" />

	<circle cx = "736" cy = "207" r = "2" stroke = "black" stroke-width = "3" />
1
	<line x1 = "450" y1 = "469" x2 = "431" y2 = "477" style="stroke:rgb(255,0,0);stroke-width:2" />

	<line x1 = "431" y1 = "477" x2 = "423" y2 = "458" style="stroke:rgb(255,0,0);stroke-width:2" />

	<line x1 = "423" y1 = "458" x2 = "442" y2 = "451" style="stroke:rgb(255,0,0);stroke-width:2" />

	<line x1 = "450" y1 = "469" x2 = "442" y2 = "451" style="stroke:rgb(255,0,0);stroke-width:2" />

	<circle cx = "436" cy = "464" r = "2" stroke = "black" stroke-width = "3" />
1</svg>
