<svg xmlns="http://www.w3.org/2000/svg" version="1.1" height="1000" width="1000">

	<line x1 = "355" y1 = "215" x2 = "612" y2 = "369" style="stroke:rgb(255,0,0);stroke-width:2" />

	<line x1 = "612" y1 = "369" x2 = "458" y2 = "627" style="stroke:rgb(255,0,0);stroke-width:2" />

	<line x1 = "458" y1 = "627" x2 = "200" y2 = "472" style="stroke:rgb(255,0,0);stroke-width:2" />

	<line x1 = "355" y1 = "215" x2 = "200" y2 = "472" style="stroke:rgb(255,0,0);stroke-width:2" />

	<circle cx = "406" cy = "421" r = "2" stroke = "black" stroke-width = "3" />
1
	<line x1 = "332" y1 = "212" x2 = "182" y2 = "223" style="stroke:rgb(255,0,0);stroke-width:2" />

	<line x1 = "182" y1 = "223" x2 = "171" y2 = "73" style="stroke:rgb(255,0,0);stroke-width:2" />

	<line x1 = "171" y1 = "73" x2 = "321" y2 = "62" style="stroke:rgb(255,0,0);stroke-width:2" />

	<line x1 = "332" y1 = "212" x2 = "321" y2 = "62" style="stroke:rgb(255,0,0);stroke-width:2" />

	<circle cx = "252" cy = "143" r = "2" stroke = "black" stroke-width = "3" />
1
	<line x1 = "85" y1 = "675" x2 = "33" y2 = "534" style="stroke:rgb(255,0,0);stroke-width:2" />

	<line x1 = "33" y1 = "534" x2 = "174" y2 = "482" style="stroke:rgb(255,0,0);stroke-width:2" />

	<line x1 = "174" y1 = "482" x2 = "226" y2 = "623" style="stroke:rgb(255,0,0);stroke-width:2" />

	<line x1 = "85" y1 = "675" x2 = "226" y2 = "623" style="stroke:rgb(255,0,0);stroke-width:2" />

	<circle cx = "130" cy = "579" r = "2" stroke = "black" stroke-width = "3" />
1
	<line x1 = "315" y1 = "1026" x2 = "312" y2 = "876" style="stroke:rgb(255,0,0);stroke-width:2" />

	<line x1 = "312" y1 = "876" x2 = "462" y2 = "873" style="stroke:rgb(255,0,0);stroke-width:2" />

	<line x1 = "462" y1 = "873" x2 = "465" y2 = "1023" style="stroke:rgb(255,0,0);stroke-width:2" />

	<line x1 = "315" y1 = "1026" x2 = "465" y2 = "1023" style="stroke:rgb(255,0,0);stroke-width:2" />

	<circle cx = "389" cy = "950" r = "2" stroke = "black" stroke-width = "3" />
1
	<line x1 = "138" y1 = "455" x2 = "-11" y2 = "448" style="stroke:rgb(255,0,0);stroke-width:2" />

	<line x1 = "-11" y1 = "448" x2 = "-4" y2 = "298" style="stroke:rgb(255,0,0);stroke-width:2" />

	<line x1 = "-4" y1 = "298" x2 = "145" y2 = "305" style="stroke:rgb(255,0,0);stroke-width:2" />

	<line x1 = "138" y1 = "455" x2 = "145" y2 = "305" style="stroke:rgb(255,0,0);stroke-width:2" />

	<circle cx = "67" cy = "377" r = "2" stroke = "black" stroke-width = "3" />
1
	<line x1 = "609" y1 = "158" x2 = "472" y2 = "220" style="stroke:rgb(255,0,0);stroke-width:2" />

	<line x1 = "472" y1 = "220" x2 = "410" y2 = "83" style="stroke:rgb(255,0,0);stroke-width:2" />

	<line x1 = "410" y1 = "83" x2 = "547" y2 = "21" style="stroke:rgb(255,0,0);stroke-width:2" />

	<line x1 = "609" y1 = "158" x2 = "547" y2 = "21" style="stroke:rgb(255,0,0);stroke-width:2" />

	<circle cx = "510" cy = "121" r = "2" stroke = "black" stroke-width = "3" />
1
	<line x1 = "725" y1 = "324" x2 = "594" y2 = "252" style="stroke:rgb(255,0,0);stroke-width:2" />

	<line x1 = "594" y1 = "252" x2 = "666" y2 = "121" style="stroke:rgb(255,0,0);stroke-width:2" />

	<line x1 = "666" y1 = "121" x2 = "797" y2 = "193" style="stroke:rgb(255,0,0);stroke-width:2" />

	<line x1 = "725" y1 = "324" x2 = "797" y2 = "193" style="stroke:rgb(255,0,0);stroke-width:2" />

	<circle cx = "696" cy = "223" r = "2" stroke = "black" stroke-width = "3" />
1
	<line x1 = "673" y1 = "1274" x2 = "668" y2 = "1424" style="stroke:rgb(255,0,0);stroke-width:2" />

	<line x1 = "668" y1 = "1424" x2 = "518" y2 = "1419" style="stroke:rgb(255,0,0);stroke-width:2" />

	<line x1 = "518" y1 = "1419" x2 = "523" y2 = "1269" style="stroke:rgb(255,0,0);stroke-width:2" />

	<line x1 = "673" y1 = "1274" x2 = "523" y2 = "1269" style="stroke:rgb(255,0,0);stroke-width:2" />

	<circle cx = "596" cy = "1347" r = "2" stroke = "black" stroke-width = "3" />
1
	<line x1 = "596" y1 = "444" x2 = "675" y2 = "316" style="stroke:rgb(255,0,0);stroke-width:2" />

	<line x1 = "675" y1 = "316" x2 = "803" y2 = "395" style="stroke:rgb(255,0,0);stroke-width:2" />

	<line x1 = "803" y1 = "395" x2 = "724" y2 = "523" style="stroke:rgb(255,0,0);stroke-width:2" />

	<line x1 = "596" y1 = "444" x2 = "724" y2 = "523" style="stroke:rgb(255,0,0);stroke-width:2" />

	<circle cx = "700" cy = "420" r = "2" stroke = "black" stroke-width = "3" />
1
	<line x1 = "1201" y1 = "395" x2 = "1204" y2 = "495" style="stroke:rgb(255,0,0);stroke-width:2" />

	<line x1 = "1204" y1 = "495" x2 = "1104" y2 = "498" style="stroke:rgb(255,0,0);stroke-width:2" />

	<line x1 = "1104" y1 = "498" x2 = "1101" y2 = "398" style="stroke:rgb(255,0,0);stroke-width:2" />

	<line x1 = "1201" y1 = "395" x2 = "1101" y2 = "398" style="stroke:rgb(255,0,0);stroke-width:2" />

	<circle cx = "1153" cy = "447" r = "2" stroke = "black" stroke-width = "3" />
1
	<line x1 = "184" y1 = "347" x2 = "152" y2 = "252" style="stroke:rgb(255,0,0);stroke-width:2" />

	<line x1 = "152" y1 = "252" x2 = "247" y2 = "220" style="stroke:rgb(255,0,0);stroke-width:2" />

	<line x1 = "247" y1 = "220" x2 = "279" y2 = "315" style="stroke:rgb(255,0,0);stroke-width:2" />

	<line x1 = "184" y1 = "347" x2 = "279" y2 = "315" style="stroke:rgb(255,0,0);stroke-width:2" />

	<circle cx = "216" cy = "284" r = "2" stroke = "black" stroke-width = "3" />
1
	<line x1 = "1020" y1 = "610" x2 = "991" y2 = "514" style="stroke:rgb(255,0,0);stroke-width:2" />

	<line x1 = "991" y1 = "514" x2 = "1087" y2 = "485" style="stroke:rgb(255,0,0);stroke-width:2" />

	<line x1 = "1087" y1 = "485" x2 = "1116" y2 = "581" style="stroke:rgb(255,0,0);stroke-width:2" />

	<line x1 = "1020" y1 = "610" x2 = "1116" y2 = "581" style="stroke:rgb(255,0,0);stroke-width:2" />

	<circle cx = "1054" cy = "548" r = "2" stroke = "black" stroke-width = "3" />
1
	<line x1 = "228" y1 = "697" x2 = "247" y2 = "599" style="stroke:rgb(255,0,0);stroke-width:2" />

	<line x1 = "247" y1 = "599" x2 = "345" y2 = "618" style="stroke:rgb(255,0,0);stroke-width:2" />

	<line x1 = "345" y1 = "618" x2 = "326" y2 = "716" style="stroke:rgb(255,0,0);stroke-width:2" />

	<line x1 = "228" y1 = "697" x2 = "326" y2 = "716" style="stroke:rgb(255,0,0);stroke-width:2" />

	<circle cx = "287" cy = "658" r = "2" stroke = "black" stroke-width = "3" />
1
	<line x1 = "504" y1 = "758" x2 = "412" y2 = "721" style="stroke:rgb(255,0,0);stroke-width:2" />

	<line x1 = "412" y1 = "721" x2 = "449" y2 = "629" style="stroke:rgb(255,0,0);stroke-width:2" />

	<line x1 = "449" y1 = "629" x2 = "541" y2 = "666" style="stroke:rgb(255,0,0);stroke-width:2" />

	<line x1 = "504" y1 = "758" x2 = "541" y2 = "666" style="stroke:rgb(255,0,0);stroke-width:2" />

	<circle cx = "477" cy = "694" r = "2" stroke = "black" stroke-width = "3" />
1
	<line x1 = "410" y1 = "617" x2 = "409" y2 = "667" style="stroke:rgb(255,0,0);stroke-width:2" />

	<line x1 = "409" y1 = "667" x2 = "359" y2 = "666" style="stroke:rgb(255,0,0);stroke-width:2" />

	<line x1 = "359" y1 = "666" x2 = "360" y2 = "616" style="stroke:rgb(255,0,0);stroke-width:2" />

	<line x1 = "410" y1 = "617" x2 = "360" y2 = "616" style="stroke:rgb(255,0,0);stroke-width:2" />

	<circle cx = "385" cy = "642" r = "2" stroke = "black" stroke-width = "3" />
1
	<line x1 = "575" y1 = "261" x2 = "528" y2 = "243" style="stroke:rgb(255,0,0);stroke-width:2" />

	<line x1 = "528" y1 = "243" x2 = "546" y2 = "196" style="stroke:rgb(255,0,0);stroke-width:2" />

	<line x1 = "546" y1 = "196" x2 = "593" y2 = "214" style="stroke:rgb(255,0,0);stroke-width:2" />

	<line x1 = "575" y1 = "261" x2 = "593" y2 = "214" style="stroke:rgb(255,0,0);stroke-width:2" />

	<circle cx = "561" cy = "229" r = "2" stroke = "black" stroke-width = "3" />
1
	<line x1 = "1157" y1 = "529" x2 = "1199" y2 = "556" style="stroke:rgb(255,0,0);stroke-width:2" />

	<line x1 = "1199" y1 = "556" x2 = "1172" y2 = "598" style="stroke:rgb(255,0,0);stroke-width:2" />

	<line x1 = "1172" y1 = "598" x2 = "1130" y2 = "571" style="stroke:rgb(255,0,0);stroke-width:2" />

	<line x1 = "1157" y1 = "529" x2 = "1130" y2 = "571" style="stroke:rgb(255,0,0);stroke-width:2" />

	<circle cx = "1165" cy = "564" r = "2" stroke = "black" stroke-width = "3" />
1
	<line x1 = "642" y1 = "289" x2 = "651" y2 = "338" style="stroke:rgb(255,0,0);stroke-width:2" />

	<line x1 = "651" y1 = "338" x2 = "602" y2 = "348" style="stroke:rgb(255,0,0);stroke-width:2" />

	<line x1 = "602" y1 = "348" x2 = "593" y2 = "299" style="stroke:rgb(255,0,0);stroke-width:2" />

	<line x1 = "642" y1 = "289" x2 = "593" y2 = "299" style="stroke:rgb(255,0,0);stroke-width:2" />

	<circle cx = "622" cy = "318" r = "2" stroke = "black" stroke-width = "3" />
1
	<line x1 = "668" y1 = "500" x2 = "682" y2 = "548" style="stroke:rgb(255,0,0);stroke-width:2" />

	<line x1 = "682" y1 = "548" x2 = "634" y2 = "562" style="stroke:rgb(255,0,0);stroke-width:2" />

	<line x1 = "634" y1 = "562" x2 = "620" y2 = "514" style="stroke:rgb(255,0,0);stroke-width:2" />

	<line x1 = "668" y1 = "500" x2 = "620" y2 = "514" style="stroke:rgb(255,0,0);stroke-width:2" />

	<circle cx = "651" cy = "531" r = "2" stroke = "black" stroke-width = "3" />
1
	<line x1 = "1207" y1 = "489" x2 = "1253" y2 = "508" style="stroke:rgb(255,0,0);stroke-width:2" />

	<line x1 = "1253" y1 = "508" x2 = "1234" y2 = "554" style="stroke:rgb(255,0,0);stroke-width:2" />

	<line x1 = "1234" y1 = "554" x2 = "1188" y2 = "535" style="stroke:rgb(255,0,0);stroke-width:2" />

	<line x1 = "1207" y1 = "489" x2 = "1188" y2 = "535" style="stroke:rgb(255,0,0);stroke-width:2" />

	<circle cx = "1221" cy = "522" r = "2" stroke = "black" stroke-width = "3" />
1
	<line x1 = "522" y1 = "252" x2 = "489" y2 = "290" style="stroke:rgb(255,0,0);stroke-width:2" />

	<line x1 = "489" y1 = "290" x2 = "451" y2 = "257" style="stroke:rgb(255,0,0);stroke-width:2" />

	<line x1 = "451" y1 = "257" x2 = "484" y2 = "219" style="stroke:rgb(255,0,0);stroke-width:2" />

	<line x1 = "522" y1 = "252" x2 = "484" y2 = "219" style="stroke:rgb(255,0,0);stroke-width:2" />

	<circle cx = "486" cy = "255" r = "2" stroke = "black" stroke-width = "3" />
1
	<line x1 = "588" y1 = "531" x2 = "565" y2 = "575" style="stroke:rgb(255,0,0);stroke-width:2" />

	<line x1 = "565" y1 = "575" x2 = "521" y2 = "552" style="stroke:rgb(255,0,0);stroke-width:2" />

	<line x1 = "521" y1 = "552" x2 = "544" y2 = "508" style="stroke:rgb(255,0,0);stroke-width:2" />

	<line x1 = "588" y1 = "531" x2 = "544" y2 = "508" style="stroke:rgb(255,0,0);stroke-width:2" />

	<circle cx = "555" cy = "542" r = "2" stroke = "black" stroke-width = "3" />
1
	<line x1 = "341" y1 = "720" x2 = "367" y2 = "677" style="stroke:rgb(255,0,0);stroke-width:2" />

	<line x1 = "367" y1 = "677" x2 = "410" y2 = "703" style="stroke:rgb(255,0,0);stroke-width:2" />

	<line x1 = "410" y1 = "703" x2 = "384" y2 = "746" style="stroke:rgb(255,0,0);stroke-width:2" />

	<line x1 = "341" y1 = "720" x2 = "384" y2 = "746" style="stroke:rgb(255,0,0);stroke-width:2" />

	<circle cx = "376" cy = "712" r = "2" stroke = "black" stroke-width = "3" />
1
	<line x1 = "253" y1 = "538" x2 = "303" y2 = "543" style="stroke:rgb(255,0,0);stroke-width:2" />

	<line x1 = "303" y1 = "543" x2 = "298" y2 = "593" style="stroke:rgb(255,0,0);stroke-width:2" />

	<line x1 = "298" y1 = "593" x2 = "249" y2 = "588" style="stroke:rgb(255,0,0);stroke-width:2" />

	<line x1 = "253" y1 = "538" x2 = "249" y2 = "588" style="stroke:rgb(255,0,0);stroke-width:2" />

	<circle cx = "276" cy = "565" r = "2" stroke = "black" stroke-width = "3" />
1
	<line x1 = "605" y1 = "615" x2 = "653" y2 = "601" style="stroke:rgb(255,0,0);stroke-width:2" />

	<line x1 = "653" y1 = "601" x2 = "667" y2 = "649" style="stroke:rgb(255,0,0);stroke-width:2" />

	<line x1 = "667" y1 = "649" x2 = "619" y2 = "663" style="stroke:rgb(255,0,0);stroke-width:2" />

	<line x1 = "605" y1 = "615" x2 = "619" y2 = "663" style="stroke:rgb(255,0,0);stroke-width:2" />

	<circle cx = "636" cy = "632" r = "2" stroke = "black" stroke-width = "3" />
1
	<line x1 = "245" y1 = "887" x2 = "255" y2 = "838" style="stroke:rgb(255,0,0);stroke-width:2" />

	<line x1 = "255" y1 = "838" x2 = "304" y2 = "848" style="stroke:rgb(255,0,0);stroke-width:2" />

	<line x1 = "304" y1 = "848" x2 = "294" y2 = "897" style="stroke:rgb(255,0,0);stroke-width:2" />

	<line x1 = "245" y1 = "887" x2 = "294" y2 = "897" style="stroke:rgb(255,0,0);stroke-width:2" />

	<circle cx = "275" cy = "868" r = "2" stroke = "black" stroke-width = "3" />
1
	<line x1 = "293" y1 = "736" x2 = "343" y2 = "727" style="stroke:rgb(255,0,0);stroke-width:2" />

	<line x1 = "343" y1 = "727" x2 = "352" y2 = "777" style="stroke:rgb(255,0,0);stroke-width:2" />

	<line x1 = "352" y1 = "777" x2 = "302" y2 = "786" style="stroke:rgb(255,0,0);stroke-width:2" />

	<line x1 = "293" y1 = "736" x2 = "302" y2 = "786" style="stroke:rgb(255,0,0);stroke-width:2" />

	<circle cx = "323" cy = "757" r = "2" stroke = "black" stroke-width = "3" />
1
	<line x1 = "261" y1 = "804" x2 = "218" y2 = "778" style="stroke:rgb(255,0,0);stroke-width:2" />

	<line x1 = "218" y1 = "778" x2 = "244" y2 = "735" style="stroke:rgb(255,0,0);stroke-width:2" />

	<line x1 = "244" y1 = "735" x2 = "287" y2 = "761" style="stroke:rgb(255,0,0);stroke-width:2" />

	<line x1 = "261" y1 = "804" x2 = "287" y2 = "761" style="stroke:rgb(255,0,0);stroke-width:2" />

	<circle cx = "253" cy = "770" r = "2" stroke = "black" stroke-width = "3" />
1
	<line x1 = "167" y1 = "720" x2 = "202" y2 = "684" style="stroke:rgb(255,0,0);stroke-width:2" />

	<line x1 = "202" y1 = "684" x2 = "238" y2 = "719" style="stroke:rgb(255,0,0);stroke-width:2" />

	<line x1 = "238" y1 = "719" x2 = "203" y2 = "755" style="stroke:rgb(255,0,0);stroke-width:2" />

	<line x1 = "167" y1 = "720" x2 = "203" y2 = "755" style="stroke:rgb(255,0,0);stroke-width:2" />

	<circle cx = "203" cy = "720" r = "2" stroke = "black" stroke-width = "3" />
1
	<line x1 = "338" y1 = "178" x2 = "367" y2 = "184" style="stroke:rgb(255,0,0);stroke-width:2" />

	<line x1 = "367" y1 = "184" x2 = "361" y2 = "213" style="stroke:rgb(255,0,0);stroke-width:2" />

	<line x1 = "361" y1 = "213" x2 = "332" y2 = "207" style="stroke:rgb(255,0,0);stroke-width:2" />

	<line x1 = "338" y1 = "178" x2 = "332" y2 = "207" style="stroke:rgb(255,0,0);stroke-width:2" />

	<circle cx = "350" cy = "196" r = "2" stroke = "black" stroke-width = "3" />
1
	<line x1 = "453" y1 = "212" x2 = "448" y2 = "242" style="stroke:rgb(255,0,0);stroke-width:2" />

	<line x1 = "448" y1 = "242" x2 = "418" y2 = "237" style="stroke:rgb(255,0,0);stroke-width:2" />

	<line x1 = "418" y1 = "237" x2 = "423" y2 = "207" style="stroke:rgb(255,0,0);stroke-width:2" />

	<line x1 = "453" y1 = "212" x2 = "423" y2 = "207" style="stroke:rgb(255,0,0);stroke-width:2" />

	<circle cx = "436" cy = "225" r = "2" stroke = "black" stroke-width = "3" />
1
	<line x1 = "275" y1 = "251" x2 = "304" y2 = "243" style="stroke:rgb(255,0,0);stroke-width:2" />

	<line x1 = "304" y1 = "243" x2 = "312" y2 = "272" style="stroke:rgb(255,0,0);stroke-width:2" />

	<line x1 = "312" y1 = "272" x2 = "283" y2 = "280" style="stroke:rgb(255,0,0);stroke-width:2" />

	<line x1 = "275" y1 = "251" x2 = "283" y2 = "280" style="stroke:rgb(255,0,0);stroke-width:2" />

	<circle cx = "294" cy = "262" r = "2" stroke = "black" stroke-width = "3" />
1
	<line x1 = "183" y1 = "359" x2 = "197" y2 = "386" style="stroke:rgb(255,0,0);stroke-width:2" />

	<line x1 = "197" y1 = "386" x2 = "170" y2 = "400" style="stroke:rgb(255,0,0);stroke-width:2" />

	<line x1 = "170" y1 = "400" x2 = "156" y2 = "373" style="stroke:rgb(255,0,0);stroke-width:2" />

	<line x1 = "183" y1 = "359" x2 = "156" y2 = "373" style="stroke:rgb(255,0,0);stroke-width:2" />

	<circle cx = "177" cy = "380" r = "2" stroke = "black" stroke-width = "3" />
1
	<line x1 = "599" y1 = "498" x2 = "570" y2 = "490" style="stroke:rgb(255,0,0);stroke-width:2" />

	<line x1 = "570" y1 = "490" x2 = "578" y2 = "461" style="stroke:rgb(255,0,0);stroke-width:2" />

	<line x1 = "578" y1 = "461" x2 = "607" y2 = "469" style="stroke:rgb(255,0,0);stroke-width:2" />

	<line x1 = "599" y1 = "498" x2 = "607" y2 = "469" style="stroke:rgb(255,0,0);stroke-width:2" />

	<circle cx = "589" cy = "480" r = "2" stroke = "black" stroke-width = "3" />
1
	<line x1 = "1191" y1 = "889" x2 = "1221" y2 = "882" style="stroke:rgb(255,0,0);stroke-width:2" />

	<line x1 = "1221" y1 = "882" x2 = "1228" y2 = "912" style="stroke:rgb(255,0,0);stroke-width:2" />

	<line x1 = "1228" y1 = "912" x2 = "1198" y2 = "919" style="stroke:rgb(255,0,0);stroke-width:2" />

	<line x1 = "1191" y1 = "889" x2 = "1198" y2 = "919" style="stroke:rgb(255,0,0);stroke-width:2" />

	<circle cx = "1210" cy = "901" r = "2" stroke = "black" stroke-width = "3" />
1
	<line x1 = "619" y1 = "731" x2 = "639" y2 = "754" style="stroke:rgb(255,0,0);stroke-width:2" />

	<line x1 = "639" y1 = "754" x2 = "616" y2 = "774" style="stroke:rgb(255,0,0);stroke-width:2" />

	<line x1 = "616" y1 = "774" x2 = "596" y2 = "751" style="stroke:rgb(255,0,0);stroke-width:2" />

	<line x1 = "619" y1 = "731" x2 = "596" y2 = "751" style="stroke:rgb(255,0,0);stroke-width:2" />

	<circle cx = "618" cy = "753" r = "2" stroke = "black" stroke-width = "3" />
1
	<line x1 = "762" y1 = "1340" x2 = "757" y2 = "1370" style="stroke:rgb(255,0,0);stroke-width:2" />

	<line x1 = "757" y1 = "1370" x2 = "727" y2 = "1365" style="stroke:rgb(255,0,0);stroke-width:2" />

	<line x1 = "727" y1 = "1365" x2 = "732" y2 = "1335" style="stroke:rgb(255,0,0);stroke-width:2" />

	<line x1 = "762" y1 = "1340" x2 = "732" y2 = "1335" style="stroke:rgb(255,0,0);stroke-width:2" />

	<circle cx = "745" cy = "1353" r = "2" stroke = "black" stroke-width = "3" />
1
	<line x1 = "1100" y1 = "1088" x2 = "1088" y2 = "1115" style="stroke:rgb(255,0,0);stroke-width:2" />

	<line x1 = "1088" y1 = "1115" x2 = "1061" y2 = "1103" style="stroke:rgb(255,0,0);stroke-width:2" />

	<line x1 = "1061" y1 = "1103" x2 = "1073" y2 = "1076" style="stroke:rgb(255,0,0);stroke-width:2" />

	<line x1 = "1100" y1 = "1088" x2 = "1073" y2 = "1076" style="stroke:rgb(255,0,0);stroke-width:2" />

	<circle cx = "1081" cy = "1096" r = "2" stroke = "black" stroke-width = "3" />
1
	<line x1 = "330" y1 = "566" x2 = "351" y2 = "587" style="stroke:rgb(255,0,0);stroke-width:2" />

	<line x1 = "351" y1 = "587" x2 = "330" y2 = "608" style="stroke:rgb(255,0,0);stroke-width:2" />

	<line x1 = "330" y1 = "608" x2 = "309" y2 = "587" style="stroke:rgb(255,0,0);stroke-width:2" />

	<line x1 = "330" y1 = "566" x2 = "309" y2 = "587" style="stroke:rgb(255,0,0);stroke-width:2" />

	<circle cx = "330" cy = "587" r = "2" stroke = "black" stroke-width = "3" />
1
	<line x1 = "610" y1 = "525" x2 = "594" y2 = "512" style="stroke:rgb(255,0,0);stroke-width:2" />

	<line x1 = "594" y1 = "512" x2 = "607" y2 = "496" style="stroke:rgb(255,0,0);stroke-width:2" />

	<line x1 = "607" y1 = "496" x2 = "623" y2 = "509" style="stroke:rgb(255,0,0);stroke-width:2" />

	<line x1 = "610" y1 = "525" x2 = "623" y2 = "509" style="stroke:rgb(255,0,0);stroke-width:2" />

	<circle cx = "609" cy = "511" r = "2" stroke = "black" stroke-width = "3" />
1
	<line x1 = "371" y1 = "207" x2 = "381" y2 = "190" style="stroke:rgb(255,0,0);stroke-width:2" />

	<line x1 = "381" y1 = "190" x2 = "398" y2 = "200" style="stroke:rgb(255,0,0);stroke-width:2" />

	<line x1 = "398" y1 = "200" x2 = "388" y2 = "217" style="stroke:rgb(255,0,0);stroke-width:2" />

	<line x1 = "371" y1 = "207" x2 = "388" y2 = "217" style="stroke:rgb(255,0,0);stroke-width:2" />

	<circle cx = "385" cy = "204" r = "2" stroke = "black" stroke-width = "3" />
1
	<line x1 = "593" y1 = "548" x2 = "596" y2 = "528" style="stroke:rgb(255,0,0);stroke-width:2" />

	<line x1 = "596" y1 = "528" x2 = "616" y2 = "531" style="stroke:rgb(255,0,0);stroke-width:2" />

	<line x1 = "616" y1 = "531" x2 = "613" y2 = "551" style="stroke:rgb(255,0,0);stroke-width:2" />

	<line x1 = "593" y1 = "548" x2 = "613" y2 = "551" style="stroke:rgb(255,0,0);stroke-width:2" />

	<circle cx = "605" cy = "540" r = "2" stroke = "black" stroke-width = "3" />
1
	<line x1 = "310" y1 = "221" x2 = "328" y2 = "230" style="stroke:rgb(255,0,0);stroke-width:2" />

	<line x1 = "328" y1 = "230" x2 = "319" y2 = "248" style="stroke:rgb(255,0,0);stroke-width:2" />

	<line x1 = "319" y1 = "248" x2 = "301" y2 = "239" style="stroke:rgb(255,0,0);stroke-width:2" />

	<line x1 = "310" y1 = "221" x2 = "301" y2 = "239" style="stroke:rgb(255,0,0);stroke-width:2" />

	<circle cx = "315" cy = "235" r = "2" stroke = "black" stroke-width = "3" />
1
	<line x1 = "614" y1 = "376" x2 = "615" y2 = "356" style="stroke:rgb(255,0,0);stroke-width:2" />

	<line x1 = "615" y1 = "356" x2 = "635" y2 = "357" style="stroke:rgb(255,0,0);stroke-width:2" />

	<line x1 = "635" y1 = "357" x2 = "634" y2 = "377" style="stroke:rgb(255,0,0);stroke-width:2" />

	<line x1 = "614" y1 = "376" x2 = "634" y2 = "377" style="stroke:rgb(255,0,0);stroke-width:2" />

	<circle cx = "625" cy = "367" r = "2" stroke = "black" stroke-width = "3" />
1
	<line x1 = "478" y1 = "1179" x2 = "494" y2 = "1166" style="stroke:rgb(255,0,0);stroke-width:2" />

	<line x1 = "494" y1 = "1166" x2 = "507" y2 = "1182" style="stroke:rgb(255,0,0);stroke-width:2" />

	<line x1 = "507" y1 = "1182" x2 = "491" y2 = "1195" style="stroke:rgb(255,0,0);stroke-width:2" />

	<line x1 = "478" y1 = "1179" x2 = "491" y2 = "1195" style="stroke:rgb(255,0,0);stroke-width:2" />

	<circle cx = "493" cy = "1181" r = "2" stroke = "black" stroke-width = "3" />
1
	<line x1 = "220" y1 = "593" x2 = "234" y2 = "578" style="stroke:rgb(255,0,0);stroke-width:2" />

	<line x1 = "234" y1 = "578" x2 = "249" y2 = "592" style="stroke:rgb(255,0,0);stroke-width:2" />

	<line x1 = "249" y1 = "592" x2 = "235" y2 = "607" style="stroke:rgb(255,0,0);stroke-width:2" />

	<line x1 = "220" y1 = "593" x2 = "235" y2 = "607" style="stroke:rgb(255,0,0);stroke-width:2" />

	<circle cx = "235" cy = "593" r = "2" stroke = "black" stroke-width = "3" />
1
	<line x1 = "271" y1 = "242" x2 = "270" y2 = "222" style="stroke:rgb(255,0,0);stroke-width:2" />

	<line x1 = "270" y1 = "222" x2 = "290" y2 = "221" style="stroke:rgb(255,0,0);stroke-width:2" />

	<line x1 = "290" y1 = "221" x2 = "291" y2 = "241" style="stroke:rgb(255,0,0);stroke-width:2" />

	<line x1 = "271" y1 = "242" x2 = "291" y2 = "241" style="stroke:rgb(255,0,0);stroke-width:2" />

	<circle cx = "281" cy = "232" r = "2" stroke = "black" stroke-width = "3" />
1
	<line x1 = "865" y1 = "713" x2 = "885" y2 = "718" style="stroke:rgb(255,0,0);stroke-width:2" />

	<line x1 = "885" y1 = "718" x2 = "880" y2 = "738" style="stroke:rgb(255,0,0);stroke-width:2" />

	<line x1 = "880" y1 = "738" x2 = "860" y2 = "733" style="stroke:rgb(255,0,0);stroke-width:2" />

	<line x1 = "865" y1 = "713" x2 = "860" y2 = "733" style="stroke:rgb(255,0,0);stroke-width:2" />

	<circle cx = "873" cy = "726" r = "2" stroke = "black" stroke-width = "3" />
1
	<line x1 = "1108" y1 = "1098" x2 = "1125" y2 = "1088" style="stroke:rgb(255,0,0);stroke-width:2" />

	<line x1 = "1125" y1 = "1088" x2 = "1135" y2 = "1105" style="stroke:rgb(255,0,0);stroke-width:2" />

	<line x1 = "1135" y1 = "1105" x2 = "1118" y2 = "1115" style="stroke:rgb(255,0,0);stroke-width:2" />

	<line x1 = "1108" y1 = "1098" x2 = "1118" y2 = "1115" style="stroke:rgb(255,0,0);stroke-width:2" />

	<circle cx = "1122" cy = "1102" r = "2" stroke = "black" stroke-width = "3" />
1
	<line x1 = "423" y1 = "188" x2 = "414" y2 = "206" style="stroke:rgb(255,0,0);stroke-width:2" />

	<line x1 = "414" y1 = "206" x2 = "396" y2 = "197" style="stroke:rgb(255,0,0);stroke-width:2" />

	<line x1 = "396" y1 = "197" x2 = "405" y2 = "179" style="stroke:rgb(255,0,0);stroke-width:2" />

	<line x1 = "423" y1 = "188" x2 = "405" y2 = "179" style="stroke:rgb(255,0,0);stroke-width:2" />

	<circle cx = "410" cy = "193" r = "2" stroke = "black" stroke-width = "3" />
1
	<line x1 = "814" y1 = "360" x2 = "795" y2 = "368" style="stroke:rgb(255,0,0);stroke-width:2" />

	<line x1 = "795" y1 = "368" x2 = "787" y2 = "349" style="stroke:rgb(255,0,0);stroke-width:2" />

	<line x1 = "787" y1 = "349" x2 = "806" y2 = "341" style="stroke:rgb(255,0,0);stroke-width:2" />

	<line x1 = "814" y1 = "360" x2 = "806" y2 = "341" style="stroke:rgb(255,0,0);stroke-width:2" />

	<circle cx = "801" cy = "355" r = "2" stroke = "black" stroke-width = "3" />
1
	<line x1 = "216" y1 = "351" x2 = "217" y2 = "371" style="stroke:rgb(255,0,0);stroke-width:2" />

	<line x1 = "217" y1 = "371" x2 = "197" y2 = "372" style="stroke:rgb(255,0,0);stroke-width:2" />

	<line x1 = "197" y1 = "372" x2 = "196" y2 = "352" style="stroke:rgb(255,0,0);stroke-width:2" />

	<line x1 = "216" y1 = "351" x2 = "196" y2 = "352" style="stroke:rgb(255,0,0);stroke-width:2" />

	<circle cx = "207" cy = "362" r = "2" stroke = "black" stroke-width = "3" />
1
	<line x1 = "544" y1 = "495" x2 = "558" y2 = "480" style="stroke:rgb(255,0,0);stroke-width:2" />

	<line x1 = "558" y1 = "480" x2 = "573" y2 = "494" style="stroke:rgb(255,0,0);stroke-width:2" />

	<line x1 = "573" y1 = "494" x2 = "559" y2 = "509" style="stroke:rgb(255,0,0);stroke-width:2" />

	<line x1 = "544" y1 = "495" x2 = "559" y2 = "509" style="stroke:rgb(255,0,0);stroke-width:2" />

	<circle cx = "559" cy = "495" r = "2" stroke = "black" stroke-width = "3" />
1
	<line x1 = "246" y1 = "344" x2 = "256" y2 = "326" style="stroke:rgb(255,0,0);stroke-width:2" />

	<line x1 = "256" y1 = "326" x2 = "273" y2 = "335" style="stroke:rgb(255,0,0);stroke-width:2" />

	<line x1 = "273" y1 = "335" x2 = "264" y2 = "353" style="stroke:rgb(255,0,0);stroke-width:2" />

	<line x1 = "246" y1 = "344" x2 = "264" y2 = "353" style="stroke:rgb(255,0,0);stroke-width:2" />

	<circle cx = "260" cy = "339" r = "2" stroke = "black" stroke-width = "3" />
1
	<line x1 = "460" y1 = "1138" x2 = "480" y2 = "1133" style="stroke:rgb(255,0,0);stroke-width:2" />

	<line x1 = "480" y1 = "1133" x2 = "485" y2 = "1153" style="stroke:rgb(255,0,0);stroke-width:2" />

	<line x1 = "485" y1 = "1153" x2 = "465" y2 = "1158" style="stroke:rgb(255,0,0);stroke-width:2" />

	<line x1 = "460" y1 = "1138" x2 = "465" y2 = "1158" style="stroke:rgb(255,0,0);stroke-width:2" />

	<circle cx = "473" cy = "1146" r = "2" stroke = "black" stroke-width = "3" />
1
	<line x1 = "1139" y1 = "957" x2 = "1152" y2 = "973" style="stroke:rgb(255,0,0);stroke-width:2" />

	<line x1 = "1152" y1 = "973" x2 = "1136" y2 = "986" style="stroke:rgb(255,0,0);stroke-width:2" />

	<line x1 = "1136" y1 = "986" x2 = "1123" y2 = "970" style="stroke:rgb(255,0,0);stroke-width:2" />

	<line x1 = "1139" y1 = "957" x2 = "1123" y2 = "970" style="stroke:rgb(255,0,0);stroke-width:2" />

	<circle cx = "1138" cy = "972" r = "2" stroke = "black" stroke-width = "3" />
1
	<line x1 = "221" y1 = "375" x2 = "230" y2 = "393" style="stroke:rgb(255,0,0);stroke-width:2" />

	<line x1 = "230" y1 = "393" x2 = "212" y2 = "402" style="stroke:rgb(255,0,0);stroke-width:2" />

	<line x1 = "212" y1 = "402" x2 = "203" y2 = "384" style="stroke:rgb(255,0,0);stroke-width:2" />

	<line x1 = "221" y1 = "375" x2 = "203" y2 = "384" style="stroke:rgb(255,0,0);stroke-width:2" />

	<circle cx = "217" cy = "389" r = "2" stroke = "black" stroke-width = "3" />
1
	<line x1 = "188" y1 = "460" x2 = "169" y2 = "454" style="stroke:rgb(255,0,0);stroke-width:2" />

	<line x1 = "169" y1 = "454" x2 = "175" y2 = "435" style="stroke:rgb(255,0,0);stroke-width:2" />

	<line x1 = "175" y1 = "435" x2 = "194" y2 = "441" style="stroke:rgb(255,0,0);stroke-width:2" />

	<line x1 = "188" y1 = "460" x2 = "194" y2 = "441" style="stroke:rgb(255,0,0);stroke-width:2" />

	<circle cx = "182" cy = "448" r = "2" stroke = "black" stroke-width = "3" />
1
	<line x1 = "466" y1 = "1133" x2 = "446" y2 = "1134" style="stroke:rgb(255,0,0);stroke-width:2" />

	<line x1 = "446" y1 = "1134" x2 = "445" y2 = "1114" style="stroke:rgb(255,0,0);stroke-width:2" />

	<line x1 = "445" y1 = "1114" x2 = "465" y2 = "1113" style="stroke:rgb(255,0,0);stroke-width:2" />

	<line x1 = "466" y1 = "1133" x2 = "465" y2 = "1113" style="stroke:rgb(255,0,0);stroke-width:2" />

	<circle cx = "456" cy = "1124" r = "2" stroke = "black" stroke-width = "3" />
1</svg>
