<svg xmlns="http://www.w3.org/2000/svg" version="1.1" height="1000" width="1000">

	<line x1 = "191" y1 = "112" x2 = "441" y2 = "112" style="stroke:rgb(255,0,0);stroke-width:2" />

	<line x1 = "441" y1 = "112" x2 = "441" y2 = "362" style="stroke:rgb(255,0,0);stroke-width:2" />

	<line x1 = "441" y1 = "362" x2 = "191" y2 = "362" style="stroke:rgb(255,0,0);stroke-width:2" />

	<line x1 = "191" y1 = "112" x2 = "191" y2 = "362" style="stroke:rgb(255,0,0);stroke-width:2" />

	<circle cx = "316" cy = "237" r = "2" stroke = "black" stroke-width = "3" />
1
	<line x1 = "641" y1 = "621" x2 = "891" y2 = "621" style="stroke:rgb(255,0,0);stroke-width:2" />

	<line x1 = "891" y1 = "621" x2 = "891" y2 = "871" style="stroke:rgb(255,0,0);stroke-width:2" />

	<line x1 = "891" y1 = "871" x2 = "641" y2 = "871" style="stroke:rgb(255,0,0);stroke-width:2" />

	<line x1 = "641" y1 = "621" x2 = "641" y2 = "871" style="stroke:rgb(255,0,0);stroke-width:2" />

	<circle cx = "766" cy = "746" r = "2" stroke = "black" stroke-width = "3" />
1
	<line x1 = "695" y1 = "497" x2 = "795" y2 = "497" style="stroke:rgb(255,0,0);stroke-width:2" />

	<line x1 = "795" y1 = "497" x2 = "795" y2 = "597" style="stroke:rgb(255,0,0);stroke-width:2" />

	<line x1 = "795" y1 = "597" x2 = "695" y2 = "597" style="stroke:rgb(255,0,0);stroke-width:2" />

	<line x1 = "695" y1 = "497" x2 = "695" y2 = "597" style="stroke:rgb(255,0,0);stroke-width:2" />

	<circle cx = "745" cy = "547" r = "2" stroke = "black" stroke-width = "3" />
1
	<line x1 = "621" y1 = "118" x2 = "721" y2 = "118" style="stroke:rgb(255,0,0);stroke-width:2" />

	<line x1 = "721" y1 = "118" x2 = "721" y2 = "218" style="stroke:rgb(255,0,0);stroke-width:2" />

	<line x1 = "721" y1 = "218" x2 = "621" y2 = "218" style="stroke:rgb(255,0,0);stroke-width:2" />

	<line x1 = "621" y1 = "118" x2 = "621" y2 = "218" style="stroke:rgb(255,0,0);stroke-width:2" />

	<circle cx = "671" cy = "168" r = "2" stroke = "black" stroke-width = "3" />
1</svg>
