<svg xmlns="http://www.w3.org/2000/svg" version="1.1" height="1000" width="1500">

	<line x1 = "50" y1 = "400" x2 = "200" y2 = "500" style="stroke:rgb(255,0,0);stroke-width:2" />

	<line x1 = "200" y1 = "500" x2 = "250" y2 = "300" style="stroke:rgb(255,0,0);stroke-width:2" />

	<line x1 = "250" y1 = "300" x2 = "350" y2 = "450" style="stroke:rgb(255,0,0);stroke-width:2" />

	<line x1 = "350" y1 = "450" x2 = "300" y2 = "500" style="stroke:rgb(255,0,0);stroke-width:2" />

	<line x1 = "300" y1 = "500" x2 = "400" y2 = "600" style="stroke:rgb(255,0,0);stroke-width:2" />

	<line x1 = "400" y1 = "600" x2 = "500" y2 = "500" style="stroke:rgb(255,0,0);stroke-width:2" />

	<line x1 = "500" y1 = "500" x2 = "650" y2 = "700" style="stroke:rgb(255,0,0);stroke-width:2" />

	<line x1 = "650" y1 = "700" x2 = "550" y2 = "370" style="stroke:rgb(255,0,0);stroke-width:2" />

	<line x1 = "550" y1 = "370" x2 = "850" y2 = "400" style="stroke:rgb(255,0,0);stroke-width:2" />

	<line x1 = "850" y1 = "400" x2 = "400" y2 = "250" style="stroke:rgb(255,0,0);stroke-width:2" />

	<line x1 = "400" y1 = "250" x2 = "300" y2 = "130" style="stroke:rgb(255,0,0);stroke-width:2" />

	<line x1 = "300" y1 = "130" x2 = "200" y2 = "100" style="stroke:rgb(255,0,0);stroke-width:2" />

	<line x1 = "200" y1 = "100" x2 = "50" y2 = "400" style="stroke:rgb(255,0,0);stroke-width:2" />

	<line x1 = "50" y1 = "400" x2 = "200" y2 = "500" style="stroke:rgb(255,0,0);stroke-width:2" />

	<line x1 = "200" y1 = "500" x2 = "250" y2 = "300" style="stroke:rgb(255,0,0);stroke-width:2" />

	<line x1 = "250" y1 = "300" x2 = "350" y2 = "450" style="stroke:rgb(255,0,0);stroke-width:2" />

	<line x1 = "350" y1 = "450" x2 = "300" y2 = "500" style="stroke:rgb(255,0,0);stroke-width:2" />

	<line x1 = "300" y1 = "500" x2 = "400" y2 = "600" style="stroke:rgb(255,0,0);stroke-width:2" />

	<line x1 = "400" y1 = "600" x2 = "500" y2 = "500" style="stroke:rgb(255,0,0);stroke-width:2" />

	<line x1 = "500" y1 = "500" x2 = "650" y2 = "700" style="stroke:rgb(255,0,0);stroke-width:2" />

	<line x1 = "650" y1 = "700" x2 = "550" y2 = "370" style="stroke:rgb(255,0,0);stroke-width:2" />

	<line x1 = "550" y1 = "370" x2 = "850" y2 = "400" style="stroke:rgb(255,0,0);stroke-width:2" />

	<line x1 = "850" y1 = "400" x2 = "400" y2 = "250" style="stroke:rgb(255,0,0);stroke-width:2" />

	<line x1 = "400" y1 = "250" x2 = "300" y2 = "130" style="stroke:rgb(255,0,0);stroke-width:2" />

	<line x1 = "300" y1 = "130" x2 = "200" y2 = "100" style="stroke:rgb(255,0,0);stroke-width:2" />

	<line x1 = "200" y1 = "100" x2 = "50" y2 = "400" style="stroke:rgb(255,0,0);stroke-width:2" />

	<line x1 = "500" y1 = "500" x2 = "250" y2 = "300" style="stroke:rgb(255,0,0);stroke-width:2" />

	<line x1 = "550" y1 = "370" x2 = "200" y2 = "100" style="stroke:rgb(255,0,0);stroke-width:2" />

	<line x1 = "50" y1 = "400" x2 = "200" y2 = "500" style="stroke:rgb(255,0,0);stroke-width:2" />

	<line x1 = "50" y1 = "400" x2 = "200" y2 = "100" style="stroke:rgb(255,0,0);stroke-width:2" />

	<line x1 = "200" y1 = "500" x2 = "50" y2 = "400" style="stroke:rgb(255,0,0);stroke-width:2" />

	<line x1 = "200" y1 = "500" x2 = "250" y2 = "300" style="stroke:rgb(255,0,0);stroke-width:2" />

	<line x1 = "250" y1 = "300" x2 = "200" y2 = "500" style="stroke:rgb(255,0,0);stroke-width:2" />

	<line x1 = "250" y1 = "300" x2 = "350" y2 = "450" style="stroke:rgb(255,0,0);stroke-width:2" />

	<line x1 = "250" y1 = "300" x2 = "500" y2 = "500" style="stroke:rgb(255,0,0);stroke-width:2" />

	<line x1 = "350" y1 = "450" x2 = "250" y2 = "300" style="stroke:rgb(255,0,0);stroke-width:2" />

	<line x1 = "350" y1 = "450" x2 = "300" y2 = "500" style="stroke:rgb(255,0,0);stroke-width:2" />

	<line x1 = "300" y1 = "500" x2 = "350" y2 = "450" style="stroke:rgb(255,0,0);stroke-width:2" />

	<line x1 = "300" y1 = "500" x2 = "400" y2 = "600" style="stroke:rgb(255,0,0);stroke-width:2" />

	<line x1 = "400" y1 = "600" x2 = "300" y2 = "500" style="stroke:rgb(255,0,0);stroke-width:2" />

	<line x1 = "400" y1 = "600" x2 = "500" y2 = "500" style="stroke:rgb(255,0,0);stroke-width:2" />

	<line x1 = "500" y1 = "500" x2 = "400" y2 = "600" style="stroke:rgb(255,0,0);stroke-width:2" />

	<line x1 = "500" y1 = "500" x2 = "650" y2 = "700" style="stroke:rgb(255,0,0);stroke-width:2" />

	<line x1 = "500" y1 = "500" x2 = "250" y2 = "300" style="stroke:rgb(255,0,0);stroke-width:2" />

	<line x1 = "650" y1 = "700" x2 = "500" y2 = "500" style="stroke:rgb(255,0,0);stroke-width:2" />

	<line x1 = "650" y1 = "700" x2 = "550" y2 = "370" style="stroke:rgb(255,0,0);stroke-width:2" />

	<line x1 = "550" y1 = "370" x2 = "650" y2 = "700" style="stroke:rgb(255,0,0);stroke-width:2" />

	<line x1 = "550" y1 = "370" x2 = "850" y2 = "400" style="stroke:rgb(255,0,0);stroke-width:2" />

	<line x1 = "550" y1 = "370" x2 = "200" y2 = "100" style="stroke:rgb(255,0,0);stroke-width:2" />

	<line x1 = "850" y1 = "400" x2 = "550" y2 = "370" style="stroke:rgb(255,0,0);stroke-width:2" />

	<line x1 = "850" y1 = "400" x2 = "400" y2 = "250" style="stroke:rgb(255,0,0);stroke-width:2" />

	<line x1 = "400" y1 = "250" x2 = "850" y2 = "400" style="stroke:rgb(255,0,0);stroke-width:2" />

	<line x1 = "400" y1 = "250" x2 = "300" y2 = "130" style="stroke:rgb(255,0,0);stroke-width:2" />

	<line x1 = "300" y1 = "130" x2 = "400" y2 = "250" style="stroke:rgb(255,0,0);stroke-width:2" />

	<line x1 = "300" y1 = "130" x2 = "200" y2 = "100" style="stroke:rgb(255,0,0);stroke-width:2" />

	<line x1 = "200" y1 = "100" x2 = "300" y2 = "130" style="stroke:rgb(255,0,0);stroke-width:2" />

	<line x1 = "200" y1 = "100" x2 = "50" y2 = "400" style="stroke:rgb(255,0,0);stroke-width:2" />

	<line x1 = "200" y1 = "100" x2 = "550" y2 = "370" style="stroke:rgb(255,0,0);stroke-width:2" />
</svg>
