<svg xmlns="http://www.w3.org/2000/svg" version="1.1" height="310" width="500">

	<circle cx = "12" cy = "34" r = "2" stroke = "black" stroke-width = "2" />

	<circle cx = "97" cy = "50" r = "2" stroke = "black" stroke-width = "2" />

	<circle cx = "134" cy = "153" r = "2" stroke = "black" stroke-width = "2" />

	<circle cx = "161" cy = "180" r = "2" stroke = "black" stroke-width = "2" />

	<circle cx = "259" cy = "34" r = "2" stroke = "black" stroke-width = "2" />

	<line x1 = "12" y1 = "34" x2 = "161" y2 = "180" style="stroke:rgb(255,0,0);stroke-width:2" />

	<line x1 = "161" y1 = "180" x2 = "259" y2 = "34" style="stroke:rgb(255,0,0);stroke-width:2" />

	<line x1 = "259" y1 = "34" x2 = "12" y2 = "34" style="stroke:rgb(255,0,0);stroke-width:2" />

	<circle cx = "33" cy = "254" r = "2" stroke = "black" stroke-width = "2" />

	<circle cx = "148" cy = "216" r = "2" stroke = "black" stroke-width = "2" />

	<circle cx = "178" cy = "273" r = "2" stroke = "black" stroke-width = "2" />

	<circle cx = "263" cy = "286" r = "2" stroke = "black" stroke-width = "2" />

	<circle cx = "292" cy = "254" r = "2" stroke = "black" stroke-width = "2" />

	<line x1 = "33" y1 = "254" x2 = "263" y2 = "286" style="stroke:rgb(255,0,0);stroke-width:2" />

	<line x1 = "263" y1 = "286" x2 = "292" y2 = "254" style="stroke:rgb(255,0,0);stroke-width:2" />

	<line x1 = "292" y1 = "254" x2 = "148" y2 = "216" style="stroke:rgb(255,0,0);stroke-width:2" />

	<line x1 = "148" y1 = "216" x2 = "33" y2 = "254" style="stroke:rgb(255,0,0);stroke-width:2" />

	<circle cx = "18" cy = "24" r = "2" stroke = "black" stroke-width = "2" />

	<circle cx = "174" cy = "25" r = "2" stroke = "black" stroke-width = "2" />

	<circle cx = "268" cy = "94" r = "2" stroke = "black" stroke-width = "2" />

	<circle cx = "287" cy = "226" r = "2" stroke = "black" stroke-width = "2" />

	<circle cx = "291" cy = "261" r = "2" stroke = "black" stroke-width = "2" />

	<line x1 = "18" y1 = "24" x2 = "291" y2 = "261" style="stroke:rgb(255,0,0);stroke-width:2" />

	<line x1 = "291" y1 = "261" x2 = "287" y2 = "226" style="stroke:rgb(255,0,0);stroke-width:2" />

	<line x1 = "287" y1 = "226" x2 = "268" y2 = "94" style="stroke:rgb(255,0,0);stroke-width:2" />

	<line x1 = "268" y1 = "94" x2 = "174" y2 = "25" style="stroke:rgb(255,0,0);stroke-width:2" />

	<line x1 = "174" y1 = "25" x2 = "18" y2 = "24" style="stroke:rgb(255,0,0);stroke-width:2" />
</svg>
