<svg xmlns="http://www.w3.org/2000/svg" version="1.1" height="310" width="500">

	<line x1 = "68" y1 = "205" x2 = "402" y2 = "89" style="stroke:rgb(0,255,0);stroke-width:2" />

	<line x1 = "146" y1 = "310" x2 = "20" y2 = "171" style="stroke:rgb(0,255,0);stroke-width:2" />

	<line x1 = "210" y1 = "498" x2 = "497" y2 = "335" style="stroke:rgb(0,255,0);stroke-width:2" />

	<line x1 = "172" y1 = "277" x2 = "146" y2 = "100" style="stroke:rgb(0,255,0);stroke-width:2" />

	<line x1 = "150" y1 = "39" x2 = "315" y2 = "213" style="stroke:rgb(0,255,0);stroke-width:2" />

	<line x1 = "328" y1 = "28" x2 = "231" y2 = "220" style="stroke:rgb(0,255,0);stroke-width:2" />

	<line x1 = "5" y1 = "158" x2 = "156" y2 = "323" style="stroke:rgb(0,255,0);stroke-width:2" />

	<line x1 = "33" y1 = "135" x2 = "191" y2 = "379" style="stroke:rgb(0,255,0);stroke-width:2" />

	<line x1 = "319" y1 = "452" x2 = "261" y2 = "93" style="stroke:rgb(0,255,0);stroke-width:2" />

	<line x1 = "115" y1 = "465" x2 = "462" y2 = "280" style="stroke:rgb(0,255,0);stroke-width:2" />

	<line x1 = "467" y1 = "324" x2 = "101" y2 = "310" style="stroke:rgb(0,255,0);stroke-width:2" />

	<line x1 = "261" y1 = "490" x2 = "28" y2 = "98" style="stroke:rgb(0,255,0);stroke-width:2" />

	<line x1 = "310" y1 = "262" x2 = "290" y2 = "195" style="stroke:rgb(0,255,0);stroke-width:2" />

	<line x1 = "414" y1 = "489" x2 = "147" y2 = "372" style="stroke:rgb(0,255,0);stroke-width:2" />

	<line x1 = "194" y1 = "418" x2 = "52" y2 = "154" style="stroke:rgb(0,255,0);stroke-width:2" />

	<line x1 = "32" y1 = "79" x2 = "30" y2 = "94" style="stroke:rgb(0,255,0);stroke-width:2" />

	<line x1 = "186" y1 = "350" x2 = "314" y2 = "291" style="stroke:rgb(0,255,0);stroke-width:2" />

	<line x1 = "422" y1 = "300" x2 = "476" y2 = "127" style="stroke:rgb(0,255,0);stroke-width:2" />

	<line x1 = "437" y1 = "240" x2 = "229" y2 = "428" style="stroke:rgb(0,255,0);stroke-width:2" />

	<line x1 = "25" y1 = "197" x2 = "459" y2 = "257" style="stroke:rgb(0,255,0);stroke-width:2" />

	<circle cx = "42.9636" cy = "199.483" r = "2" stroke = "black" stroke-width = "3" />

	<circle cx = "46.2287" cy = "199.935" r = "2" stroke = "black" stroke-width = "3" />

	<circle cx = "72.2329" cy = "203.53" r = "2" stroke = "black" stroke-width = "3" />

	<circle cx = "76.4316" cy = "202.072" r = "2" stroke = "black" stroke-width = "3" />

	<circle cx = "77.6324" cy = "201.655" r = "2" stroke = "black" stroke-width = "3" />

	<circle cx = "77.8816" cy = "204.311" r = "2" stroke = "black" stroke-width = "3" />

	<circle cx = "79.1559" cy = "204.487" r = "2" stroke = "black" stroke-width = "3" />

	<circle cx = "84.8465" cy = "215.067" r = "2" stroke = "black" stroke-width = "3" />

	<circle cx = "87.5614" cy = "198.206" r = "2" stroke = "black" stroke-width = "3" />

	<circle cx = "92.3813" cy = "206.315" r = "2" stroke = "black" stroke-width = "3" />

	<circle cx = "121.184" cy = "282.623" r = "2" stroke = "black" stroke-width = "3" />

	<circle cx = "124.227" cy = "288.281" r = "2" stroke = "black" stroke-width = "3" />

	<circle cx = "136.642" cy = "311.363" r = "2" stroke = "black" stroke-width = "3" />

	<circle cx = "145.667" cy = "311.709" r = "2" stroke = "black" stroke-width = "3" />

	<circle cx = "147.471" cy = "311.778" r = "2" stroke = "black" stroke-width = "3" />

	<circle cx = "151.683" cy = "318.283" r = "2" stroke = "black" stroke-width = "3" />

	<circle cx = "155.243" cy = "312.075" r = "2" stroke = "black" stroke-width = "3" />

	<circle cx = "156.889" cy = "174.128" r = "2" stroke = "black" stroke-width = "3" />

	<circle cx = "163.052" cy = "216.086" r = "2" stroke = "black" stroke-width = "3" />

	<circle cx = "176.122" cy = "384.761" r = "2" stroke = "black" stroke-width = "3" />

	<circle cx = "206.31" cy = "397.99" r = "2" stroke = "black" stroke-width = "3" />

	<circle cx = "214.583" cy = "411.908" r = "2" stroke = "black" stroke-width = "3" />

	<circle cx = "225.18" cy = "406.259" r = "2" stroke = "black" stroke-width = "3" />

	<circle cx = "243.953" cy = "414.485" r = "2" stroke = "black" stroke-width = "3" />

	<circle cx = "248.1" cy = "142.45" r = "2" stroke = "black" stroke-width = "3" />

	<circle cx = "251.684" cy = "474.326" r = "2" stroke = "black" stroke-width = "3" />

	<circle cx = "259.617" cy = "316.067" r = "2" stroke = "black" stroke-width = "3" />

	<circle cx = "262.504" cy = "157.641" r = "2" stroke = "black" stroke-width = "3" />

	<circle cx = "267.879" cy = "135.581" r = "2" stroke = "black" stroke-width = "3" />

	<circle cx = "269.277" cy = "144.234" r = "2" stroke = "black" stroke-width = "3" />

	<circle cx = "273.279" cy = "169.003" r = "2" stroke = "black" stroke-width = "3" />

	<circle cx = "274.877" cy = "133.15" r = "2" stroke = "black" stroke-width = "3" />

	<circle cx = "283.578" cy = "232.748" r = "2" stroke = "black" stroke-width = "3" />

	<circle cx = "293.143" cy = "370.025" r = "2" stroke = "black" stroke-width = "3" />

	<circle cx = "294.445" cy = "300.014" r = "2" stroke = "black" stroke-width = "3" />

	<circle cx = "297.271" cy = "317.508" r = "2" stroke = "black" stroke-width = "3" />

	<circle cx = "302.03" cy = "235.299" r = "2" stroke = "black" stroke-width = "3" />

	<circle cx = "304.149" cy = "360.077" r = "2" stroke = "black" stroke-width = "3" />

	<circle cx = "304.756" cy = "363.833" r = "2" stroke = "black" stroke-width = "3" />

	<circle cx = "307.792" cy = "442.46" r = "2" stroke = "black" stroke-width = "3" />

	<circle cx = "316.646" cy = "437.431" r = "2" stroke = "black" stroke-width = "3" />

	<circle cx = "318.195" cy = "447.018" r = "2" stroke = "black" stroke-width = "3" />

	<circle cx = "349.055" cy = "319.488" r = "2" stroke = "black" stroke-width = "3" />

	<circle cx = "385.33" cy = "320.876" r = "2" stroke = "black" stroke-width = "3" />

	<circle cx = "423.605" cy = "252.107" r = "2" stroke = "black" stroke-width = "3" />

	<circle cx = "436.397" cy = "253.875" r = "2" stroke = "black" stroke-width = "3" />

	<line x1 = "42.9636" y1 = "199.483" x2 = "176.122" y2 = "384.761" style="stroke:rgb(255,0,0);stroke-width:2" />

	<line x1 = "176.122" y1 = "384.761" x2 = "251.684" y2 = "474.326" style="stroke:rgb(255,0,0);stroke-width:2" />

	<line x1 = "251.684" y1 = "474.326" x2 = "318.195" y2 = "447.018" style="stroke:rgb(255,0,0);stroke-width:2" />

	<line x1 = "318.195" y1 = "447.018" x2 = "385.33" y2 = "320.876" style="stroke:rgb(255,0,0);stroke-width:2" />

	<line x1 = "385.33" y1 = "320.876" x2 = "436.397" y2 = "253.875" style="stroke:rgb(255,0,0);stroke-width:2" />

	<line x1 = "436.397" y1 = "253.875" x2 = "274.877" y2 = "133.15" style="stroke:rgb(255,0,0);stroke-width:2" />
</svg>
