<svg xmlns="http://www.w3.org/2000/svg" version="1.1" height="1000" width="1500">

	<line x1 = "100" y1 = "100" x2 = "200" y2 = "200" style="stroke:rgb(255,0,0);stroke-width:2" />

	<line x1 = "100" y1 = "100" x2 = "200" y2 = "10" style="stroke:rgb(255,0,0);stroke-width:2" />

	<line x1 = "200" y1 = "200" x2 = "100" y2 = "100" style="stroke:rgb(255,0,0);stroke-width:2" />

	<line x1 = "200" y1 = "200" x2 = "200" y2 = "400" style="stroke:rgb(255,0,0);stroke-width:2" />

	<line x1 = "200" y1 = "200" x2 = "200" y2 = "10" style="stroke:rgb(255,0,0);stroke-width:2" />

	<line x1 = "200" y1 = "400" x2 = "200" y2 = "200" style="stroke:rgb(255,0,0);stroke-width:2" />

	<line x1 = "200" y1 = "400" x2 = "400" y2 = "425" style="stroke:rgb(255,0,0);stroke-width:2" />

	<line x1 = "200" y1 = "400" x2 = "200" y2 = "10" style="stroke:rgb(255,0,0);stroke-width:2" />

	<line x1 = "400" y1 = "425" x2 = "200" y2 = "400" style="stroke:rgb(255,0,0);stroke-width:2" />

	<line x1 = "400" y1 = "425" x2 = "450" y2 = "200" style="stroke:rgb(255,0,0);stroke-width:2" />

	<line x1 = "400" y1 = "425" x2 = "200" y2 = "10" style="stroke:rgb(255,0,0);stroke-width:2" />

	<line x1 = "450" y1 = "200" x2 = "400" y2 = "425" style="stroke:rgb(255,0,0);stroke-width:2" />

	<line x1 = "450" y1 = "200" x2 = "410" y2 = "100" style="stroke:rgb(255,0,0);stroke-width:2" />

	<line x1 = "450" y1 = "200" x2 = "200" y2 = "10" style="stroke:rgb(255,0,0);stroke-width:2" />

	<line x1 = "410" y1 = "100" x2 = "450" y2 = "200" style="stroke:rgb(255,0,0);stroke-width:2" />

	<line x1 = "410" y1 = "100" x2 = "200" y2 = "10" style="stroke:rgb(255,0,0);stroke-width:2" />

	<line x1 = "410" y1 = "100" x2 = "200" y2 = "10" style="stroke:rgb(255,0,0);stroke-width:2" />

	<line x1 = "200" y1 = "10" x2 = "410" y2 = "100" style="stroke:rgb(255,0,0);stroke-width:2" />

	<line x1 = "200" y1 = "10" x2 = "100" y2 = "100" style="stroke:rgb(255,0,0);stroke-width:2" />

	<line x1 = "200" y1 = "10" x2 = "200" y2 = "200" style="stroke:rgb(255,0,0);stroke-width:2" />

	<line x1 = "200" y1 = "10" x2 = "200" y2 = "400" style="stroke:rgb(255,0,0);stroke-width:2" />

	<line x1 = "200" y1 = "10" x2 = "400" y2 = "425" style="stroke:rgb(255,0,0);stroke-width:2" />

	<line x1 = "200" y1 = "10" x2 = "450" y2 = "200" style="stroke:rgb(255,0,0);stroke-width:2" />

	<line x1 = "200" y1 = "10" x2 = "410" y2 = "100" style="stroke:rgb(255,0,0);stroke-width:2" />
</svg>
