<svg xmlns="http://www.w3.org/2000/svg" version="1.1" height="1000" width="1500">

	<line x1 = "50" y1 = "30" x2 = "100" y2 = "100" style="stroke:rgb(255,0,0);stroke-width:2" />

	<line x1 = "100" y1 = "100" x2 = "100" y2 = "200" style="stroke:rgb(255,0,0);stroke-width:2" />

	<line x1 = "100" y1 = "200" x2 = "50" y2 = "300" style="stroke:rgb(255,0,0);stroke-width:2" />

	<line x1 = "50" y1 = "300" x2 = "200" y2 = "200" style="stroke:rgb(255,0,0);stroke-width:2" />

	<line x1 = "200" y1 = "200" x2 = "200" y2 = "100" style="stroke:rgb(255,0,0);stroke-width:2" />

	<line x1 = "200" y1 = "100" x2 = "50" y2 = "30" style="stroke:rgb(255,0,0);stroke-width:2" />

	<line x1 = "50" y1 = "30" x2 = "100" y2 = "100" style="stroke:rgb(255,0,0);stroke-width:2" />

	<line x1 = "100" y1 = "100" x2 = "100" y2 = "200" style="stroke:rgb(255,0,0);stroke-width:2" />

	<line x1 = "100" y1 = "200" x2 = "50" y2 = "300" style="stroke:rgb(255,0,0);stroke-width:2" />

	<line x1 = "50" y1 = "300" x2 = "200" y2 = "200" style="stroke:rgb(255,0,0);stroke-width:2" />

	<line x1 = "200" y1 = "200" x2 = "200" y2 = "100" style="stroke:rgb(255,0,0);stroke-width:2" />

	<line x1 = "200" y1 = "100" x2 = "50" y2 = "30" style="stroke:rgb(255,0,0);stroke-width:2" />

	<line x1 = "100" y1 = "100" x2 = "200" y2 = "100" style="stroke:rgb(255,0,0);stroke-width:2" />

	<line x1 = "100" y1 = "200" x2 = "200" y2 = "100" style="stroke:rgb(255,0,0);stroke-width:2" />

	<line x1 = "50" y1 = "300" x2 = "200" y2 = "100" style="stroke:rgb(255,0,0);stroke-width:2" />

	<line x1 = "200" y1 = "200" x2 = "200" y2 = "100" style="stroke:rgb(255,0,0);stroke-width:2" />
</svg>
