<svg xmlns="http://www.w3.org/2000/svg" version="1.1" height="1200" width="1500">

	<line x1 = "526.531" y1 = "673.469" x2 = "673.469" y2 = "673.469" style="stroke:rgb(255,0,0);stroke-width:2" />

	<line x1 = "673.469" y1 = "673.469" x2 = "673.469" y2 = "526.53" style="stroke:rgb(255,0,0);stroke-width:2" />

	<line x1 = "673.469" y1 = "526.53" x2 = "526.531" y2 = "526.53" style="stroke:rgb(255,0,0);stroke-width:2" />

	<line x1 = "526.531" y1 = "673.469" x2 = "526.531" y2 = "526.53" style="stroke:rgb(255,0,0);stroke-width:2" />

	<circle cx = "600" cy = "600" r = "2" stroke = "black" stroke-width = "3" />

	<line x1 = "483.871" y1 = "483.871" x2 = "483.871" y2 = "716.129" style="stroke:rgb(255,0,0);stroke-width:2" />

	<line x1 = "483.871" y1 = "716.129" x2 = "716.129" y2 = "716.129" style="stroke:rgb(255,0,0);stroke-width:2" />

	<line x1 = "716.129" y1 = "716.129" x2 = "716.129" y2 = "483.871" style="stroke:rgb(255,0,0);stroke-width:2" />

	<line x1 = "483.871" y1 = "483.871" x2 = "716.129" y2 = "483.871" style="stroke:rgb(255,0,0);stroke-width:2" />

	<circle cx = "600" cy = "600" r = "2" stroke = "black" stroke-width = "3" />

	<line x1 = "673.469" y1 = "526.53" x2 = "526.531" y2 = "526.53" style="stroke:rgb(255,0,0);stroke-width:2" />

	<line x1 = "526.531" y1 = "526.53" x2 = "483.871" y2 = "483.871" style="stroke:rgb(255,0,0);stroke-width:2" />

	<line x1 = "483.871" y1 = "483.871" x2 = "716.129" y2 = "483.871" style="stroke:rgb(255,0,0);stroke-width:2" />

	<line x1 = "673.469" y1 = "526.53" x2 = "716.129" y2 = "483.871" style="stroke:rgb(255,0,0);stroke-width:2" />

	<circle cx = "600" cy = "510" r = "2" stroke = "black" stroke-width = "3" />

	<line x1 = "526.531" y1 = "673.469" x2 = "673.469" y2 = "673.469" style="stroke:rgb(255,0,0);stroke-width:2" />

	<line x1 = "673.469" y1 = "673.469" x2 = "716.129" y2 = "716.129" style="stroke:rgb(255,0,0);stroke-width:2" />

	<line x1 = "716.129" y1 = "716.129" x2 = "483.871" y2 = "716.129" style="stroke:rgb(255,0,0);stroke-width:2" />

	<line x1 = "526.531" y1 = "673.469" x2 = "483.871" y2 = "716.129" style="stroke:rgb(255,0,0);stroke-width:2" />

	<circle cx = "600" cy = "690" r = "2" stroke = "black" stroke-width = "3" />

	<line x1 = "673.469" y1 = "673.469" x2 = "673.469" y2 = "526.53" style="stroke:rgb(255,0,0);stroke-width:2" />

	<line x1 = "673.469" y1 = "526.53" x2 = "716.129" y2 = "483.871" style="stroke:rgb(255,0,0);stroke-width:2" />

	<line x1 = "716.129" y1 = "483.871" x2 = "716.129" y2 = "716.129" style="stroke:rgb(255,0,0);stroke-width:2" />

	<line x1 = "673.469" y1 = "673.469" x2 = "716.129" y2 = "716.129" style="stroke:rgb(255,0,0);stroke-width:2" />

	<circle cx = "690" cy = "600" r = "2" stroke = "black" stroke-width = "3" />

	<line x1 = "526.531" y1 = "673.469" x2 = "526.531" y2 = "526.53" style="stroke:rgb(255,0,0);stroke-width:2" />

	<line x1 = "526.531" y1 = "526.53" x2 = "483.871" y2 = "483.871" style="stroke:rgb(255,0,0);stroke-width:2" />

	<line x1 = "483.871" y1 = "483.871" x2 = "483.871" y2 = "716.129" style="stroke:rgb(255,0,0);stroke-width:2" />

	<line x1 = "526.531" y1 = "673.469" x2 = "483.871" y2 = "716.129" style="stroke:rgb(255,0,0);stroke-width:2" />

	<circle cx = "510" cy = "600" r = "2" stroke = "black" stroke-width = "3" />
</svg>
