<svg xmlns="http://www.w3.org/2000/svg" version="1.1" height="1200" width="1500">

	<line x1 = "552" y1 = "984" x2 = "648" y2 = "984" style="stroke:rgb(255,0,0);stroke-width:2" />

	<line x1 = "648" y1 = "984" x2 = "686" y2 = "882" style="stroke:rgb(255,0,0);stroke-width:2" />

	<line x1 = "686" y1 = "882" x2 = "514" y2 = "882" style="stroke:rgb(255,0,0);stroke-width:2" />

	<line x1 = "552" y1 = "984" x2 = "514" y2 = "882" style="stroke:rgb(255,0,0);stroke-width:2" />

	<circle cx = "600" cy = "946" r = "2" stroke = "black" stroke-width = "3" />

	<line x1 = "446" y1 = "1052" x2 = "534" y2 = "1090" style="stroke:rgb(255,0,0);stroke-width:2" />

	<line x1 = "534" y1 = "1090" x2 = "666" y2 = "1090" style="stroke:rgb(255,0,0);stroke-width:2" />

	<line x1 = "666" y1 = "1090" x2 = "754" y2 = "1052" style="stroke:rgb(255,0,0);stroke-width:2" />

	<line x1 = "446" y1 = "1052" x2 = "754" y2 = "1052" style="stroke:rgb(255,0,0);stroke-width:2" />

	<circle cx = "600" cy = "1078" r = "2" stroke = "black" stroke-width = "3" />

	<line x1 = "686" y1 = "882" x2 = "514" y2 = "882" style="stroke:rgb(255,0,0);stroke-width:2" />

	<line x1 = "514" y1 = "882" x2 = "446" y2 = "1052" style="stroke:rgb(255,0,0);stroke-width:2" />

	<line x1 = "446" y1 = "1052" x2 = "754" y2 = "1052" style="stroke:rgb(255,0,0);stroke-width:2" />

	<line x1 = "686" y1 = "882" x2 = "754" y2 = "1052" style="stroke:rgb(255,0,0);stroke-width:2" />

	<circle cx = "600" cy = "944" r = "2" stroke = "black" stroke-width = "3" />

	<line x1 = "552" y1 = "984" x2 = "648" y2 = "984" style="stroke:rgb(255,0,0);stroke-width:2" />

	<line x1 = "648" y1 = "984" x2 = "666" y2 = "1090" style="stroke:rgb(255,0,0);stroke-width:2" />

	<line x1 = "666" y1 = "1090" x2 = "534" y2 = "1090" style="stroke:rgb(255,0,0);stroke-width:2" />

	<line x1 = "552" y1 = "984" x2 = "534" y2 = "1090" style="stroke:rgb(255,0,0);stroke-width:2" />

	<circle cx = "600" cy = "1028" r = "2" stroke = "black" stroke-width = "3" />

	<line x1 = "648" y1 = "984" x2 = "686" y2 = "882" style="stroke:rgb(255,0,0);stroke-width:2" />

	<line x1 = "686" y1 = "882" x2 = "754" y2 = "1052" style="stroke:rgb(255,0,0);stroke-width:2" />

	<line x1 = "754" y1 = "1052" x2 = "666" y2 = "1090" style="stroke:rgb(255,0,0);stroke-width:2" />

	<line x1 = "648" y1 = "984" x2 = "666" y2 = "1090" style="stroke:rgb(255,0,0);stroke-width:2" />

	<circle cx = "674" cy = "1000" r = "2" stroke = "black" stroke-width = "3" />

	<line x1 = "552" y1 = "984" x2 = "514" y2 = "882" style="stroke:rgb(255,0,0);stroke-width:2" />

	<line x1 = "514" y1 = "882" x2 = "446" y2 = "1052" style="stroke:rgb(255,0,0);stroke-width:2" />

	<line x1 = "446" y1 = "1052" x2 = "534" y2 = "1090" style="stroke:rgb(255,0,0);stroke-width:2" />

	<line x1 = "552" y1 = "984" x2 = "534" y2 = "1090" style="stroke:rgb(255,0,0);stroke-width:2" />

	<circle cx = "526" cy = "1000" r = "2" stroke = "black" stroke-width = "3" />
</svg>
