<svg xmlns="http://www.w3.org/2000/svg" version="1.1" height="1200" width="1500">

	<line x1 = "236" y1 = "236" x2 = "632" y2 = "236" style="stroke:rgb(255,0,0);stroke-width:2" />

	<line x1 = "632" y1 = "236" x2 = "632" y2 = "632" style="stroke:rgb(255,0,0);stroke-width:2" />

	<line x1 = "632" y1 = "632" x2 = "236" y2 = "632" style="stroke:rgb(255,0,0);stroke-width:2" />

	<line x1 = "236" y1 = "236" x2 = "236" y2 = "632" style="stroke:rgb(255,0,0);stroke-width:2" />

	<circle cx = "432" cy = "432" r = "2" stroke = "black" stroke-width = "3" />

	<line x1 = "268" y1 = "464" x2 = "268" y2 = "268" style="stroke:rgb(255,0,0);stroke-width:2" />

	<line x1 = "268" y1 = "268" x2 = "464" y2 = "268" style="stroke:rgb(255,0,0);stroke-width:2" />

	<line x1 = "464" y1 = "268" x2 = "464" y2 = "464" style="stroke:rgb(255,0,0);stroke-width:2" />

	<line x1 = "268" y1 = "464" x2 = "464" y2 = "464" style="stroke:rgb(255,0,0);stroke-width:2" />

	<circle cx = "364" cy = "364" r = "2" stroke = "black" stroke-width = "3" />

	<line x1 = "632" y1 = "632" x2 = "236" y2 = "632" style="stroke:rgb(255,0,0);stroke-width:2" />

	<line x1 = "236" y1 = "632" x2 = "268" y2 = "464" style="stroke:rgb(255,0,0);stroke-width:2" />

	<line x1 = "268" y1 = "464" x2 = "464" y2 = "464" style="stroke:rgb(255,0,0);stroke-width:2" />

	<line x1 = "632" y1 = "632" x2 = "464" y2 = "464" style="stroke:rgb(255,0,0);stroke-width:2" />

	<circle cx = "388" cy = "520" r = "2" stroke = "black" stroke-width = "3" />

	<line x1 = "236" y1 = "236" x2 = "632" y2 = "236" style="stroke:rgb(255,0,0);stroke-width:2" />

	<line x1 = "632" y1 = "236" x2 = "464" y2 = "268" style="stroke:rgb(255,0,0);stroke-width:2" />

	<line x1 = "464" y1 = "268" x2 = "268" y2 = "268" style="stroke:rgb(255,0,0);stroke-width:2" />

	<line x1 = "236" y1 = "236" x2 = "268" y2 = "268" style="stroke:rgb(255,0,0);stroke-width:2" />

	<circle cx = "388" cy = "256" r = "2" stroke = "black" stroke-width = "3" />

	<line x1 = "632" y1 = "236" x2 = "632" y2 = "632" style="stroke:rgb(255,0,0);stroke-width:2" />

	<line x1 = "632" y1 = "632" x2 = "464" y2 = "464" style="stroke:rgb(255,0,0);stroke-width:2" />

	<line x1 = "464" y1 = "464" x2 = "464" y2 = "268" style="stroke:rgb(255,0,0);stroke-width:2" />

	<line x1 = "632" y1 = "236" x2 = "464" y2 = "268" style="stroke:rgb(255,0,0);stroke-width:2" />

	<circle cx = "520" cy = "388" r = "2" stroke = "black" stroke-width = "3" />

	<line x1 = "236" y1 = "236" x2 = "236" y2 = "632" style="stroke:rgb(255,0,0);stroke-width:2" />

	<line x1 = "236" y1 = "632" x2 = "268" y2 = "464" style="stroke:rgb(255,0,0);stroke-width:2" />

	<line x1 = "268" y1 = "464" x2 = "268" y2 = "268" style="stroke:rgb(255,0,0);stroke-width:2" />

	<line x1 = "236" y1 = "236" x2 = "268" y2 = "268" style="stroke:rgb(255,0,0);stroke-width:2" />

	<circle cx = "256" cy = "388" r = "2" stroke = "black" stroke-width = "3" />
</svg>
