<svg xmlns="http://www.w3.org/2000/svg" version="1.1" height="1000" width="1000">

	<line x1 = "611" y1 = "299" x2 = "689" y2 = "588" style="stroke:rgb(255,0,0);stroke-width:2" />

	<line x1 = "689" y1 = "588" x2 = "399" y2 = "666" style="stroke:rgb(255,0,0);stroke-width:2" />

	<line x1 = "399" y1 = "666" x2 = "321" y2 = "377" style="stroke:rgb(255,0,0);stroke-width:2" />

	<line x1 = "611" y1 = "299" x2 = "321" y2 = "377" style="stroke:rgb(255,0,0);stroke-width:2" />

	<circle cx = "505" cy = "482" r = "2" stroke = "black" stroke-width = "3" />
1
	<line x1 = "355" y1 = "331" x2 = "205" y2 = "328" style="stroke:rgb(255,0,0);stroke-width:2" />

	<line x1 = "205" y1 = "328" x2 = "208" y2 = "178" style="stroke:rgb(255,0,0);stroke-width:2" />

	<line x1 = "208" y1 = "178" x2 = "358" y2 = "181" style="stroke:rgb(255,0,0);stroke-width:2" />

	<line x1 = "355" y1 = "331" x2 = "358" y2 = "181" style="stroke:rgb(255,0,0);stroke-width:2" />

	<circle cx = "282" cy = "255" r = "2" stroke = "black" stroke-width = "3" />
1
	<line x1 = "548" y1 = "307" x2 = "404" y2 = "349" style="stroke:rgb(255,0,0);stroke-width:2" />

	<line x1 = "404" y1 = "349" x2 = "362" y2 = "205" style="stroke:rgb(255,0,0);stroke-width:2" />

	<line x1 = "362" y1 = "205" x2 = "506" y2 = "163" style="stroke:rgb(255,0,0);stroke-width:2" />

	<line x1 = "548" y1 = "307" x2 = "506" y2 = "163" style="stroke:rgb(255,0,0);stroke-width:2" />

	<circle cx = "455" cy = "256" r = "2" stroke = "black" stroke-width = "3" />
1
	<line x1 = "717" y1 = "719" x2 = "699" y2 = "570" style="stroke:rgb(255,0,0);stroke-width:2" />

	<line x1 = "699" y1 = "570" x2 = "848" y2 = "552" style="stroke:rgb(255,0,0);stroke-width:2" />

	<line x1 = "848" y1 = "552" x2 = "866" y2 = "701" style="stroke:rgb(255,0,0);stroke-width:2" />

	<line x1 = "717" y1 = "719" x2 = "866" y2 = "701" style="stroke:rgb(255,0,0);stroke-width:2" />

	<circle cx = "783" cy = "636" r = "2" stroke = "black" stroke-width = "3" />
1
	<line x1 = "551" y1 = "886" x2 = "401" y2 = "891" style="stroke:rgb(255,0,0);stroke-width:2" />

	<line x1 = "401" y1 = "891" x2 = "396" y2 = "741" style="stroke:rgb(255,0,0);stroke-width:2" />

	<line x1 = "396" y1 = "741" x2 = "546" y2 = "736" style="stroke:rgb(255,0,0);stroke-width:2" />

	<line x1 = "551" y1 = "886" x2 = "546" y2 = "736" style="stroke:rgb(255,0,0);stroke-width:2" />

	<circle cx = "474" cy = "814" r = "2" stroke = "black" stroke-width = "3" />
1
	<line x1 = "321" y1 = "862" x2 = "175" y2 = "829" style="stroke:rgb(255,0,0);stroke-width:2" />

	<line x1 = "175" y1 = "829" x2 = "208" y2 = "683" style="stroke:rgb(255,0,0);stroke-width:2" />

	<line x1 = "208" y1 = "683" x2 = "354" y2 = "716" style="stroke:rgb(255,0,0);stroke-width:2" />

	<line x1 = "321" y1 = "862" x2 = "354" y2 = "716" style="stroke:rgb(255,0,0);stroke-width:2" />

	<circle cx = "265" cy = "773" r = "2" stroke = "black" stroke-width = "3" />
1
	<line x1 = "763" y1 = "816" x2 = "647" y2 = "911" style="stroke:rgb(255,0,0);stroke-width:2" />

	<line x1 = "647" y1 = "911" x2 = "552" y2 = "795" style="stroke:rgb(255,0,0);stroke-width:2" />

	<line x1 = "552" y1 = "795" x2 = "668" y2 = "700" style="stroke:rgb(255,0,0);stroke-width:2" />

	<line x1 = "763" y1 = "816" x2 = "668" y2 = "700" style="stroke:rgb(255,0,0);stroke-width:2" />

	<circle cx = "658" cy = "806" r = "2" stroke = "black" stroke-width = "3" />
1
	<line x1 = "289" y1 = "677" x2 = "139" y2 = "682" style="stroke:rgb(255,0,0);stroke-width:2" />

	<line x1 = "139" y1 = "682" x2 = "134" y2 = "532" style="stroke:rgb(255,0,0);stroke-width:2" />

	<line x1 = "134" y1 = "532" x2 = "284" y2 = "527" style="stroke:rgb(255,0,0);stroke-width:2" />

	<line x1 = "289" y1 = "677" x2 = "284" y2 = "527" style="stroke:rgb(255,0,0);stroke-width:2" />

	<circle cx = "212" cy = "605" r = "2" stroke = "black" stroke-width = "3" />
1
	<line x1 = "2020" y1 = "2117" x2 = "1983" y2 = "1971" style="stroke:rgb(255,0,0);stroke-width:2" />

	<line x1 = "1983" y1 = "1971" x2 = "2129" y2 = "1934" style="stroke:rgb(255,0,0);stroke-width:2" />

	<line x1 = "2129" y1 = "1934" x2 = "2166" y2 = "2080" style="stroke:rgb(255,0,0);stroke-width:2" />

	<line x1 = "2020" y1 = "2117" x2 = "2166" y2 = "2080" style="stroke:rgb(255,0,0);stroke-width:2" />

	<circle cx = "2075" cy = "2026" r = "2" stroke = "black" stroke-width = "3" />
1
	<line x1 = "671" y1 = "1239" x2 = "714" y2 = "1329" style="stroke:rgb(255,0,0);stroke-width:2" />

	<line x1 = "714" y1 = "1329" x2 = "624" y2 = "1372" style="stroke:rgb(255,0,0);stroke-width:2" />

	<line x1 = "624" y1 = "1372" x2 = "581" y2 = "1282" style="stroke:rgb(255,0,0);stroke-width:2" />

	<line x1 = "671" y1 = "1239" x2 = "581" y2 = "1282" style="stroke:rgb(255,0,0);stroke-width:2" />

	<circle cx = "648" cy = "1306" r = "2" stroke = "black" stroke-width = "3" />
1
	<line x1 = "163" y1 = "450" x2 = "199" y2 = "357" style="stroke:rgb(255,0,0);stroke-width:2" />

	<line x1 = "199" y1 = "357" x2 = "292" y2 = "393" style="stroke:rgb(255,0,0);stroke-width:2" />

	<line x1 = "292" y1 = "393" x2 = "256" y2 = "486" style="stroke:rgb(255,0,0);stroke-width:2" />

	<line x1 = "163" y1 = "450" x2 = "256" y2 = "486" style="stroke:rgb(255,0,0);stroke-width:2" />

	<circle cx = "228" cy = "422" r = "2" stroke = "black" stroke-width = "3" />
1
	<line x1 = "954" y1 = "1496" x2 = "867" y2 = "1546" style="stroke:rgb(255,0,0);stroke-width:2" />

	<line x1 = "867" y1 = "1546" x2 = "817" y2 = "1459" style="stroke:rgb(255,0,0);stroke-width:2" />

	<line x1 = "817" y1 = "1459" x2 = "904" y2 = "1409" style="stroke:rgb(255,0,0);stroke-width:2" />

	<line x1 = "954" y1 = "1496" x2 = "904" y2 = "1409" style="stroke:rgb(255,0,0);stroke-width:2" />

	<circle cx = "886" cy = "1478" r = "2" stroke = "black" stroke-width = "3" />
1
	<line x1 = "886" y1 = "656" x2 = "981" y2 = "624" style="stroke:rgb(255,0,0);stroke-width:2" />

	<line x1 = "981" y1 = "624" x2 = "1013" y2 = "719" style="stroke:rgb(255,0,0);stroke-width:2" />

	<line x1 = "1013" y1 = "719" x2 = "918" y2 = "751" style="stroke:rgb(255,0,0);stroke-width:2" />

	<line x1 = "886" y1 = "656" x2 = "918" y2 = "751" style="stroke:rgb(255,0,0);stroke-width:2" />

	<circle cx = "950" cy = "688" r = "2" stroke = "black" stroke-width = "3" />
1
	<line x1 = "1049" y1 = "984" x2 = "1124" y2 = "918" style="stroke:rgb(255,0,0);stroke-width:2" />

	<line x1 = "1124" y1 = "918" x2 = "1190" y2 = "993" style="stroke:rgb(255,0,0);stroke-width:2" />

	<line x1 = "1190" y1 = "993" x2 = "1115" y2 = "1059" style="stroke:rgb(255,0,0);stroke-width:2" />

	<line x1 = "1049" y1 = "984" x2 = "1115" y2 = "1059" style="stroke:rgb(255,0,0);stroke-width:2" />

	<circle cx = "1120" cy = "989" r = "2" stroke = "black" stroke-width = "3" />
1
	<line x1 = "624" y1 = "227" x2 = "632" y2 = "276" style="stroke:rgb(255,0,0);stroke-width:2" />

	<line x1 = "632" y1 = "276" x2 = "583" y2 = "284" style="stroke:rgb(255,0,0);stroke-width:2" />

	<line x1 = "583" y1 = "284" x2 = "575" y2 = "235" style="stroke:rgb(255,0,0);stroke-width:2" />

	<line x1 = "624" y1 = "227" x2 = "575" y2 = "235" style="stroke:rgb(255,0,0);stroke-width:2" />

	<circle cx = "604" cy = "256" r = "2" stroke = "black" stroke-width = "3" />
1
	<line x1 = "550" y1 = "735" x2 = "524" y2 = "692" style="stroke:rgb(255,0,0);stroke-width:2" />

	<line x1 = "524" y1 = "692" x2 = "567" y2 = "666" style="stroke:rgb(255,0,0);stroke-width:2" />

	<line x1 = "567" y1 = "666" x2 = "593" y2 = "709" style="stroke:rgb(255,0,0);stroke-width:2" />

	<line x1 = "550" y1 = "735" x2 = "593" y2 = "709" style="stroke:rgb(255,0,0);stroke-width:2" />

	<circle cx = "559" cy = "701" r = "2" stroke = "black" stroke-width = "3" />
1
	<line x1 = "801" y1 = "488" x2 = "775" y2 = "531" style="stroke:rgb(255,0,0);stroke-width:2" />

	<line x1 = "775" y1 = "531" x2 = "732" y2 = "505" style="stroke:rgb(255,0,0);stroke-width:2" />

	<line x1 = "732" y1 = "505" x2 = "758" y2 = "462" style="stroke:rgb(255,0,0);stroke-width:2" />

	<line x1 = "801" y1 = "488" x2 = "758" y2 = "462" style="stroke:rgb(255,0,0);stroke-width:2" />

	<circle cx = "767" cy = "497" r = "2" stroke = "black" stroke-width = "3" />
1
	<line x1 = "1199" y1 = "555" x2 = "1189" y2 = "604" style="stroke:rgb(255,0,0);stroke-width:2" />

	<line x1 = "1189" y1 = "604" x2 = "1140" y2 = "594" style="stroke:rgb(255,0,0);stroke-width:2" />

	<line x1 = "1140" y1 = "594" x2 = "1150" y2 = "545" style="stroke:rgb(255,0,0);stroke-width:2" />

	<line x1 = "1199" y1 = "555" x2 = "1150" y2 = "545" style="stroke:rgb(255,0,0);stroke-width:2" />

	<circle cx = "1170" cy = "575" r = "2" stroke = "black" stroke-width = "3" />
1
	<line x1 = "1264" y1 = "1373" x2 = "1235" y2 = "1413" style="stroke:rgb(255,0,0);stroke-width:2" />

	<line x1 = "1235" y1 = "1413" x2 = "1195" y2 = "1384" style="stroke:rgb(255,0,0);stroke-width:2" />

	<line x1 = "1195" y1 = "1384" x2 = "1224" y2 = "1344" style="stroke:rgb(255,0,0);stroke-width:2" />

	<line x1 = "1264" y1 = "1373" x2 = "1224" y2 = "1344" style="stroke:rgb(255,0,0);stroke-width:2" />

	<circle cx = "1230" cy = "1379" r = "2" stroke = "black" stroke-width = "3" />
1
	<line x1 = "333" y1 = "473" x2 = "302" y2 = "511" style="stroke:rgb(255,0,0);stroke-width:2" />

	<line x1 = "302" y1 = "511" x2 = "263" y2 = "480" style="stroke:rgb(255,0,0);stroke-width:2" />

	<line x1 = "263" y1 = "480" x2 = "295" y2 = "441" style="stroke:rgb(255,0,0);stroke-width:2" />

	<line x1 = "333" y1 = "473" x2 = "295" y2 = "441" style="stroke:rgb(255,0,0);stroke-width:2" />

	<circle cx = "298" cy = "476" r = "2" stroke = "black" stroke-width = "3" />
1
	<line x1 = "846" y1 = "468" x2 = "887" y2 = "496" style="stroke:rgb(255,0,0);stroke-width:2" />

	<line x1 = "887" y1 = "496" x2 = "859" y2 = "537" style="stroke:rgb(255,0,0);stroke-width:2" />

	<line x1 = "859" y1 = "537" x2 = "818" y2 = "509" style="stroke:rgb(255,0,0);stroke-width:2" />

	<line x1 = "846" y1 = "468" x2 = "818" y2 = "509" style="stroke:rgb(255,0,0);stroke-width:2" />

	<circle cx = "853" cy = "503" r = "2" stroke = "black" stroke-width = "3" />
1
	<line x1 = "1162" y1 = "519" x2 = "1117" y2 = "541" style="stroke:rgb(255,0,0);stroke-width:2" />

	<line x1 = "1117" y1 = "541" x2 = "1095" y2 = "496" style="stroke:rgb(255,0,0);stroke-width:2" />

	<line x1 = "1095" y1 = "496" x2 = "1140" y2 = "474" style="stroke:rgb(255,0,0);stroke-width:2" />

	<line x1 = "1162" y1 = "519" x2 = "1140" y2 = "474" style="stroke:rgb(255,0,0);stroke-width:2" />

	<circle cx = "1129" cy = "508" r = "2" stroke = "black" stroke-width = "3" />
1
	<line x1 = "935" y1 = "1212" x2 = "936" y2 = "1262" style="stroke:rgb(255,0,0);stroke-width:2" />

	<line x1 = "936" y1 = "1262" x2 = "886" y2 = "1263" style="stroke:rgb(255,0,0);stroke-width:2" />

	<line x1 = "886" y1 = "1263" x2 = "885" y2 = "1213" style="stroke:rgb(255,0,0);stroke-width:2" />

	<line x1 = "935" y1 = "1212" x2 = "885" y2 = "1213" style="stroke:rgb(255,0,0);stroke-width:2" />

	<circle cx = "911" cy = "1238" r = "2" stroke = "black" stroke-width = "3" />
1
	<line x1 = "596" y1 = "900" x2 = "633" y2 = "933" style="stroke:rgb(255,0,0);stroke-width:2" />

	<line x1 = "633" y1 = "933" x2 = "601" y2 = "971" style="stroke:rgb(255,0,0);stroke-width:2" />

	<line x1 = "601" y1 = "971" x2 = "563" y2 = "938" style="stroke:rgb(255,0,0);stroke-width:2" />

	<line x1 = "596" y1 = "900" x2 = "563" y2 = "938" style="stroke:rgb(255,0,0);stroke-width:2" />

	<circle cx = "598" cy = "936" r = "2" stroke = "black" stroke-width = "3" />
1
	<line x1 = "646" y1 = "257" x2 = "695" y2 = "265" style="stroke:rgb(255,0,0);stroke-width:2" />

	<line x1 = "695" y1 = "265" x2 = "687" y2 = "314" style="stroke:rgb(255,0,0);stroke-width:2" />

	<line x1 = "687" y1 = "314" x2 = "638" y2 = "306" style="stroke:rgb(255,0,0);stroke-width:2" />

	<line x1 = "646" y1 = "257" x2 = "638" y2 = "306" style="stroke:rgb(255,0,0);stroke-width:2" />

	<circle cx = "667" cy = "286" r = "2" stroke = "black" stroke-width = "3" />
1
	<line x1 = "1056" y1 = "1486" x2 = "1054" y2 = "1437" style="stroke:rgb(255,0,0);stroke-width:2" />

	<line x1 = "1054" y1 = "1437" x2 = "1103" y2 = "1435" style="stroke:rgb(255,0,0);stroke-width:2" />

	<line x1 = "1103" y1 = "1435" x2 = "1105" y2 = "1484" style="stroke:rgb(255,0,0);stroke-width:2" />

	<line x1 = "1056" y1 = "1486" x2 = "1105" y2 = "1484" style="stroke:rgb(255,0,0);stroke-width:2" />

	<circle cx = "1080" cy = "1461" r = "2" stroke = "black" stroke-width = "3" />
1
	<line x1 = "365" y1 = "106" x2 = "402" y2 = "140" style="stroke:rgb(255,0,0);stroke-width:2" />

	<line x1 = "402" y1 = "140" x2 = "368" y2 = "177" style="stroke:rgb(255,0,0);stroke-width:2" />

	<line x1 = "368" y1 = "177" x2 = "331" y2 = "143" style="stroke:rgb(255,0,0);stroke-width:2" />

	<line x1 = "365" y1 = "106" x2 = "331" y2 = "143" style="stroke:rgb(255,0,0);stroke-width:2" />

	<circle cx = "367" cy = "142" r = "2" stroke = "black" stroke-width = "3" />
1
	<line x1 = "547" y1 = "200" x2 = "569" y2 = "155" style="stroke:rgb(255,0,0);stroke-width:2" />

	<line x1 = "569" y1 = "155" x2 = "614" y2 = "177" style="stroke:rgb(255,0,0);stroke-width:2" />

	<line x1 = "614" y1 = "177" x2 = "592" y2 = "222" style="stroke:rgb(255,0,0);stroke-width:2" />

	<line x1 = "547" y1 = "200" x2 = "592" y2 = "222" style="stroke:rgb(255,0,0);stroke-width:2" />

	<circle cx = "581" cy = "189" r = "2" stroke = "black" stroke-width = "3" />
1
	<line x1 = "690" y1 = "312" x2 = "730" y2 = "342" style="stroke:rgb(255,0,0);stroke-width:2" />

	<line x1 = "730" y1 = "342" x2 = "700" y2 = "382" style="stroke:rgb(255,0,0);stroke-width:2" />

	<line x1 = "700" y1 = "382" x2 = "660" y2 = "353" style="stroke:rgb(255,0,0);stroke-width:2" />

	<line x1 = "690" y1 = "312" x2 = "660" y2 = "353" style="stroke:rgb(255,0,0);stroke-width:2" />

	<circle cx = "695" cy = "347" r = "2" stroke = "black" stroke-width = "3" />
1
	<line x1 = "287" y1 = "330" x2 = "302" y2 = "356" style="stroke:rgb(255,0,0);stroke-width:2" />

	<line x1 = "302" y1 = "356" x2 = "276" y2 = "371" style="stroke:rgb(255,0,0);stroke-width:2" />

	<line x1 = "276" y1 = "371" x2 = "261" y2 = "345" style="stroke:rgb(255,0,0);stroke-width:2" />

	<line x1 = "287" y1 = "330" x2 = "261" y2 = "345" style="stroke:rgb(255,0,0);stroke-width:2" />

	<circle cx = "282" cy = "351" r = "2" stroke = "black" stroke-width = "3" />
1
	<line x1 = "324" y1 = "333" x2 = "345" y2 = "355" style="stroke:rgb(255,0,0);stroke-width:2" />

	<line x1 = "345" y1 = "355" x2 = "323" y2 = "376" style="stroke:rgb(255,0,0);stroke-width:2" />

	<line x1 = "323" y1 = "376" x2 = "302" y2 = "354" style="stroke:rgb(255,0,0);stroke-width:2" />

	<line x1 = "324" y1 = "333" x2 = "302" y2 = "354" style="stroke:rgb(255,0,0);stroke-width:2" />

	<circle cx = "324" cy = "355" r = "2" stroke = "black" stroke-width = "3" />
1
	<line x1 = "733" y1 = "414" x2 = "705" y2 = "405" style="stroke:rgb(255,0,0);stroke-width:2" />

	<line x1 = "705" y1 = "405" x2 = "714" y2 = "377" style="stroke:rgb(255,0,0);stroke-width:2" />

	<line x1 = "714" y1 = "377" x2 = "742" y2 = "386" style="stroke:rgb(255,0,0);stroke-width:2" />

	<line x1 = "733" y1 = "414" x2 = "742" y2 = "386" style="stroke:rgb(255,0,0);stroke-width:2" />

	<circle cx = "724" cy = "396" r = "2" stroke = "black" stroke-width = "3" />
1
	<line x1 = "1219" y1 = "623" x2 = "1239" y2 = "600" style="stroke:rgb(255,0,0);stroke-width:2" />

	<line x1 = "1239" y1 = "600" x2 = "1262" y2 = "620" style="stroke:rgb(255,0,0);stroke-width:2" />

	<line x1 = "1262" y1 = "620" x2 = "1242" y2 = "643" style="stroke:rgb(255,0,0);stroke-width:2" />

	<line x1 = "1219" y1 = "623" x2 = "1242" y2 = "643" style="stroke:rgb(255,0,0);stroke-width:2" />

	<circle cx = "1241" cy = "622" r = "2" stroke = "black" stroke-width = "3" />
1
	<line x1 = "646" y1 = "690" x2 = "657" y2 = "662" style="stroke:rgb(255,0,0);stroke-width:2" />

	<line x1 = "657" y1 = "662" x2 = "685" y2 = "673" style="stroke:rgb(255,0,0);stroke-width:2" />

	<line x1 = "685" y1 = "673" x2 = "674" y2 = "701" style="stroke:rgb(255,0,0);stroke-width:2" />

	<line x1 = "646" y1 = "690" x2 = "674" y2 = "701" style="stroke:rgb(255,0,0);stroke-width:2" />

	<circle cx = "666" cy = "682" r = "2" stroke = "black" stroke-width = "3" />
1
	<line x1 = "356" y1 = "573" x2 = "345" y2 = "601" style="stroke:rgb(255,0,0);stroke-width:2" />

	<line x1 = "345" y1 = "601" x2 = "317" y2 = "590" style="stroke:rgb(255,0,0);stroke-width:2" />

	<line x1 = "317" y1 = "590" x2 = "328" y2 = "562" style="stroke:rgb(255,0,0);stroke-width:2" />

	<line x1 = "356" y1 = "573" x2 = "328" y2 = "562" style="stroke:rgb(255,0,0);stroke-width:2" />

	<circle cx = "337" cy = "582" r = "2" stroke = "black" stroke-width = "3" />
1
	<line x1 = "1106" y1 = "1480" x2 = "1136" y2 = "1473" style="stroke:rgb(255,0,0);stroke-width:2" />

	<line x1 = "1136" y1 = "1473" x2 = "1143" y2 = "1503" style="stroke:rgb(255,0,0);stroke-width:2" />

	<line x1 = "1143" y1 = "1503" x2 = "1113" y2 = "1510" style="stroke:rgb(255,0,0);stroke-width:2" />

	<line x1 = "1106" y1 = "1480" x2 = "1113" y2 = "1510" style="stroke:rgb(255,0,0);stroke-width:2" />

	<circle cx = "1125" cy = "1492" r = "2" stroke = "black" stroke-width = "3" />
1
	<line x1 = "588" y1 = "684" x2 = "615" y2 = "672" style="stroke:rgb(255,0,0);stroke-width:2" />

	<line x1 = "615" y1 = "672" x2 = "627" y2 = "699" style="stroke:rgb(255,0,0);stroke-width:2" />

	<line x1 = "627" y1 = "699" x2 = "600" y2 = "711" style="stroke:rgb(255,0,0);stroke-width:2" />

	<line x1 = "588" y1 = "684" x2 = "600" y2 = "711" style="stroke:rgb(255,0,0);stroke-width:2" />

	<circle cx = "608" cy = "692" r = "2" stroke = "black" stroke-width = "3" />
1
	<line x1 = "206" y1 = "355" x2 = "176" y2 = "358" style="stroke:rgb(255,0,0);stroke-width:2" />

	<line x1 = "176" y1 = "358" x2 = "173" y2 = "328" style="stroke:rgb(255,0,0);stroke-width:2" />

	<line x1 = "173" y1 = "328" x2 = "203" y2 = "325" style="stroke:rgb(255,0,0);stroke-width:2" />

	<line x1 = "206" y1 = "355" x2 = "203" y2 = "325" style="stroke:rgb(255,0,0);stroke-width:2" />

	<circle cx = "190" cy = "342" r = "2" stroke = "black" stroke-width = "3" />
1
	<line x1 = "2211" y1 = "2941" x2 = "2231" y2 = "2918" style="stroke:rgb(255,0,0);stroke-width:2" />

	<line x1 = "2231" y1 = "2918" x2 = "2254" y2 = "2938" style="stroke:rgb(255,0,0);stroke-width:2" />

	<line x1 = "2254" y1 = "2938" x2 = "2234" y2 = "2961" style="stroke:rgb(255,0,0);stroke-width:2" />

	<line x1 = "2211" y1 = "2941" x2 = "2234" y2 = "2961" style="stroke:rgb(255,0,0);stroke-width:2" />

	<circle cx = "2233" cy = "2940" r = "2" stroke = "black" stroke-width = "3" />
1
	<line x1 = "544" y1 = "250" x2 = "564" y2 = "249" style="stroke:rgb(255,0,0);stroke-width:2" />

	<line x1 = "564" y1 = "249" x2 = "565" y2 = "269" style="stroke:rgb(255,0,0);stroke-width:2" />

	<line x1 = "565" y1 = "269" x2 = "545" y2 = "270" style="stroke:rgb(255,0,0);stroke-width:2" />

	<line x1 = "544" y1 = "250" x2 = "545" y2 = "270" style="stroke:rgb(255,0,0);stroke-width:2" />

	<circle cx = "555" cy = "260" r = "2" stroke = "black" stroke-width = "3" />
1
	<line x1 = "368" y1 = "318" x2 = "387" y2 = "324" style="stroke:rgb(255,0,0);stroke-width:2" />

	<line x1 = "387" y1 = "324" x2 = "381" y2 = "343" style="stroke:rgb(255,0,0);stroke-width:2" />

	<line x1 = "381" y1 = "343" x2 = "362" y2 = "337" style="stroke:rgb(255,0,0);stroke-width:2" />

	<line x1 = "368" y1 = "318" x2 = "362" y2 = "337" style="stroke:rgb(255,0,0);stroke-width:2" />

	<circle cx = "375" cy = "331" r = "2" stroke = "black" stroke-width = "3" />
1
	<line x1 = "285" y1 = "380" x2 = "300" y2 = "366" style="stroke:rgb(255,0,0);stroke-width:2" />

	<line x1 = "300" y1 = "366" x2 = "314" y2 = "381" style="stroke:rgb(255,0,0);stroke-width:2" />

	<line x1 = "314" y1 = "381" x2 = "299" y2 = "395" style="stroke:rgb(255,0,0);stroke-width:2" />

	<line x1 = "285" y1 = "380" x2 = "299" y2 = "395" style="stroke:rgb(255,0,0);stroke-width:2" />

	<circle cx = "300" cy = "381" r = "2" stroke = "black" stroke-width = "3" />
1
	<line x1 = "273" y1 = "488" x2 = "271" y2 = "508" style="stroke:rgb(255,0,0);stroke-width:2" />

	<line x1 = "271" y1 = "508" x2 = "251" y2 = "506" style="stroke:rgb(255,0,0);stroke-width:2" />

	<line x1 = "251" y1 = "506" x2 = "253" y2 = "486" style="stroke:rgb(255,0,0);stroke-width:2" />

	<line x1 = "273" y1 = "488" x2 = "253" y2 = "486" style="stroke:rgb(255,0,0);stroke-width:2" />

	<circle cx = "262" cy = "497" r = "2" stroke = "black" stroke-width = "3" />
1
	<line x1 = "1329" y1 = "1404" x2 = "1339" y2 = "1387" style="stroke:rgb(255,0,0);stroke-width:2" />

	<line x1 = "1339" y1 = "1387" x2 = "1356" y2 = "1397" style="stroke:rgb(255,0,0);stroke-width:2" />

	<line x1 = "1356" y1 = "1397" x2 = "1346" y2 = "1414" style="stroke:rgb(255,0,0);stroke-width:2" />

	<line x1 = "1329" y1 = "1404" x2 = "1346" y2 = "1414" style="stroke:rgb(255,0,0);stroke-width:2" />

	<circle cx = "1343" cy = "1401" r = "2" stroke = "black" stroke-width = "3" />
1
	<line x1 = "380" y1 = "171" x2 = "394" y2 = "186" style="stroke:rgb(255,0,0);stroke-width:2" />

	<line x1 = "394" y1 = "186" x2 = "379" y2 = "200" style="stroke:rgb(255,0,0);stroke-width:2" />

	<line x1 = "379" y1 = "200" x2 = "365" y2 = "185" style="stroke:rgb(255,0,0);stroke-width:2" />

	<line x1 = "380" y1 = "171" x2 = "365" y2 = "185" style="stroke:rgb(255,0,0);stroke-width:2" />

	<circle cx = "380" cy = "186" r = "2" stroke = "black" stroke-width = "3" />
1
	<line x1 = "941" y1 = "1129" x2 = "923" y2 = "1122" style="stroke:rgb(255,0,0);stroke-width:2" />

	<line x1 = "923" y1 = "1122" x2 = "930" y2 = "1104" style="stroke:rgb(255,0,0);stroke-width:2" />

	<line x1 = "930" y1 = "1104" x2 = "948" y2 = "1111" style="stroke:rgb(255,0,0);stroke-width:2" />

	<line x1 = "941" y1 = "1129" x2 = "948" y2 = "1111" style="stroke:rgb(255,0,0);stroke-width:2" />

	<circle cx = "936" cy = "1117" r = "2" stroke = "black" stroke-width = "3" />
1
	<line x1 = "560" y1 = "733" x2 = "580" y2 = "734" style="stroke:rgb(255,0,0);stroke-width:2" />

	<line x1 = "580" y1 = "734" x2 = "579" y2 = "754" style="stroke:rgb(255,0,0);stroke-width:2" />

	<line x1 = "579" y1 = "754" x2 = "559" y2 = "753" style="stroke:rgb(255,0,0);stroke-width:2" />

	<line x1 = "560" y1 = "733" x2 = "559" y2 = "753" style="stroke:rgb(255,0,0);stroke-width:2" />

	<circle cx = "570" cy = "744" r = "2" stroke = "black" stroke-width = "3" />
1
	<line x1 = "708" y1 = "695" x2 = "698" y2 = "712" style="stroke:rgb(255,0,0);stroke-width:2" />

	<line x1 = "698" y1 = "712" x2 = "681" y2 = "702" style="stroke:rgb(255,0,0);stroke-width:2" />

	<line x1 = "681" y1 = "702" x2 = "691" y2 = "685" style="stroke:rgb(255,0,0);stroke-width:2" />

	<line x1 = "708" y1 = "695" x2 = "691" y2 = "685" style="stroke:rgb(255,0,0);stroke-width:2" />

	<circle cx = "695" cy = "699" r = "2" stroke = "black" stroke-width = "3" />
1
	<line x1 = "1361" y1 = "1394" x2 = "1378" y2 = "1404" style="stroke:rgb(255,0,0);stroke-width:2" />

	<line x1 = "1378" y1 = "1404" x2 = "1368" y2 = "1421" style="stroke:rgb(255,0,0);stroke-width:2" />

	<line x1 = "1368" y1 = "1421" x2 = "1351" y2 = "1411" style="stroke:rgb(255,0,0);stroke-width:2" />

	<line x1 = "1361" y1 = "1394" x2 = "1351" y2 = "1411" style="stroke:rgb(255,0,0);stroke-width:2" />

	<circle cx = "1365" cy = "1408" r = "2" stroke = "black" stroke-width = "3" />
1
	<line x1 = "1205" y1 = "1420" x2 = "1190" y2 = "1434" style="stroke:rgb(255,0,0);stroke-width:2" />

	<line x1 = "1190" y1 = "1434" x2 = "1176" y2 = "1419" style="stroke:rgb(255,0,0);stroke-width:2" />

	<line x1 = "1176" y1 = "1419" x2 = "1191" y2 = "1405" style="stroke:rgb(255,0,0);stroke-width:2" />

	<line x1 = "1205" y1 = "1420" x2 = "1191" y2 = "1405" style="stroke:rgb(255,0,0);stroke-width:2" />

	<circle cx = "1191" cy = "1420" r = "2" stroke = "black" stroke-width = "3" />
1
	<line x1 = "303" y1 = "536" x2 = "285" y2 = "527" style="stroke:rgb(255,0,0);stroke-width:2" />

	<line x1 = "285" y1 = "527" x2 = "294" y2 = "509" style="stroke:rgb(255,0,0);stroke-width:2" />

	<line x1 = "294" y1 = "509" x2 = "312" y2 = "518" style="stroke:rgb(255,0,0);stroke-width:2" />

	<line x1 = "303" y1 = "536" x2 = "312" y2 = "518" style="stroke:rgb(255,0,0);stroke-width:2" />

	<circle cx = "299" cy = "523" r = "2" stroke = "black" stroke-width = "3" />
1
	<line x1 = "358" y1 = "306" x2 = "366" y2 = "287" style="stroke:rgb(255,0,0);stroke-width:2" />

	<line x1 = "366" y1 = "287" x2 = "385" y2 = "295" style="stroke:rgb(255,0,0);stroke-width:2" />

	<line x1 = "385" y1 = "295" x2 = "377" y2 = "314" style="stroke:rgb(255,0,0);stroke-width:2" />

	<line x1 = "358" y1 = "306" x2 = "377" y2 = "314" style="stroke:rgb(255,0,0);stroke-width:2" />

	<circle cx = "372" cy = "301" r = "2" stroke = "black" stroke-width = "3" />
1
	<line x1 = "1182" y1 = "926" x2 = "1200" y2 = "935" style="stroke:rgb(255,0,0);stroke-width:2" />

	<line x1 = "1200" y1 = "935" x2 = "1191" y2 = "953" style="stroke:rgb(255,0,0);stroke-width:2" />

	<line x1 = "1191" y1 = "953" x2 = "1173" y2 = "944" style="stroke:rgb(255,0,0);stroke-width:2" />

	<line x1 = "1182" y1 = "926" x2 = "1173" y2 = "944" style="stroke:rgb(255,0,0);stroke-width:2" />

	<circle cx = "1187" cy = "940" r = "2" stroke = "black" stroke-width = "3" />
1
	<line x1 = "879" y1 = "655" x2 = "865" y2 = "640" style="stroke:rgb(255,0,0);stroke-width:2" />

	<line x1 = "865" y1 = "640" x2 = "880" y2 = "626" style="stroke:rgb(255,0,0);stroke-width:2" />

	<line x1 = "880" y1 = "626" x2 = "894" y2 = "641" style="stroke:rgb(255,0,0);stroke-width:2" />

	<line x1 = "879" y1 = "655" x2 = "894" y2 = "641" style="stroke:rgb(255,0,0);stroke-width:2" />

	<circle cx = "880" cy = "641" r = "2" stroke = "black" stroke-width = "3" />
1
	<line x1 = "535" y1 = "968" x2 = "515" y2 = "963" style="stroke:rgb(255,0,0);stroke-width:2" />

	<line x1 = "515" y1 = "963" x2 = "520" y2 = "943" style="stroke:rgb(255,0,0);stroke-width:2" />

	<line x1 = "520" y1 = "943" x2 = "540" y2 = "948" style="stroke:rgb(255,0,0);stroke-width:2" />

	<line x1 = "535" y1 = "968" x2 = "540" y2 = "948" style="stroke:rgb(255,0,0);stroke-width:2" />

	<circle cx = "528" cy = "956" r = "2" stroke = "black" stroke-width = "3" />
1
	<line x1 = "722" y1 = "483" x2 = "717" y2 = "463" style="stroke:rgb(255,0,0);stroke-width:2" />

	<line x1 = "717" y1 = "463" x2 = "737" y2 = "458" style="stroke:rgb(255,0,0);stroke-width:2" />

	<line x1 = "737" y1 = "458" x2 = "742" y2 = "478" style="stroke:rgb(255,0,0);stroke-width:2" />

	<line x1 = "722" y1 = "483" x2 = "742" y2 = "478" style="stroke:rgb(255,0,0);stroke-width:2" />

	<circle cx = "730" cy = "471" r = "2" stroke = "black" stroke-width = "3" />
1
	<line x1 = "448" y1 = "687" x2 = "434" y2 = "702" style="stroke:rgb(255,0,0);stroke-width:2" />

	<line x1 = "434" y1 = "702" x2 = "419" y2 = "688" style="stroke:rgb(255,0,0);stroke-width:2" />

	<line x1 = "419" y1 = "688" x2 = "433" y2 = "673" style="stroke:rgb(255,0,0);stroke-width:2" />

	<line x1 = "448" y1 = "687" x2 = "433" y2 = "673" style="stroke:rgb(255,0,0);stroke-width:2" />

	<circle cx = "434" cy = "688" r = "2" stroke = "black" stroke-width = "3" />
1
	<line x1 = "222" y1 = "335" x2 = "237" y2 = "349" style="stroke:rgb(255,0,0);stroke-width:2" />

	<line x1 = "237" y1 = "349" x2 = "223" y2 = "364" style="stroke:rgb(255,0,0);stroke-width:2" />

	<line x1 = "223" y1 = "364" x2 = "208" y2 = "350" style="stroke:rgb(255,0,0);stroke-width:2" />

	<line x1 = "222" y1 = "335" x2 = "208" y2 = "350" style="stroke:rgb(255,0,0);stroke-width:2" />

	<circle cx = "223" cy = "350" r = "2" stroke = "black" stroke-width = "3" />
1
	<line x1 = "556" y1 = "981" x2 = "549" y2 = "999" style="stroke:rgb(255,0,0);stroke-width:2" />

	<line x1 = "549" y1 = "999" x2 = "531" y2 = "992" style="stroke:rgb(255,0,0);stroke-width:2" />

	<line x1 = "531" y1 = "992" x2 = "538" y2 = "974" style="stroke:rgb(255,0,0);stroke-width:2" />

	<line x1 = "556" y1 = "981" x2 = "538" y2 = "974" style="stroke:rgb(255,0,0);stroke-width:2" />

	<circle cx = "544" cy = "987" r = "2" stroke = "black" stroke-width = "3" />
1</svg>
