<svg xmlns="http://www.w3.org/2000/svg" version="1.1" height="1000" width="1000">

	<line x1 = "351" y1 = "104" x2 = "444" y2 = "389" style="stroke:rgb(255,0,0);stroke-width:2" />

	<line x1 = "444" y1 = "389" x2 = "159" y2 = "482" style="stroke:rgb(255,0,0);stroke-width:2" />

	<line x1 = "159" y1 = "482" x2 = "66" y2 = "197" style="stroke:rgb(255,0,0);stroke-width:2" />

	<line x1 = "351" y1 = "104" x2 = "66" y2 = "197" style="stroke:rgb(255,0,0);stroke-width:2" />

	<circle cx = "255" cy = "293" r = "2" stroke = "black" stroke-width = "3" />
1
	<line x1 = "312" y1 = "712" x2 = "203" y2 = "608" style="stroke:rgb(255,0,0);stroke-width:2" />

	<line x1 = "203" y1 = "608" x2 = "307" y2 = "499" style="stroke:rgb(255,0,0);stroke-width:2" />

	<line x1 = "307" y1 = "499" x2 = "416" y2 = "603" style="stroke:rgb(255,0,0);stroke-width:2" />

	<line x1 = "312" y1 = "712" x2 = "416" y2 = "603" style="stroke:rgb(255,0,0);stroke-width:2" />

	<circle cx = "310" cy = "606" r = "2" stroke = "black" stroke-width = "3" />
1
	<line x1 = "631" y1 = "180" x2 = "664" y2 = "326" style="stroke:rgb(255,0,0);stroke-width:2" />

	<line x1 = "664" y1 = "326" x2 = "518" y2 = "359" style="stroke:rgb(255,0,0);stroke-width:2" />

	<line x1 = "518" y1 = "359" x2 = "484" y2 = "213" style="stroke:rgb(255,0,0);stroke-width:2" />

	<line x1 = "631" y1 = "180" x2 = "484" y2 = "213" style="stroke:rgb(255,0,0);stroke-width:2" />

	<circle cx = "574" cy = "270" r = "2" stroke = "black" stroke-width = "3" />
1
	<line x1 = "425" y1 = "563" x2 = "430" y2 = "413" style="stroke:rgb(255,0,0);stroke-width:2" />

	<line x1 = "430" y1 = "413" x2 = "580" y2 = "418" style="stroke:rgb(255,0,0);stroke-width:2" />

	<line x1 = "580" y1 = "418" x2 = "575" y2 = "568" style="stroke:rgb(255,0,0);stroke-width:2" />

	<line x1 = "425" y1 = "563" x2 = "575" y2 = "568" style="stroke:rgb(255,0,0);stroke-width:2" />

	<circle cx = "503" cy = "491" r = "2" stroke = "black" stroke-width = "3" />
1
	<line x1 = "1402" y1 = "1058" x2 = "1257" y2 = "1022" style="stroke:rgb(255,0,0);stroke-width:2" />

	<line x1 = "1257" y1 = "1022" x2 = "1293" y2 = "877" style="stroke:rgb(255,0,0);stroke-width:2" />

	<line x1 = "1293" y1 = "877" x2 = "1438" y2 = "913" style="stroke:rgb(255,0,0);stroke-width:2" />

	<line x1 = "1402" y1 = "1058" x2 = "1438" y2 = "913" style="stroke:rgb(255,0,0);stroke-width:2" />

	<circle cx = "1348" cy = "968" r = "2" stroke = "black" stroke-width = "3" />
1
	<line x1 = "1638" y1 = "1130" x2 = "1501" y2 = "1192" style="stroke:rgb(255,0,0);stroke-width:2" />

	<line x1 = "1501" y1 = "1192" x2 = "1439" y2 = "1055" style="stroke:rgb(255,0,0);stroke-width:2" />

	<line x1 = "1439" y1 = "1055" x2 = "1576" y2 = "993" style="stroke:rgb(255,0,0);stroke-width:2" />

	<line x1 = "1638" y1 = "1130" x2 = "1576" y2 = "993" style="stroke:rgb(255,0,0);stroke-width:2" />

	<circle cx = "1539" cy = "1093" r = "2" stroke = "black" stroke-width = "3" />
1
	<line x1 = "25" y1 = "549" x2 = "175" y2 = "552" style="stroke:rgb(255,0,0);stroke-width:2" />

	<line x1 = "175" y1 = "552" x2 = "172" y2 = "702" style="stroke:rgb(255,0,0);stroke-width:2" />

	<line x1 = "172" y1 = "702" x2 = "22" y2 = "699" style="stroke:rgb(255,0,0);stroke-width:2" />

	<line x1 = "25" y1 = "549" x2 = "22" y2 = "699" style="stroke:rgb(255,0,0);stroke-width:2" />

	<circle cx = "99" cy = "626" r = "2" stroke = "black" stroke-width = "3" />
1
	<line x1 = "771" y1 = "871" x2 = "814" y2 = "727" style="stroke:rgb(255,0,0);stroke-width:2" />

	<line x1 = "814" y1 = "727" x2 = "958" y2 = "770" style="stroke:rgb(255,0,0);stroke-width:2" />

	<line x1 = "958" y1 = "770" x2 = "915" y2 = "914" style="stroke:rgb(255,0,0);stroke-width:2" />

	<line x1 = "771" y1 = "871" x2 = "915" y2 = "914" style="stroke:rgb(255,0,0);stroke-width:2" />

	<circle cx = "865" cy = "821" r = "2" stroke = "black" stroke-width = "3" />
1
	<line x1 = "657" y1 = "1059" x2 = "628" y2 = "911" style="stroke:rgb(255,0,0);stroke-width:2" />

	<line x1 = "628" y1 = "911" x2 = "776" y2 = "882" style="stroke:rgb(255,0,0);stroke-width:2" />

	<line x1 = "776" y1 = "882" x2 = "805" y2 = "1030" style="stroke:rgb(255,0,0);stroke-width:2" />

	<line x1 = "657" y1 = "1059" x2 = "805" y2 = "1030" style="stroke:rgb(255,0,0);stroke-width:2" />

	<circle cx = "717" cy = "971" r = "2" stroke = "black" stroke-width = "3" />
1
	<line x1 = "364" y1 = "1040" x2 = "462" y2 = "1061" style="stroke:rgb(255,0,0);stroke-width:2" />

	<line x1 = "462" y1 = "1061" x2 = "441" y2 = "1159" style="stroke:rgb(255,0,0);stroke-width:2" />

	<line x1 = "441" y1 = "1159" x2 = "343" y2 = "1138" style="stroke:rgb(255,0,0);stroke-width:2" />

	<line x1 = "364" y1 = "1040" x2 = "343" y2 = "1138" style="stroke:rgb(255,0,0);stroke-width:2" />

	<circle cx = "403" cy = "1100" r = "2" stroke = "black" stroke-width = "3" />
1
	<line x1 = "549" y1 = "192" x2 = "449" y2 = "199" style="stroke:rgb(255,0,0);stroke-width:2" />

	<line x1 = "449" y1 = "199" x2 = "442" y2 = "99" style="stroke:rgb(255,0,0);stroke-width:2" />

	<line x1 = "442" y1 = "99" x2 = "542" y2 = "92" style="stroke:rgb(255,0,0);stroke-width:2" />

	<line x1 = "549" y1 = "192" x2 = "542" y2 = "92" style="stroke:rgb(255,0,0);stroke-width:2" />

	<circle cx = "496" cy = "146" r = "2" stroke = "black" stroke-width = "3" />
1
	<line x1 = "1055" y1 = "815" x2 = "966" y2 = "769" style="stroke:rgb(255,0,0);stroke-width:2" />

	<line x1 = "966" y1 = "769" x2 = "1012" y2 = "680" style="stroke:rgb(255,0,0);stroke-width:2" />

	<line x1 = "1012" y1 = "680" x2 = "1101" y2 = "726" style="stroke:rgb(255,0,0);stroke-width:2" />

	<line x1 = "1055" y1 = "815" x2 = "1101" y2 = "726" style="stroke:rgb(255,0,0);stroke-width:2" />

	<circle cx = "1034" cy = "748" r = "2" stroke = "black" stroke-width = "3" />
1
	<line x1 = "828" y1 = "1042" x2 = "833" y2 = "942" style="stroke:rgb(255,0,0);stroke-width:2" />

	<line x1 = "833" y1 = "942" x2 = "933" y2 = "947" style="stroke:rgb(255,0,0);stroke-width:2" />

	<line x1 = "933" y1 = "947" x2 = "928" y2 = "1047" style="stroke:rgb(255,0,0);stroke-width:2" />

	<line x1 = "828" y1 = "1042" x2 = "928" y2 = "1047" style="stroke:rgb(255,0,0);stroke-width:2" />

	<circle cx = "881" cy = "995" r = "2" stroke = "black" stroke-width = "3" />
1
	<line x1 = "668" y1 = "853" x2 = "626" y2 = "762" style="stroke:rgb(255,0,0);stroke-width:2" />

	<line x1 = "626" y1 = "762" x2 = "717" y2 = "720" style="stroke:rgb(255,0,0);stroke-width:2" />

	<line x1 = "717" y1 = "720" x2 = "759" y2 = "811" style="stroke:rgb(255,0,0);stroke-width:2" />

	<line x1 = "668" y1 = "853" x2 = "759" y2 = "811" style="stroke:rgb(255,0,0);stroke-width:2" />

	<circle cx = "693" cy = "787" r = "2" stroke = "black" stroke-width = "3" />
1
	<line x1 = "513" y1 = "697" x2 = "508" y2 = "747" style="stroke:rgb(255,0,0);stroke-width:2" />

	<line x1 = "508" y1 = "747" x2 = "458" y2 = "743" style="stroke:rgb(255,0,0);stroke-width:2" />

	<line x1 = "458" y1 = "743" x2 = "463" y2 = "693" style="stroke:rgb(255,0,0);stroke-width:2" />

	<line x1 = "513" y1 = "697" x2 = "463" y2 = "693" style="stroke:rgb(255,0,0);stroke-width:2" />

	<circle cx = "486" cy = "720" r = "2" stroke = "black" stroke-width = "3" />
1
	<line x1 = "455" y1 = "327" x2 = "505" y2 = "330" style="stroke:rgb(255,0,0);stroke-width:2" />

	<line x1 = "505" y1 = "330" x2 = "502" y2 = "380" style="stroke:rgb(255,0,0);stroke-width:2" />

	<line x1 = "502" y1 = "380" x2 = "452" y2 = "377" style="stroke:rgb(255,0,0);stroke-width:2" />

	<line x1 = "455" y1 = "327" x2 = "452" y2 = "377" style="stroke:rgb(255,0,0);stroke-width:2" />

	<circle cx = "479" cy = "354" r = "2" stroke = "black" stroke-width = "3" />
1
	<line x1 = "176" y1 = "546" x2 = "208" y2 = "507" style="stroke:rgb(255,0,0);stroke-width:2" />

	<line x1 = "208" y1 = "507" x2 = "247" y2 = "539" style="stroke:rgb(255,0,0);stroke-width:2" />

	<line x1 = "247" y1 = "539" x2 = "215" y2 = "578" style="stroke:rgb(255,0,0);stroke-width:2" />

	<line x1 = "176" y1 = "546" x2 = "215" y2 = "578" style="stroke:rgb(255,0,0);stroke-width:2" />

	<circle cx = "212" cy = "543" r = "2" stroke = "black" stroke-width = "3" />
1
	<line x1 = "464" y1 = "1058" x2 = "475" y2 = "1010" style="stroke:rgb(255,0,0);stroke-width:2" />

	<line x1 = "475" y1 = "1010" x2 = "523" y2 = "1021" style="stroke:rgb(255,0,0);stroke-width:2" />

	<line x1 = "523" y1 = "1021" x2 = "512" y2 = "1069" style="stroke:rgb(255,0,0);stroke-width:2" />

	<line x1 = "464" y1 = "1058" x2 = "512" y2 = "1069" style="stroke:rgb(255,0,0);stroke-width:2" />

	<circle cx = "494" cy = "1040" r = "2" stroke = "black" stroke-width = "3" />
1
	<line x1 = "934" y1 = "734" x2 = "898" y2 = "699" style="stroke:rgb(255,0,0);stroke-width:2" />

	<line x1 = "898" y1 = "699" x2 = "933" y2 = "663" style="stroke:rgb(255,0,0);stroke-width:2" />

	<line x1 = "933" y1 = "663" x2 = "969" y2 = "698" style="stroke:rgb(255,0,0);stroke-width:2" />

	<line x1 = "934" y1 = "734" x2 = "969" y2 = "698" style="stroke:rgb(255,0,0);stroke-width:2" />

	<circle cx = "934" cy = "699" r = "2" stroke = "black" stroke-width = "3" />
1
	<line x1 = "470" y1 = "574" x2 = "478" y2 = "623" style="stroke:rgb(255,0,0);stroke-width:2" />

	<line x1 = "478" y1 = "623" x2 = "429" y2 = "631" style="stroke:rgb(255,0,0);stroke-width:2" />

	<line x1 = "429" y1 = "631" x2 = "421" y2 = "582" style="stroke:rgb(255,0,0);stroke-width:2" />

	<line x1 = "470" y1 = "574" x2 = "421" y2 = "582" style="stroke:rgb(255,0,0);stroke-width:2" />

	<circle cx = "450" cy = "603" r = "2" stroke = "black" stroke-width = "3" />
1
	<line x1 = "956" y1 = "648" x2 = "1001" y2 = "626" style="stroke:rgb(255,0,0);stroke-width:2" />

	<line x1 = "1001" y1 = "626" x2 = "1023" y2 = "671" style="stroke:rgb(255,0,0);stroke-width:2" />

	<line x1 = "1023" y1 = "671" x2 = "978" y2 = "693" style="stroke:rgb(255,0,0);stroke-width:2" />

	<line x1 = "956" y1 = "648" x2 = "978" y2 = "693" style="stroke:rgb(255,0,0);stroke-width:2" />

	<circle cx = "990" cy = "660" r = "2" stroke = "black" stroke-width = "3" />
1
	<line x1 = "359" y1 = "505" x2 = "375" y2 = "458" style="stroke:rgb(255,0,0);stroke-width:2" />

	<line x1 = "375" y1 = "458" x2 = "422" y2 = "474" style="stroke:rgb(255,0,0);stroke-width:2" />

	<line x1 = "422" y1 = "474" x2 = "406" y2 = "521" style="stroke:rgb(255,0,0);stroke-width:2" />

	<line x1 = "359" y1 = "505" x2 = "406" y2 = "521" style="stroke:rgb(255,0,0);stroke-width:2" />

	<circle cx = "391" cy = "490" r = "2" stroke = "black" stroke-width = "3" />
1
	<line x1 = "362" y1 = "469" x2 = "323" y2 = "501" style="stroke:rgb(255,0,0);stroke-width:2" />

	<line x1 = "323" y1 = "501" x2 = "291" y2 = "462" style="stroke:rgb(255,0,0);stroke-width:2" />

	<line x1 = "291" y1 = "462" x2 = "330" y2 = "430" style="stroke:rgb(255,0,0);stroke-width:2" />

	<line x1 = "362" y1 = "469" x2 = "330" y2 = "430" style="stroke:rgb(255,0,0);stroke-width:2" />

	<circle cx = "327" cy = "466" r = "2" stroke = "black" stroke-width = "3" />
1
	<line x1 = "283" y1 = "870" x2 = "333" y2 = "872" style="stroke:rgb(255,0,0);stroke-width:2" />

	<line x1 = "333" y1 = "872" x2 = "331" y2 = "922" style="stroke:rgb(255,0,0);stroke-width:2" />

	<line x1 = "331" y1 = "922" x2 = "281" y2 = "920" style="stroke:rgb(255,0,0);stroke-width:2" />

	<line x1 = "283" y1 = "870" x2 = "281" y2 = "920" style="stroke:rgb(255,0,0);stroke-width:2" />

	<circle cx = "307" cy = "896" r = "2" stroke = "black" stroke-width = "3" />
1
	<line x1 = "1664" y1 = "1824" x2 = "1709" y2 = "1844" style="stroke:rgb(255,0,0);stroke-width:2" />

	<line x1 = "1709" y1 = "1844" x2 = "1689" y2 = "1889" style="stroke:rgb(255,0,0);stroke-width:2" />

	<line x1 = "1689" y1 = "1889" x2 = "1644" y2 = "1869" style="stroke:rgb(255,0,0);stroke-width:2" />

	<line x1 = "1664" y1 = "1824" x2 = "1644" y2 = "1869" style="stroke:rgb(255,0,0);stroke-width:2" />

	<circle cx = "1677" cy = "1857" r = "2" stroke = "black" stroke-width = "3" />
1
	<line x1 = "615" y1 = "366" x2 = "644" y2 = "406" style="stroke:rgb(255,0,0);stroke-width:2" />

	<line x1 = "644" y1 = "406" x2 = "604" y2 = "435" style="stroke:rgb(255,0,0);stroke-width:2" />

	<line x1 = "604" y1 = "435" x2 = "575" y2 = "395" style="stroke:rgb(255,0,0);stroke-width:2" />

	<line x1 = "615" y1 = "366" x2 = "575" y2 = "395" style="stroke:rgb(255,0,0);stroke-width:2" />

	<circle cx = "610" cy = "401" r = "2" stroke = "black" stroke-width = "3" />
1
	<line x1 = "625" y1 = "175" x2 = "598" y2 = "133" style="stroke:rgb(255,0,0);stroke-width:2" />

	<line x1 = "598" y1 = "133" x2 = "640" y2 = "106" style="stroke:rgb(255,0,0);stroke-width:2" />

	<line x1 = "640" y1 = "106" x2 = "667" y2 = "148" style="stroke:rgb(255,0,0);stroke-width:2" />

	<line x1 = "625" y1 = "175" x2 = "667" y2 = "148" style="stroke:rgb(255,0,0);stroke-width:2" />

	<circle cx = "633" cy = "141" r = "2" stroke = "black" stroke-width = "3" />
1
	<line x1 = "544" y1 = "986" x2 = "503" y2 = "1014" style="stroke:rgb(255,0,0);stroke-width:2" />

	<line x1 = "503" y1 = "1014" x2 = "475" y2 = "973" style="stroke:rgb(255,0,0);stroke-width:2" />

	<line x1 = "475" y1 = "973" x2 = "516" y2 = "945" style="stroke:rgb(255,0,0);stroke-width:2" />

	<line x1 = "544" y1 = "986" x2 = "516" y2 = "945" style="stroke:rgb(255,0,0);stroke-width:2" />

	<circle cx = "510" cy = "980" r = "2" stroke = "black" stroke-width = "3" />
1
	<line x1 = "612" y1 = "1006" x2 = "566" y2 = "1027" style="stroke:rgb(255,0,0);stroke-width:2" />

	<line x1 = "566" y1 = "1027" x2 = "545" y2 = "981" style="stroke:rgb(255,0,0);stroke-width:2" />

	<line x1 = "545" y1 = "981" x2 = "591" y2 = "960" style="stroke:rgb(255,0,0);stroke-width:2" />

	<line x1 = "612" y1 = "1006" x2 = "591" y2 = "960" style="stroke:rgb(255,0,0);stroke-width:2" />

	<circle cx = "579" cy = "994" r = "2" stroke = "black" stroke-width = "3" />
1
	<line x1 = "1027" y1 = "646" x2 = "1055" y2 = "637" style="stroke:rgb(255,0,0);stroke-width:2" />

	<line x1 = "1055" y1 = "637" x2 = "1064" y2 = "665" style="stroke:rgb(255,0,0);stroke-width:2" />

	<line x1 = "1064" y1 = "665" x2 = "1036" y2 = "674" style="stroke:rgb(255,0,0);stroke-width:2" />

	<line x1 = "1027" y1 = "646" x2 = "1036" y2 = "674" style="stroke:rgb(255,0,0);stroke-width:2" />

	<circle cx = "1046" cy = "656" r = "2" stroke = "black" stroke-width = "3" />
1
	<line x1 = "745" y1 = "884" x2 = "724" y2 = "862" style="stroke:rgb(255,0,0);stroke-width:2" />

	<line x1 = "724" y1 = "862" x2 = "746" y2 = "841" style="stroke:rgb(255,0,0);stroke-width:2" />

	<line x1 = "746" y1 = "841" x2 = "767" y2 = "863" style="stroke:rgb(255,0,0);stroke-width:2" />

	<line x1 = "745" y1 = "884" x2 = "767" y2 = "863" style="stroke:rgb(255,0,0);stroke-width:2" />

	<circle cx = "746" cy = "863" r = "2" stroke = "black" stroke-width = "3" />
1
	<line x1 = "403" y1 = "198" x2 = "389" y2 = "171" style="stroke:rgb(255,0,0);stroke-width:2" />

	<line x1 = "389" y1 = "171" x2 = "416" y2 = "157" style="stroke:rgb(255,0,0);stroke-width:2" />

	<line x1 = "416" y1 = "157" x2 = "430" y2 = "184" style="stroke:rgb(255,0,0);stroke-width:2" />

	<line x1 = "403" y1 = "198" x2 = "430" y2 = "184" style="stroke:rgb(255,0,0);stroke-width:2" />

	<circle cx = "410" cy = "178" r = "2" stroke = "black" stroke-width = "3" />
1
	<line x1 = "603" y1 = "926" x2 = "629" y2 = "941" style="stroke:rgb(255,0,0);stroke-width:2" />

	<line x1 = "629" y1 = "941" x2 = "614" y2 = "967" style="stroke:rgb(255,0,0);stroke-width:2" />

	<line x1 = "614" y1 = "967" x2 = "588" y2 = "952" style="stroke:rgb(255,0,0);stroke-width:2" />

	<line x1 = "603" y1 = "926" x2 = "588" y2 = "952" style="stroke:rgb(255,0,0);stroke-width:2" />

	<circle cx = "609" cy = "947" r = "2" stroke = "black" stroke-width = "3" />
1
	<line x1 = "1456" y1 = "1863" x2 = "1480" y2 = "1882" style="stroke:rgb(255,0,0);stroke-width:2" />

	<line x1 = "1480" y1 = "1882" x2 = "1461" y2 = "1906" style="stroke:rgb(255,0,0);stroke-width:2" />

	<line x1 = "1461" y1 = "1906" x2 = "1437" y2 = "1887" style="stroke:rgb(255,0,0);stroke-width:2" />

	<line x1 = "1456" y1 = "1863" x2 = "1437" y2 = "1887" style="stroke:rgb(255,0,0);stroke-width:2" />

	<circle cx = "1459" cy = "1885" r = "2" stroke = "black" stroke-width = "3" />
1
	<line x1 = "649" y1 = "1065" x2 = "679" y2 = "1072" style="stroke:rgb(255,0,0);stroke-width:2" />

	<line x1 = "679" y1 = "1072" x2 = "672" y2 = "1102" style="stroke:rgb(255,0,0);stroke-width:2" />

	<line x1 = "672" y1 = "1102" x2 = "642" y2 = "1095" style="stroke:rgb(255,0,0);stroke-width:2" />

	<line x1 = "649" y1 = "1065" x2 = "642" y2 = "1095" style="stroke:rgb(255,0,0);stroke-width:2" />

	<circle cx = "661" cy = "1084" r = "2" stroke = "black" stroke-width = "3" />
1
	<line x1 = "436" y1 = "249" x2 = "465" y2 = "257" style="stroke:rgb(255,0,0);stroke-width:2" />

	<line x1 = "465" y1 = "257" x2 = "457" y2 = "286" style="stroke:rgb(255,0,0);stroke-width:2" />

	<line x1 = "457" y1 = "286" x2 = "428" y2 = "278" style="stroke:rgb(255,0,0);stroke-width:2" />

	<line x1 = "436" y1 = "249" x2 = "428" y2 = "278" style="stroke:rgb(255,0,0);stroke-width:2" />

	<circle cx = "447" cy = "268" r = "2" stroke = "black" stroke-width = "3" />
1
	<line x1 = "697" y1 = "292" x2 = "703" y2 = "322" style="stroke:rgb(255,0,0);stroke-width:2" />

	<line x1 = "703" y1 = "322" x2 = "673" y2 = "327" style="stroke:rgb(255,0,0);stroke-width:2" />

	<line x1 = "673" y1 = "327" x2 = "667" y2 = "298" style="stroke:rgb(255,0,0);stroke-width:2" />

	<line x1 = "697" y1 = "292" x2 = "667" y2 = "298" style="stroke:rgb(255,0,0);stroke-width:2" />

	<circle cx = "685" cy = "310" r = "2" stroke = "black" stroke-width = "3" />
1
	<line x1 = "357" y1 = "421" x2 = "387" y2 = "426" style="stroke:rgb(255,0,0);stroke-width:2" />

	<line x1 = "387" y1 = "426" x2 = "382" y2 = "456" style="stroke:rgb(255,0,0);stroke-width:2" />

	<line x1 = "382" y1 = "456" x2 = "352" y2 = "451" style="stroke:rgb(255,0,0);stroke-width:2" />

	<line x1 = "357" y1 = "421" x2 = "352" y2 = "451" style="stroke:rgb(255,0,0);stroke-width:2" />

	<circle cx = "370" cy = "439" r = "2" stroke = "black" stroke-width = "3" />
1
	<line x1 = "1329" y1 = "1874" x2 = "1353" y2 = "1855" style="stroke:rgb(255,0,0);stroke-width:2" />

	<line x1 = "1353" y1 = "1855" x2 = "1372" y2 = "1879" style="stroke:rgb(255,0,0);stroke-width:2" />

	<line x1 = "1372" y1 = "1879" x2 = "1348" y2 = "1898" style="stroke:rgb(255,0,0);stroke-width:2" />

	<line x1 = "1329" y1 = "1874" x2 = "1348" y2 = "1898" style="stroke:rgb(255,0,0);stroke-width:2" />

	<circle cx = "1351" cy = "1877" r = "2" stroke = "black" stroke-width = "3" />
1
	<line x1 = "833" y1 = "1453" x2 = "843" y2 = "1436" style="stroke:rgb(255,0,0);stroke-width:2" />

	<line x1 = "843" y1 = "1436" x2 = "860" y2 = "1446" style="stroke:rgb(255,0,0);stroke-width:2" />

	<line x1 = "860" y1 = "1446" x2 = "850" y2 = "1463" style="stroke:rgb(255,0,0);stroke-width:2" />

	<line x1 = "833" y1 = "1453" x2 = "850" y2 = "1463" style="stroke:rgb(255,0,0);stroke-width:2" />

	<circle cx = "847" cy = "1450" r = "2" stroke = "black" stroke-width = "3" />
1
	<line x1 = "266" y1 = "525" x2 = "247" y2 = "529" style="stroke:rgb(255,0,0);stroke-width:2" />

	<line x1 = "247" y1 = "529" x2 = "243" y2 = "510" style="stroke:rgb(255,0,0);stroke-width:2" />

	<line x1 = "243" y1 = "510" x2 = "262" y2 = "506" style="stroke:rgb(255,0,0);stroke-width:2" />

	<line x1 = "266" y1 = "525" x2 = "262" y2 = "506" style="stroke:rgb(255,0,0);stroke-width:2" />

	<circle cx = "255" cy = "518" r = "2" stroke = "black" stroke-width = "3" />
1
	<line x1 = "405" y1 = "448" x2 = "391" y2 = "433" style="stroke:rgb(255,0,0);stroke-width:2" />

	<line x1 = "391" y1 = "433" x2 = "406" y2 = "419" style="stroke:rgb(255,0,0);stroke-width:2" />

	<line x1 = "406" y1 = "419" x2 = "420" y2 = "434" style="stroke:rgb(255,0,0);stroke-width:2" />

	<line x1 = "405" y1 = "448" x2 = "420" y2 = "434" style="stroke:rgb(255,0,0);stroke-width:2" />

	<circle cx = "406" cy = "434" r = "2" stroke = "black" stroke-width = "3" />
1
	<line x1 = "810" y1 = "895" x2 = "829" y2 = "901" style="stroke:rgb(255,0,0);stroke-width:2" />

	<line x1 = "829" y1 = "901" x2 = "823" y2 = "920" style="stroke:rgb(255,0,0);stroke-width:2" />

	<line x1 = "823" y1 = "920" x2 = "804" y2 = "914" style="stroke:rgb(255,0,0);stroke-width:2" />

	<line x1 = "810" y1 = "895" x2 = "804" y2 = "914" style="stroke:rgb(255,0,0);stroke-width:2" />

	<circle cx = "817" cy = "908" r = "2" stroke = "black" stroke-width = "3" />
1
	<line x1 = "277" y1 = "494" x2 = "259" y2 = "502" style="stroke:rgb(255,0,0);stroke-width:2" />

	<line x1 = "259" y1 = "502" x2 = "251" y2 = "484" style="stroke:rgb(255,0,0);stroke-width:2" />

	<line x1 = "251" y1 = "484" x2 = "269" y2 = "476" style="stroke:rgb(255,0,0);stroke-width:2" />

	<line x1 = "277" y1 = "494" x2 = "269" y2 = "476" style="stroke:rgb(255,0,0);stroke-width:2" />

	<circle cx = "264" cy = "489" r = "2" stroke = "black" stroke-width = "3" />
1
	<line x1 = "742" y1 = "724" x2 = "731" y2 = "708" style="stroke:rgb(255,0,0);stroke-width:2" />

	<line x1 = "731" y1 = "708" x2 = "747" y2 = "697" style="stroke:rgb(255,0,0);stroke-width:2" />

	<line x1 = "747" y1 = "697" x2 = "758" y2 = "713" style="stroke:rgb(255,0,0);stroke-width:2" />

	<line x1 = "742" y1 = "724" x2 = "758" y2 = "713" style="stroke:rgb(255,0,0);stroke-width:2" />

	<circle cx = "745" cy = "711" r = "2" stroke = "black" stroke-width = "3" />
1
	<line x1 = "1068" y1 = "441" x2 = "1064" y2 = "422" style="stroke:rgb(255,0,0);stroke-width:2" />

	<line x1 = "1064" y1 = "422" x2 = "1083" y2 = "418" style="stroke:rgb(255,0,0);stroke-width:2" />

	<line x1 = "1083" y1 = "418" x2 = "1087" y2 = "437" style="stroke:rgb(255,0,0);stroke-width:2" />

	<line x1 = "1068" y1 = "441" x2 = "1087" y2 = "437" style="stroke:rgb(255,0,0);stroke-width:2" />

	<circle cx = "1076" cy = "430" r = "2" stroke = "black" stroke-width = "3" />
1
	<line x1 = "454" y1 = "213" x2 = "438" y2 = "224" style="stroke:rgb(255,0,0);stroke-width:2" />

	<line x1 = "438" y1 = "224" x2 = "427" y2 = "208" style="stroke:rgb(255,0,0);stroke-width:2" />

	<line x1 = "427" y1 = "208" x2 = "443" y2 = "197" style="stroke:rgb(255,0,0);stroke-width:2" />

	<line x1 = "454" y1 = "213" x2 = "443" y2 = "197" style="stroke:rgb(255,0,0);stroke-width:2" />

	<circle cx = "441" cy = "211" r = "2" stroke = "black" stroke-width = "3" />
1
	<line x1 = "767" y1 = "819" x2 = "768" y2 = "839" style="stroke:rgb(255,0,0);stroke-width:2" />

	<line x1 = "768" y1 = "839" x2 = "748" y2 = "840" style="stroke:rgb(255,0,0);stroke-width:2" />

	<line x1 = "748" y1 = "840" x2 = "747" y2 = "820" style="stroke:rgb(255,0,0);stroke-width:2" />

	<line x1 = "767" y1 = "819" x2 = "747" y2 = "820" style="stroke:rgb(255,0,0);stroke-width:2" />

	<circle cx = "758" cy = "830" r = "2" stroke = "black" stroke-width = "3" />
1
	<line x1 = "463" y1 = "311" x2 = "469" y2 = "292" style="stroke:rgb(255,0,0);stroke-width:2" />

	<line x1 = "469" y1 = "292" x2 = "488" y2 = "298" style="stroke:rgb(255,0,0);stroke-width:2" />

	<line x1 = "488" y1 = "298" x2 = "482" y2 = "317" style="stroke:rgb(255,0,0);stroke-width:2" />

	<line x1 = "463" y1 = "311" x2 = "482" y2 = "317" style="stroke:rgb(255,0,0);stroke-width:2" />

	<circle cx = "476" cy = "305" r = "2" stroke = "black" stroke-width = "3" />
1
	<line x1 = "449" y1 = "384" x2 = "468" y2 = "390" style="stroke:rgb(255,0,0);stroke-width:2" />

	<line x1 = "468" y1 = "390" x2 = "462" y2 = "409" style="stroke:rgb(255,0,0);stroke-width:2" />

	<line x1 = "462" y1 = "409" x2 = "443" y2 = "403" style="stroke:rgb(255,0,0);stroke-width:2" />

	<line x1 = "449" y1 = "384" x2 = "443" y2 = "403" style="stroke:rgb(255,0,0);stroke-width:2" />

	<circle cx = "456" cy = "397" r = "2" stroke = "black" stroke-width = "3" />
1
	<line x1 = "275" y1 = "497" x2 = "289" y2 = "482" style="stroke:rgb(255,0,0);stroke-width:2" />

	<line x1 = "289" y1 = "482" x2 = "304" y2 = "496" style="stroke:rgb(255,0,0);stroke-width:2" />

	<line x1 = "304" y1 = "496" x2 = "290" y2 = "511" style="stroke:rgb(255,0,0);stroke-width:2" />

	<line x1 = "275" y1 = "497" x2 = "290" y2 = "511" style="stroke:rgb(255,0,0);stroke-width:2" />

	<circle cx = "290" cy = "497" r = "2" stroke = "black" stroke-width = "3" />
1
	<line x1 = "920" y1 = "733" x2 = "911" y2 = "751" style="stroke:rgb(255,0,0);stroke-width:2" />

	<line x1 = "911" y1 = "751" x2 = "893" y2 = "742" style="stroke:rgb(255,0,0);stroke-width:2" />

	<line x1 = "893" y1 = "742" x2 = "902" y2 = "724" style="stroke:rgb(255,0,0);stroke-width:2" />

	<line x1 = "920" y1 = "733" x2 = "902" y2 = "724" style="stroke:rgb(255,0,0);stroke-width:2" />

	<circle cx = "907" cy = "738" r = "2" stroke = "black" stroke-width = "3" />
1
	<line x1 = "444" y1 = "322" x2 = "434" y2 = "305" style="stroke:rgb(255,0,0);stroke-width:2" />

	<line x1 = "434" y1 = "305" x2 = "451" y2 = "295" style="stroke:rgb(255,0,0);stroke-width:2" />

	<line x1 = "451" y1 = "295" x2 = "461" y2 = "312" style="stroke:rgb(255,0,0);stroke-width:2" />

	<line x1 = "444" y1 = "322" x2 = "461" y2 = "312" style="stroke:rgb(255,0,0);stroke-width:2" />

	<circle cx = "448" cy = "309" r = "2" stroke = "black" stroke-width = "3" />
1
	<line x1 = "470" y1 = "250" x2 = "460" y2 = "233" style="stroke:rgb(255,0,0);stroke-width:2" />

	<line x1 = "460" y1 = "233" x2 = "477" y2 = "223" style="stroke:rgb(255,0,0);stroke-width:2" />

	<line x1 = "477" y1 = "223" x2 = "487" y2 = "240" style="stroke:rgb(255,0,0);stroke-width:2" />

	<line x1 = "470" y1 = "250" x2 = "487" y2 = "240" style="stroke:rgb(255,0,0);stroke-width:2" />

	<circle cx = "474" cy = "237" r = "2" stroke = "black" stroke-width = "3" />
1
	<line x1 = "420" y1 = "120" x2 = "421" y2 = "140" style="stroke:rgb(255,0,0);stroke-width:2" />

	<line x1 = "421" y1 = "140" x2 = "401" y2 = "141" style="stroke:rgb(255,0,0);stroke-width:2" />

	<line x1 = "401" y1 = "141" x2 = "400" y2 = "121" style="stroke:rgb(255,0,0);stroke-width:2" />

	<line x1 = "420" y1 = "120" x2 = "400" y2 = "121" style="stroke:rgb(255,0,0);stroke-width:2" />

	<circle cx = "411" cy = "131" r = "2" stroke = "black" stroke-width = "3" />
1
	<line x1 = "621" y1 = "447" x2 = "609" y2 = "463" style="stroke:rgb(255,0,0);stroke-width:2" />

	<line x1 = "609" y1 = "463" x2 = "593" y2 = "451" style="stroke:rgb(255,0,0);stroke-width:2" />

	<line x1 = "593" y1 = "451" x2 = "604" y2 = "435" style="stroke:rgb(255,0,0);stroke-width:2" />

	<line x1 = "621" y1 = "447" x2 = "604" y2 = "435" style="stroke:rgb(255,0,0);stroke-width:2" />

	<circle cx = "607" cy = "449" r = "2" stroke = "black" stroke-width = "3" />
1
	<line x1 = "828" y1 = "1044" x2 = "811" y2 = "1054" style="stroke:rgb(255,0,0);stroke-width:2" />

	<line x1 = "811" y1 = "1054" x2 = "801" y2 = "1037" style="stroke:rgb(255,0,0);stroke-width:2" />

	<line x1 = "801" y1 = "1037" x2 = "818" y2 = "1027" style="stroke:rgb(255,0,0);stroke-width:2" />

	<line x1 = "828" y1 = "1044" x2 = "818" y2 = "1027" style="stroke:rgb(255,0,0);stroke-width:2" />

	<circle cx = "815" cy = "1041" r = "2" stroke = "black" stroke-width = "3" />
1
	<line x1 = "1103" y1 = "1943" x2 = "1104" y2 = "1963" style="stroke:rgb(255,0,0);stroke-width:2" />

	<line x1 = "1104" y1 = "1963" x2 = "1084" y2 = "1964" style="stroke:rgb(255,0,0);stroke-width:2" />

	<line x1 = "1084" y1 = "1964" x2 = "1083" y2 = "1944" style="stroke:rgb(255,0,0);stroke-width:2" />

	<line x1 = "1103" y1 = "1943" x2 = "1083" y2 = "1944" style="stroke:rgb(255,0,0);stroke-width:2" />

	<circle cx = "1094" cy = "1954" r = "2" stroke = "black" stroke-width = "3" />
1
	<line x1 = "1631" y1 = "1788" x2 = "1640" y2 = "1806" style="stroke:rgb(255,0,0);stroke-width:2" />

	<line x1 = "1640" y1 = "1806" x2 = "1622" y2 = "1815" style="stroke:rgb(255,0,0);stroke-width:2" />

	<line x1 = "1622" y1 = "1815" x2 = "1613" y2 = "1797" style="stroke:rgb(255,0,0);stroke-width:2" />

	<line x1 = "1631" y1 = "1788" x2 = "1613" y2 = "1797" style="stroke:rgb(255,0,0);stroke-width:2" />

	<circle cx = "1627" cy = "1802" r = "2" stroke = "black" stroke-width = "3" />
1</svg>
