<svg xmlns="http://www.w3.org/2000/svg" version="1.1" height="1000" width="1000">

	<line x1 = "566" y1 = "393" x2 = "290" y2 = "511" style="stroke:rgb(255,0,0);stroke-width:2" />

	<line x1 = "290" y1 = "511" x2 = "173" y2 = "235" style="stroke:rgb(255,0,0);stroke-width:2" />

	<line x1 = "173" y1 = "235" x2 = "449" y2 = "117" style="stroke:rgb(255,0,0);stroke-width:2" />

	<line x1 = "566" y1 = "393" x2 = "449" y2 = "117" style="stroke:rgb(255,0,0);stroke-width:2" />

	<circle cx = "370" cy = "314" r = "2" stroke = "black" stroke-width = "3" />
1
	<line x1 = "18" y1 = "427" x2 = "-47" y2 = "292" style="stroke:rgb(255,0,0);stroke-width:2" />

	<line x1 = "-47" y1 = "292" x2 = "87" y2 = "226" style="stroke:rgb(255,0,0);stroke-width:2" />

	<line x1 = "87" y1 = "226" x2 = "153" y2 = "361" style="stroke:rgb(255,0,0);stroke-width:2" />

	<line x1 = "18" y1 = "427" x2 = "153" y2 = "361" style="stroke:rgb(255,0,0);stroke-width:2" />

	<circle cx = "53" cy = "327" r = "2" stroke = "black" stroke-width = "3" />
1
	<line x1 = "398" y1 = "729" x2 = "325" y2 = "597" style="stroke:rgb(255,0,0);stroke-width:2" />

	<line x1 = "325" y1 = "597" x2 = "457" y2 = "524" style="stroke:rgb(255,0,0);stroke-width:2" />

	<line x1 = "457" y1 = "524" x2 = "530" y2 = "656" style="stroke:rgb(255,0,0);stroke-width:2" />

	<line x1 = "398" y1 = "729" x2 = "530" y2 = "656" style="stroke:rgb(255,0,0);stroke-width:2" />

	<circle cx = "428" cy = "627" r = "2" stroke = "black" stroke-width = "3" />
1
	<line x1 = "223" y1 = "484" x2 = "148" y2 = "614" style="stroke:rgb(255,0,0);stroke-width:2" />

	<line x1 = "148" y1 = "614" x2 = "18" y2 = "539" style="stroke:rgb(255,0,0);stroke-width:2" />

	<line x1 = "18" y1 = "539" x2 = "93" y2 = "409" style="stroke:rgb(255,0,0);stroke-width:2" />

	<line x1 = "223" y1 = "484" x2 = "93" y2 = "409" style="stroke:rgb(255,0,0);stroke-width:2" />

	<circle cx = "121" cy = "512" r = "2" stroke = "black" stroke-width = "3" />
1
	<line x1 = "557" y1 = "629" x2 = "539" y2 = "480" style="stroke:rgb(255,0,0);stroke-width:2" />

	<line x1 = "539" y1 = "480" x2 = "688" y2 = "462" style="stroke:rgb(255,0,0);stroke-width:2" />

	<line x1 = "688" y1 = "462" x2 = "706" y2 = "611" style="stroke:rgb(255,0,0);stroke-width:2" />

	<line x1 = "557" y1 = "629" x2 = "706" y2 = "611" style="stroke:rgb(255,0,0);stroke-width:2" />

	<circle cx = "623" cy = "546" r = "2" stroke = "black" stroke-width = "3" />
1
	<line x1 = "243" y1 = "120" x2 = "115" y2 = "197" style="stroke:rgb(255,0,0);stroke-width:2" />

	<line x1 = "115" y1 = "197" x2 = "38" y2 = "69" style="stroke:rgb(255,0,0);stroke-width:2" />

	<line x1 = "38" y1 = "69" x2 = "166" y2 = "-7" style="stroke:rgb(255,0,0);stroke-width:2" />

	<line x1 = "243" y1 = "120" x2 = "166" y2 = "-7" style="stroke:rgb(255,0,0);stroke-width:2" />

	<circle cx = "141" cy = "95" r = "2" stroke = "black" stroke-width = "3" />
1
	<line x1 = "1011" y1 = "1285" x2 = "964" y2 = "1143" style="stroke:rgb(255,0,0);stroke-width:2" />

	<line x1 = "964" y1 = "1143" x2 = "1106" y2 = "1096" style="stroke:rgb(255,0,0);stroke-width:2" />

	<line x1 = "1106" y1 = "1096" x2 = "1153" y2 = "1238" style="stroke:rgb(255,0,0);stroke-width:2" />

	<line x1 = "1011" y1 = "1285" x2 = "1153" y2 = "1238" style="stroke:rgb(255,0,0);stroke-width:2" />

	<circle cx = "1059" cy = "1191" r = "2" stroke = "black" stroke-width = "3" />
1
	<line x1 = "224" y1 = "875" x2 = "203" y2 = "727" style="stroke:rgb(255,0,0);stroke-width:2" />

	<line x1 = "203" y1 = "727" x2 = "351" y2 = "706" style="stroke:rgb(255,0,0);stroke-width:2" />

	<line x1 = "351" y1 = "706" x2 = "372" y2 = "854" style="stroke:rgb(255,0,0);stroke-width:2" />

	<line x1 = "224" y1 = "875" x2 = "372" y2 = "854" style="stroke:rgb(255,0,0);stroke-width:2" />

	<circle cx = "288" cy = "791" r = "2" stroke = "black" stroke-width = "3" />
1
	<line x1 = "925" y1 = "947" x2 = "1057" y2 = "876" style="stroke:rgb(255,0,0);stroke-width:2" />

	<line x1 = "1057" y1 = "876" x2 = "1128" y2 = "1008" style="stroke:rgb(255,0,0);stroke-width:2" />

	<line x1 = "1128" y1 = "1008" x2 = "996" y2 = "1079" style="stroke:rgb(255,0,0);stroke-width:2" />

	<line x1 = "925" y1 = "947" x2 = "996" y2 = "1079" style="stroke:rgb(255,0,0);stroke-width:2" />

	<circle cx = "1027" cy = "978" r = "2" stroke = "black" stroke-width = "3" />
1
	<line x1 = "179" y1 = "595" x2 = "215" y2 = "502" style="stroke:rgb(255,0,0);stroke-width:2" />

	<line x1 = "215" y1 = "502" x2 = "308" y2 = "538" style="stroke:rgb(255,0,0);stroke-width:2" />

	<line x1 = "308" y1 = "538" x2 = "272" y2 = "631" style="stroke:rgb(255,0,0);stroke-width:2" />

	<line x1 = "179" y1 = "595" x2 = "272" y2 = "631" style="stroke:rgb(255,0,0);stroke-width:2" />

	<circle cx = "244" cy = "567" r = "2" stroke = "black" stroke-width = "3" />
1
	<line x1 = "897" y1 = "1135" x2 = "808" y2 = "1089" style="stroke:rgb(255,0,0);stroke-width:2" />

	<line x1 = "808" y1 = "1089" x2 = "854" y2 = "1000" style="stroke:rgb(255,0,0);stroke-width:2" />

	<line x1 = "854" y1 = "1000" x2 = "943" y2 = "1046" style="stroke:rgb(255,0,0);stroke-width:2" />

	<line x1 = "897" y1 = "1135" x2 = "943" y2 = "1046" style="stroke:rgb(255,0,0);stroke-width:2" />

	<circle cx = "876" cy = "1068" r = "2" stroke = "black" stroke-width = "3" />
1
	<line x1 = "408" y1 = "974" x2 = "489" y2 = "1032" style="stroke:rgb(255,0,0);stroke-width:2" />

	<line x1 = "489" y1 = "1032" x2 = "431" y2 = "1113" style="stroke:rgb(255,0,0);stroke-width:2" />

	<line x1 = "431" y1 = "1113" x2 = "350" y2 = "1055" style="stroke:rgb(255,0,0);stroke-width:2" />

	<line x1 = "408" y1 = "974" x2 = "350" y2 = "1055" style="stroke:rgb(255,0,0);stroke-width:2" />

	<circle cx = "420" cy = "1044" r = "2" stroke = "black" stroke-width = "3" />
1
	<line x1 = "361" y1 = "-8" x2 = "352" y2 = "91" style="stroke:rgb(255,0,0);stroke-width:2" />

	<line x1 = "352" y1 = "91" x2 = "252" y2 = "82" style="stroke:rgb(255,0,0);stroke-width:2" />

	<line x1 = "252" y1 = "82" x2 = "261" y2 = "-17" style="stroke:rgb(255,0,0);stroke-width:2" />

	<line x1 = "361" y1 = "-8" x2 = "261" y2 = "-17" style="stroke:rgb(255,0,0);stroke-width:2" />

	<circle cx = "307" cy = "37" r = "2" stroke = "black" stroke-width = "3" />
1
	<line x1 = "143" y1 = "810" x2 = "208" y2 = "886" style="stroke:rgb(255,0,0);stroke-width:2" />

	<line x1 = "208" y1 = "886" x2 = "132" y2 = "951" style="stroke:rgb(255,0,0);stroke-width:2" />

	<line x1 = "132" y1 = "951" x2 = "67" y2 = "875" style="stroke:rgb(255,0,0);stroke-width:2" />

	<line x1 = "143" y1 = "810" x2 = "67" y2 = "875" style="stroke:rgb(255,0,0);stroke-width:2" />

	<circle cx = "138" cy = "881" r = "2" stroke = "black" stroke-width = "3" />
1
	<line x1 = "522" y1 = "516" x2 = "476" y2 = "535" style="stroke:rgb(255,0,0);stroke-width:2" />

	<line x1 = "476" y1 = "535" x2 = "457" y2 = "489" style="stroke:rgb(255,0,0);stroke-width:2" />

	<line x1 = "457" y1 = "489" x2 = "503" y2 = "470" style="stroke:rgb(255,0,0);stroke-width:2" />

	<line x1 = "522" y1 = "516" x2 = "503" y2 = "470" style="stroke:rgb(255,0,0);stroke-width:2" />

	<circle cx = "490" cy = "503" r = "2" stroke = "black" stroke-width = "3" />
1
	<line x1 = "296" y1 = "686" x2 = "270" y2 = "643" style="stroke:rgb(255,0,0);stroke-width:2" />

	<line x1 = "270" y1 = "643" x2 = "313" y2 = "617" style="stroke:rgb(255,0,0);stroke-width:2" />

	<line x1 = "313" y1 = "617" x2 = "339" y2 = "660" style="stroke:rgb(255,0,0);stroke-width:2" />

	<line x1 = "296" y1 = "686" x2 = "339" y2 = "660" style="stroke:rgb(255,0,0);stroke-width:2" />

	<circle cx = "305" cy = "652" r = "2" stroke = "black" stroke-width = "3" />
1
	<line x1 = "632" y1 = "774" x2 = "622" y2 = "823" style="stroke:rgb(255,0,0);stroke-width:2" />

	<line x1 = "622" y1 = "823" x2 = "573" y2 = "813" style="stroke:rgb(255,0,0);stroke-width:2" />

	<line x1 = "573" y1 = "813" x2 = "583" y2 = "764" style="stroke:rgb(255,0,0);stroke-width:2" />

	<line x1 = "632" y1 = "774" x2 = "583" y2 = "764" style="stroke:rgb(255,0,0);stroke-width:2" />

	<circle cx = "603" cy = "793" r = "2" stroke = "black" stroke-width = "3" />
1
	<line x1 = "560" y1 = "874" x2 = "585" y2 = "917" style="stroke:rgb(255,0,0);stroke-width:2" />

	<line x1 = "585" y1 = "917" x2 = "542" y2 = "942" style="stroke:rgb(255,0,0);stroke-width:2" />

	<line x1 = "542" y1 = "942" x2 = "517" y2 = "899" style="stroke:rgb(255,0,0);stroke-width:2" />

	<line x1 = "560" y1 = "874" x2 = "517" y2 = "899" style="stroke:rgb(255,0,0);stroke-width:2" />

	<circle cx = "551" cy = "908" r = "2" stroke = "black" stroke-width = "3" />
1
	<line x1 = "544" y1 = "629" x2 = "593" y2 = "637" style="stroke:rgb(255,0,0);stroke-width:2" />

	<line x1 = "593" y1 = "637" x2 = "585" y2 = "686" style="stroke:rgb(255,0,0);stroke-width:2" />

	<line x1 = "585" y1 = "686" x2 = "536" y2 = "678" style="stroke:rgb(255,0,0);stroke-width:2" />

	<line x1 = "544" y1 = "629" x2 = "536" y2 = "678" style="stroke:rgb(255,0,0);stroke-width:2" />

	<circle cx = "565" cy = "658" r = "2" stroke = "black" stroke-width = "3" />
1
	<line x1 = "746" y1 = "456" x2 = "698" y2 = "471" style="stroke:rgb(255,0,0);stroke-width:2" />

	<line x1 = "698" y1 = "471" x2 = "683" y2 = "423" style="stroke:rgb(255,0,0);stroke-width:2" />

	<line x1 = "683" y1 = "423" x2 = "731" y2 = "408" style="stroke:rgb(255,0,0);stroke-width:2" />

	<line x1 = "746" y1 = "456" x2 = "731" y2 = "408" style="stroke:rgb(255,0,0);stroke-width:2" />

	<circle cx = "715" cy = "440" r = "2" stroke = "black" stroke-width = "3" />
1
	<line x1 = "626" y1 = "332" x2 = "671" y2 = "352" style="stroke:rgb(255,0,0);stroke-width:2" />

	<line x1 = "671" y1 = "352" x2 = "651" y2 = "398" style="stroke:rgb(255,0,0);stroke-width:2" />

	<line x1 = "651" y1 = "398" x2 = "605" y2 = "378" style="stroke:rgb(255,0,0);stroke-width:2" />

	<line x1 = "626" y1 = "332" x2 = "605" y2 = "378" style="stroke:rgb(255,0,0);stroke-width:2" />

	<circle cx = "638" cy = "365" r = "2" stroke = "black" stroke-width = "3" />
1
	<line x1 = "168" y1 = "245" x2 = "119" y2 = "257" style="stroke:rgb(255,0,0);stroke-width:2" />

	<line x1 = "119" y1 = "257" x2 = "107" y2 = "208" style="stroke:rgb(255,0,0);stroke-width:2" />

	<line x1 = "107" y1 = "208" x2 = "156" y2 = "196" style="stroke:rgb(255,0,0);stroke-width:2" />

	<line x1 = "168" y1 = "245" x2 = "156" y2 = "196" style="stroke:rgb(255,0,0);stroke-width:2" />

	<circle cx = "138" cy = "227" r = "2" stroke = "black" stroke-width = "3" />
1
	<line x1 = "592" y1 = "202" x2 = "543" y2 = "192" style="stroke:rgb(255,0,0);stroke-width:2" />

	<line x1 = "543" y1 = "192" x2 = "553" y2 = "143" style="stroke:rgb(255,0,0);stroke-width:2" />

	<line x1 = "553" y1 = "143" x2 = "602" y2 = "153" style="stroke:rgb(255,0,0);stroke-width:2" />

	<line x1 = "592" y1 = "202" x2 = "602" y2 = "153" style="stroke:rgb(255,0,0);stroke-width:2" />

	<circle cx = "573" cy = "173" r = "2" stroke = "black" stroke-width = "3" />
1
	<line x1 = "674" y1 = "1112" x2 = "627" y2 = "1094" style="stroke:rgb(255,0,0);stroke-width:2" />

	<line x1 = "627" y1 = "1094" x2 = "645" y2 = "1047" style="stroke:rgb(255,0,0);stroke-width:2" />

	<line x1 = "645" y1 = "1047" x2 = "692" y2 = "1065" style="stroke:rgb(255,0,0);stroke-width:2" />

	<line x1 = "674" y1 = "1112" x2 = "692" y2 = "1065" style="stroke:rgb(255,0,0);stroke-width:2" />

	<circle cx = "660" cy = "1080" r = "2" stroke = "black" stroke-width = "3" />
1
	<line x1 = "599" y1 = "263" x2 = "593" y2 = "313" style="stroke:rgb(255,0,0);stroke-width:2" />

	<line x1 = "593" y1 = "313" x2 = "544" y2 = "307" style="stroke:rgb(255,0,0);stroke-width:2" />

	<line x1 = "544" y1 = "307" x2 = "550" y2 = "257" style="stroke:rgb(255,0,0);stroke-width:2" />

	<line x1 = "599" y1 = "263" x2 = "550" y2 = "257" style="stroke:rgb(255,0,0);stroke-width:2" />

	<circle cx = "571" cy = "285" r = "2" stroke = "black" stroke-width = "3" />
1
	<line x1 = "569" y1 = "467" x2 = "553" y2 = "420" style="stroke:rgb(255,0,0);stroke-width:2" />

	<line x1 = "553" y1 = "420" x2 = "600" y2 = "404" style="stroke:rgb(255,0,0);stroke-width:2" />

	<line x1 = "600" y1 = "404" x2 = "616" y2 = "451" style="stroke:rgb(255,0,0);stroke-width:2" />

	<line x1 = "569" y1 = "467" x2 = "616" y2 = "451" style="stroke:rgb(255,0,0);stroke-width:2" />

	<circle cx = "585" cy = "436" r = "2" stroke = "black" stroke-width = "3" />
1
	<line x1 = "1147" y1 = "702" x2 = "1191" y2 = "677" style="stroke:rgb(255,0,0);stroke-width:2" />

	<line x1 = "1191" y1 = "677" x2 = "1216" y2 = "721" style="stroke:rgb(255,0,0);stroke-width:2" />

	<line x1 = "1216" y1 = "721" x2 = "1172" y2 = "746" style="stroke:rgb(255,0,0);stroke-width:2" />

	<line x1 = "1147" y1 = "702" x2 = "1172" y2 = "746" style="stroke:rgb(255,0,0);stroke-width:2" />

	<circle cx = "1182" cy = "712" r = "2" stroke = "black" stroke-width = "3" />
1
	<line x1 = "608" y1 = "300" x2 = "626" y2 = "253" style="stroke:rgb(255,0,0);stroke-width:2" />

	<line x1 = "626" y1 = "253" x2 = "673" y2 = "271" style="stroke:rgb(255,0,0);stroke-width:2" />

	<line x1 = "673" y1 = "271" x2 = "655" y2 = "318" style="stroke:rgb(255,0,0);stroke-width:2" />

	<line x1 = "608" y1 = "300" x2 = "655" y2 = "318" style="stroke:rgb(255,0,0);stroke-width:2" />

	<circle cx = "641" cy = "286" r = "2" stroke = "black" stroke-width = "3" />
1
	<line x1 = "732" y1 = "310" x2 = "742" y2 = "359" style="stroke:rgb(255,0,0);stroke-width:2" />

	<line x1 = "742" y1 = "359" x2 = "694" y2 = "369" style="stroke:rgb(255,0,0);stroke-width:2" />

	<line x1 = "694" y1 = "369" x2 = "683" y2 = "321" style="stroke:rgb(255,0,0);stroke-width:2" />

	<line x1 = "732" y1 = "310" x2 = "683" y2 = "321" style="stroke:rgb(255,0,0);stroke-width:2" />

	<circle cx = "713" cy = "340" r = "2" stroke = "black" stroke-width = "3" />
1
	<line x1 = "591" y1 = "255" x2 = "570" y2 = "233" style="stroke:rgb(255,0,0);stroke-width:2" />

	<line x1 = "570" y1 = "233" x2 = "592" y2 = "212" style="stroke:rgb(255,0,0);stroke-width:2" />

	<line x1 = "592" y1 = "212" x2 = "613" y2 = "234" style="stroke:rgb(255,0,0);stroke-width:2" />

	<line x1 = "591" y1 = "255" x2 = "613" y2 = "234" style="stroke:rgb(255,0,0);stroke-width:2" />

	<circle cx = "592" cy = "234" r = "2" stroke = "black" stroke-width = "3" />
1
	<line x1 = "224" y1 = "485" x2 = "230" y2 = "456" style="stroke:rgb(255,0,0);stroke-width:2" />

	<line x1 = "230" y1 = "456" x2 = "259" y2 = "462" style="stroke:rgb(255,0,0);stroke-width:2" />

	<line x1 = "259" y1 = "462" x2 = "253" y2 = "491" style="stroke:rgb(255,0,0);stroke-width:2" />

	<line x1 = "224" y1 = "485" x2 = "253" y2 = "491" style="stroke:rgb(255,0,0);stroke-width:2" />

	<circle cx = "242" cy = "474" r = "2" stroke = "black" stroke-width = "3" />
1
	<line x1 = "319" y1 = "533" x2 = "346" y2 = "547" style="stroke:rgb(255,0,0);stroke-width:2" />

	<line x1 = "346" y1 = "547" x2 = "332" y2 = "574" style="stroke:rgb(255,0,0);stroke-width:2" />

	<line x1 = "332" y1 = "574" x2 = "306" y2 = "560" style="stroke:rgb(255,0,0);stroke-width:2" />

	<line x1 = "319" y1 = "533" x2 = "306" y2 = "560" style="stroke:rgb(255,0,0);stroke-width:2" />

	<circle cx = "326" cy = "554" r = "2" stroke = "black" stroke-width = "3" />
1
	<line x1 = "424" y1 = "460" x2 = "453" y2 = "468" style="stroke:rgb(255,0,0);stroke-width:2" />

	<line x1 = "453" y1 = "468" x2 = "445" y2 = "497" style="stroke:rgb(255,0,0);stroke-width:2" />

	<line x1 = "445" y1 = "497" x2 = "416" y2 = "489" style="stroke:rgb(255,0,0);stroke-width:2" />

	<line x1 = "424" y1 = "460" x2 = "416" y2 = "489" style="stroke:rgb(255,0,0);stroke-width:2" />

	<circle cx = "435" cy = "479" r = "2" stroke = "black" stroke-width = "3" />
1
	<line x1 = "332" y1 = "116" x2 = "352" y2 = "93" style="stroke:rgb(255,0,0);stroke-width:2" />

	<line x1 = "352" y1 = "93" x2 = "375" y2 = "113" style="stroke:rgb(255,0,0);stroke-width:2" />

	<line x1 = "375" y1 = "113" x2 = "355" y2 = "136" style="stroke:rgb(255,0,0);stroke-width:2" />

	<line x1 = "332" y1 = "116" x2 = "355" y2 = "136" style="stroke:rgb(255,0,0);stroke-width:2" />

	<circle cx = "354" cy = "115" r = "2" stroke = "black" stroke-width = "3" />
1
	<line x1 = "531" y1 = "219" x2 = "556" y2 = "203" style="stroke:rgb(255,0,0);stroke-width:2" />

	<line x1 = "556" y1 = "203" x2 = "572" y2 = "228" style="stroke:rgb(255,0,0);stroke-width:2" />

	<line x1 = "572" y1 = "228" x2 = "547" y2 = "244" style="stroke:rgb(255,0,0);stroke-width:2" />

	<line x1 = "531" y1 = "219" x2 = "547" y2 = "244" style="stroke:rgb(255,0,0);stroke-width:2" />

	<circle cx = "552" cy = "224" r = "2" stroke = "black" stroke-width = "3" />
1
	<line x1 = "544" y1 = "986" x2 = "517" y2 = "998" style="stroke:rgb(255,0,0);stroke-width:2" />

	<line x1 = "517" y1 = "998" x2 = "505" y2 = "971" style="stroke:rgb(255,0,0);stroke-width:2" />

	<line x1 = "505" y1 = "971" x2 = "532" y2 = "959" style="stroke:rgb(255,0,0);stroke-width:2" />

	<line x1 = "544" y1 = "986" x2 = "532" y2 = "959" style="stroke:rgb(255,0,0);stroke-width:2" />

	<circle cx = "525" cy = "979" r = "2" stroke = "black" stroke-width = "3" />
1
	<line x1 = "1718" y1 = "636" x2 = "1734" y2 = "611" style="stroke:rgb(255,0,0);stroke-width:2" />

	<line x1 = "1734" y1 = "611" x2 = "1759" y2 = "627" style="stroke:rgb(255,0,0);stroke-width:2" />

	<line x1 = "1759" y1 = "627" x2 = "1743" y2 = "652" style="stroke:rgb(255,0,0);stroke-width:2" />

	<line x1 = "1718" y1 = "636" x2 = "1743" y2 = "652" style="stroke:rgb(255,0,0);stroke-width:2" />

	<circle cx = "1739" cy = "632" r = "2" stroke = "black" stroke-width = "3" />
1
	<line x1 = "624" y1 = "1035" x2 = "627" y2 = "1065" style="stroke:rgb(255,0,0);stroke-width:2" />

	<line x1 = "627" y1 = "1065" x2 = "597" y2 = "1068" style="stroke:rgb(255,0,0);stroke-width:2" />

	<line x1 = "597" y1 = "1068" x2 = "594" y2 = "1038" style="stroke:rgb(255,0,0);stroke-width:2" />

	<line x1 = "624" y1 = "1035" x2 = "594" y2 = "1038" style="stroke:rgb(255,0,0);stroke-width:2" />

	<circle cx = "611" cy = "1052" r = "2" stroke = "black" stroke-width = "3" />
1
	<line x1 = "156" y1 = "190" x2 = "175" y2 = "166" style="stroke:rgb(255,0,0);stroke-width:2" />

	<line x1 = "175" y1 = "166" x2 = "199" y2 = "185" style="stroke:rgb(255,0,0);stroke-width:2" />

	<line x1 = "199" y1 = "185" x2 = "180" y2 = "209" style="stroke:rgb(255,0,0);stroke-width:2" />

	<line x1 = "156" y1 = "190" x2 = "180" y2 = "209" style="stroke:rgb(255,0,0);stroke-width:2" />

	<circle cx = "178" cy = "188" r = "2" stroke = "black" stroke-width = "3" />
1
	<line x1 = "1139" y1 = "470" x2 = "1149" y2 = "487" style="stroke:rgb(255,0,0);stroke-width:2" />

	<line x1 = "1149" y1 = "487" x2 = "1132" y2 = "497" style="stroke:rgb(255,0,0);stroke-width:2" />

	<line x1 = "1132" y1 = "497" x2 = "1122" y2 = "480" style="stroke:rgb(255,0,0);stroke-width:2" />

	<line x1 = "1139" y1 = "470" x2 = "1122" y2 = "480" style="stroke:rgb(255,0,0);stroke-width:2" />

	<circle cx = "1136" cy = "484" r = "2" stroke = "black" stroke-width = "3" />
1
	<line x1 = "534" y1 = "407" x2 = "552" y2 = "416" style="stroke:rgb(255,0,0);stroke-width:2" />

	<line x1 = "552" y1 = "416" x2 = "543" y2 = "434" style="stroke:rgb(255,0,0);stroke-width:2" />

	<line x1 = "543" y1 = "434" x2 = "525" y2 = "425" style="stroke:rgb(255,0,0);stroke-width:2" />

	<line x1 = "534" y1 = "407" x2 = "525" y2 = "425" style="stroke:rgb(255,0,0);stroke-width:2" />

	<circle cx = "539" cy = "421" r = "2" stroke = "black" stroke-width = "3" />
1
	<line x1 = "1176" y1 = "518" x2 = "1186" y2 = "501" style="stroke:rgb(255,0,0);stroke-width:2" />

	<line x1 = "1186" y1 = "501" x2 = "1203" y2 = "511" style="stroke:rgb(255,0,0);stroke-width:2" />

	<line x1 = "1203" y1 = "511" x2 = "1193" y2 = "528" style="stroke:rgb(255,0,0);stroke-width:2" />

	<line x1 = "1176" y1 = "518" x2 = "1193" y2 = "528" style="stroke:rgb(255,0,0);stroke-width:2" />

	<circle cx = "1190" cy = "515" r = "2" stroke = "black" stroke-width = "3" />
1
	<line x1 = "620" y1 = "664" x2 = "604" y2 = "651" style="stroke:rgb(255,0,0);stroke-width:2" />

	<line x1 = "604" y1 = "651" x2 = "617" y2 = "635" style="stroke:rgb(255,0,0);stroke-width:2" />

	<line x1 = "617" y1 = "635" x2 = "633" y2 = "648" style="stroke:rgb(255,0,0);stroke-width:2" />

	<line x1 = "620" y1 = "664" x2 = "633" y2 = "648" style="stroke:rgb(255,0,0);stroke-width:2" />

	<circle cx = "619" cy = "650" r = "2" stroke = "black" stroke-width = "3" />
1
	<line x1 = "1217" y1 = "605" x2 = "1213" y2 = "624" style="stroke:rgb(255,0,0);stroke-width:2" />

	<line x1 = "1213" y1 = "624" x2 = "1194" y2 = "620" style="stroke:rgb(255,0,0);stroke-width:2" />

	<line x1 = "1194" y1 = "620" x2 = "1198" y2 = "601" style="stroke:rgb(255,0,0);stroke-width:2" />

	<line x1 = "1217" y1 = "605" x2 = "1198" y2 = "601" style="stroke:rgb(255,0,0);stroke-width:2" />

	<circle cx = "1206" cy = "613" r = "2" stroke = "black" stroke-width = "3" />
1
	<line x1 = "799" y1 = "1077" x2 = "808" y2 = "1095" style="stroke:rgb(255,0,0);stroke-width:2" />

	<line x1 = "808" y1 = "1095" x2 = "790" y2 = "1104" style="stroke:rgb(255,0,0);stroke-width:2" />

	<line x1 = "790" y1 = "1104" x2 = "781" y2 = "1086" style="stroke:rgb(255,0,0);stroke-width:2" />

	<line x1 = "799" y1 = "1077" x2 = "781" y2 = "1086" style="stroke:rgb(255,0,0);stroke-width:2" />

	<circle cx = "795" cy = "1091" r = "2" stroke = "black" stroke-width = "3" />
1
	<line x1 = "1102" y1 = "488" x2 = "1122" y2 = "487" style="stroke:rgb(255,0,0);stroke-width:2" />

	<line x1 = "1122" y1 = "487" x2 = "1123" y2 = "507" style="stroke:rgb(255,0,0);stroke-width:2" />

	<line x1 = "1123" y1 = "507" x2 = "1103" y2 = "508" style="stroke:rgb(255,0,0);stroke-width:2" />

	<line x1 = "1102" y1 = "488" x2 = "1103" y2 = "508" style="stroke:rgb(255,0,0);stroke-width:2" />

	<circle cx = "1113" cy = "498" r = "2" stroke = "black" stroke-width = "3" />
1
	<line x1 = "327" y1 = "593" x2 = "313" y2 = "608" style="stroke:rgb(255,0,0);stroke-width:2" />

	<line x1 = "313" y1 = "608" x2 = "298" y2 = "594" style="stroke:rgb(255,0,0);stroke-width:2" />

	<line x1 = "298" y1 = "594" x2 = "312" y2 = "579" style="stroke:rgb(255,0,0);stroke-width:2" />

	<line x1 = "327" y1 = "593" x2 = "312" y2 = "579" style="stroke:rgb(255,0,0);stroke-width:2" />

	<circle cx = "313" cy = "594" r = "2" stroke = "black" stroke-width = "3" />
1
	<line x1 = "533" y1 = "434" x2 = "548" y2 = "448" style="stroke:rgb(255,0,0);stroke-width:2" />

	<line x1 = "548" y1 = "448" x2 = "534" y2 = "463" style="stroke:rgb(255,0,0);stroke-width:2" />

	<line x1 = "534" y1 = "463" x2 = "519" y2 = "449" style="stroke:rgb(255,0,0);stroke-width:2" />

	<line x1 = "533" y1 = "434" x2 = "519" y2 = "449" style="stroke:rgb(255,0,0);stroke-width:2" />

	<circle cx = "534" cy = "449" r = "2" stroke = "black" stroke-width = "3" />
1
	<line x1 = "735" y1 = "391" x2 = "729" y2 = "372" style="stroke:rgb(255,0,0);stroke-width:2" />

	<line x1 = "729" y1 = "372" x2 = "748" y2 = "366" style="stroke:rgb(255,0,0);stroke-width:2" />

	<line x1 = "748" y1 = "366" x2 = "754" y2 = "385" style="stroke:rgb(255,0,0);stroke-width:2" />

	<line x1 = "735" y1 = "391" x2 = "754" y2 = "385" style="stroke:rgb(255,0,0);stroke-width:2" />

	<circle cx = "742" cy = "379" r = "2" stroke = "black" stroke-width = "3" />
1
	<line x1 = "235" y1 = "174" x2 = "225" y2 = "157" style="stroke:rgb(255,0,0);stroke-width:2" />

	<line x1 = "225" y1 = "157" x2 = "242" y2 = "147" style="stroke:rgb(255,0,0);stroke-width:2" />

	<line x1 = "242" y1 = "147" x2 = "252" y2 = "164" style="stroke:rgb(255,0,0);stroke-width:2" />

	<line x1 = "235" y1 = "174" x2 = "252" y2 = "164" style="stroke:rgb(255,0,0);stroke-width:2" />

	<circle cx = "239" cy = "161" r = "2" stroke = "black" stroke-width = "3" />
1
	<line x1 = "308" y1 = "531" x2 = "297" y2 = "515" style="stroke:rgb(255,0,0);stroke-width:2" />

	<line x1 = "297" y1 = "515" x2 = "313" y2 = "504" style="stroke:rgb(255,0,0);stroke-width:2" />

	<line x1 = "313" y1 = "504" x2 = "324" y2 = "520" style="stroke:rgb(255,0,0);stroke-width:2" />

	<line x1 = "308" y1 = "531" x2 = "324" y2 = "520" style="stroke:rgb(255,0,0);stroke-width:2" />

	<circle cx = "311" cy = "518" r = "2" stroke = "black" stroke-width = "3" />
1
	<line x1 = "540" y1 = "210" x2 = "521" y2 = "208" style="stroke:rgb(255,0,0);stroke-width:2" />

	<line x1 = "521" y1 = "208" x2 = "523" y2 = "189" style="stroke:rgb(255,0,0);stroke-width:2" />

	<line x1 = "523" y1 = "189" x2 = "542" y2 = "191" style="stroke:rgb(255,0,0);stroke-width:2" />

	<line x1 = "540" y1 = "210" x2 = "542" y2 = "191" style="stroke:rgb(255,0,0);stroke-width:2" />

	<circle cx = "532" cy = "200" r = "2" stroke = "black" stroke-width = "3" />
1
	<line x1 = "678" y1 = "655" x2 = "677" y2 = "635" style="stroke:rgb(255,0,0);stroke-width:2" />

	<line x1 = "677" y1 = "635" x2 = "697" y2 = "634" style="stroke:rgb(255,0,0);stroke-width:2" />

	<line x1 = "697" y1 = "634" x2 = "698" y2 = "654" style="stroke:rgb(255,0,0);stroke-width:2" />

	<line x1 = "678" y1 = "655" x2 = "698" y2 = "654" style="stroke:rgb(255,0,0);stroke-width:2" />

	<circle cx = "688" cy = "645" r = "2" stroke = "black" stroke-width = "3" />
1
	<line x1 = "522" y1 = "143" x2 = "503" y2 = "149" style="stroke:rgb(255,0,0);stroke-width:2" />

	<line x1 = "503" y1 = "149" x2 = "497" y2 = "130" style="stroke:rgb(255,0,0);stroke-width:2" />

	<line x1 = "497" y1 = "130" x2 = "516" y2 = "124" style="stroke:rgb(255,0,0);stroke-width:2" />

	<line x1 = "522" y1 = "143" x2 = "516" y2 = "124" style="stroke:rgb(255,0,0);stroke-width:2" />

	<circle cx = "510" cy = "137" r = "2" stroke = "black" stroke-width = "3" />
1
	<line x1 = "838" y1 = "998" x2 = "827" y2 = "1014" style="stroke:rgb(255,0,0);stroke-width:2" />

	<line x1 = "827" y1 = "1014" x2 = "811" y2 = "1003" style="stroke:rgb(255,0,0);stroke-width:2" />

	<line x1 = "811" y1 = "1003" x2 = "822" y2 = "987" style="stroke:rgb(255,0,0);stroke-width:2" />

	<line x1 = "838" y1 = "998" x2 = "822" y2 = "987" style="stroke:rgb(255,0,0);stroke-width:2" />

	<circle cx = "825" cy = "1001" r = "2" stroke = "black" stroke-width = "3" />
1
	<line x1 = "586" y1 = "1019" x2 = "595" y2 = "1037" style="stroke:rgb(255,0,0);stroke-width:2" />

	<line x1 = "595" y1 = "1037" x2 = "577" y2 = "1046" style="stroke:rgb(255,0,0);stroke-width:2" />

	<line x1 = "577" y1 = "1046" x2 = "568" y2 = "1028" style="stroke:rgb(255,0,0);stroke-width:2" />

	<line x1 = "586" y1 = "1019" x2 = "568" y2 = "1028" style="stroke:rgb(255,0,0);stroke-width:2" />

	<circle cx = "582" cy = "1033" r = "2" stroke = "black" stroke-width = "3" />
1
	<line x1 = "288" y1 = "117" x2 = "304" y2 = "106" style="stroke:rgb(255,0,0);stroke-width:2" />

	<line x1 = "304" y1 = "106" x2 = "315" y2 = "122" style="stroke:rgb(255,0,0);stroke-width:2" />

	<line x1 = "315" y1 = "122" x2 = "299" y2 = "133" style="stroke:rgb(255,0,0);stroke-width:2" />

	<line x1 = "288" y1 = "117" x2 = "299" y2 = "133" style="stroke:rgb(255,0,0);stroke-width:2" />

	<circle cx = "302" cy = "120" r = "2" stroke = "black" stroke-width = "3" />
1
	<line x1 = "439" y1 = "84" x2 = "454" y2 = "98" style="stroke:rgb(255,0,0);stroke-width:2" />

	<line x1 = "454" y1 = "98" x2 = "440" y2 = "113" style="stroke:rgb(255,0,0);stroke-width:2" />

	<line x1 = "440" y1 = "113" x2 = "425" y2 = "99" style="stroke:rgb(255,0,0);stroke-width:2" />

	<line x1 = "439" y1 = "84" x2 = "425" y2 = "99" style="stroke:rgb(255,0,0);stroke-width:2" />

	<circle cx = "440" cy = "99" r = "2" stroke = "black" stroke-width = "3" />
1
	<line x1 = "552" y1 = "1015" x2 = "532" y2 = "1014" style="stroke:rgb(255,0,0);stroke-width:2" />

	<line x1 = "532" y1 = "1014" x2 = "533" y2 = "994" style="stroke:rgb(255,0,0);stroke-width:2" />

	<line x1 = "533" y1 = "994" x2 = "553" y2 = "995" style="stroke:rgb(255,0,0);stroke-width:2" />

	<line x1 = "552" y1 = "1015" x2 = "553" y2 = "995" style="stroke:rgb(255,0,0);stroke-width:2" />

	<circle cx = "543" cy = "1005" r = "2" stroke = "black" stroke-width = "3" />
1</svg>
