<svg xmlns="http://www.w3.org/2000/svg" version="1.1" height="1000" width="1000">

	<line x1 = "550" y1 = "359" x2 = "722" y2 = "462" style="stroke:rgb(255,0,0);stroke-width:2" />

	<line x1 = "722" y1 = "462" x2 = "619" y2 = "633" style="stroke:rgb(255,0,0);stroke-width:2" />

	<line x1 = "619" y1 = "633" x2 = "447" y2 = "530" style="stroke:rgb(255,0,0);stroke-width:2" />

	<line x1 = "550" y1 = "359" x2 = "447" y2 = "530" style="stroke:rgb(255,0,0);stroke-width:2" />

	<circle cx = "585" cy = "496" r = "2" stroke = "black" stroke-width = "3" />
1
	<line x1 = "1729" y1 = "633" x2 = "1674" y2 = "825" style="stroke:rgb(255,0,0);stroke-width:2" />

	<line x1 = "1674" y1 = "825" x2 = "1482" y2 = "770" style="stroke:rgb(255,0,0);stroke-width:2" />

	<line x1 = "1482" y1 = "770" x2 = "1537" y2 = "578" style="stroke:rgb(255,0,0);stroke-width:2" />

	<line x1 = "1729" y1 = "633" x2 = "1537" y2 = "578" style="stroke:rgb(255,0,0);stroke-width:2" />

	<circle cx = "1605" cy = "701" r = "2" stroke = "black" stroke-width = "3" />
1
	<line x1 = "1229" y1 = "320" x2 = "1310" y2 = "503" style="stroke:rgb(255,0,0);stroke-width:2" />

	<line x1 = "1310" y1 = "503" x2 = "1128" y2 = "584" style="stroke:rgb(255,0,0);stroke-width:2" />

	<line x1 = "1128" y1 = "584" x2 = "1046" y2 = "402" style="stroke:rgb(255,0,0);stroke-width:2" />

	<line x1 = "1229" y1 = "320" x2 = "1046" y2 = "402" style="stroke:rgb(255,0,0);stroke-width:2" />

	<circle cx = "1178" cy = "452" r = "2" stroke = "black" stroke-width = "3" />
1
	<line x1 = "618" y1 = "858" x2 = "419" y2 = "876" style="stroke:rgb(255,0,0);stroke-width:2" />

	<line x1 = "419" y1 = "876" x2 = "401" y2 = "677" style="stroke:rgb(255,0,0);stroke-width:2" />

	<line x1 = "401" y1 = "677" x2 = "600" y2 = "659" style="stroke:rgb(255,0,0);stroke-width:2" />

	<line x1 = "618" y1 = "858" x2 = "600" y2 = "659" style="stroke:rgb(255,0,0);stroke-width:2" />

	<circle cx = "510" cy = "768" r = "2" stroke = "black" stroke-width = "3" />
1
	<line x1 = "881" y1 = "1280" x2 = "978" y2 = "1106" style="stroke:rgb(255,0,0);stroke-width:2" />

	<line x1 = "978" y1 = "1106" x2 = "1152" y2 = "1203" style="stroke:rgb(255,0,0);stroke-width:2" />

	<line x1 = "1152" y1 = "1203" x2 = "1055" y2 = "1377" style="stroke:rgb(255,0,0);stroke-width:2" />

	<line x1 = "881" y1 = "1280" x2 = "1055" y2 = "1377" style="stroke:rgb(255,0,0);stroke-width:2" />

	<circle cx = "1017" cy = "1242" r = "2" stroke = "black" stroke-width = "3" />
1
	<line x1 = "386" y1 = "1120" x2 = "438" y2 = "927" style="stroke:rgb(255,0,0);stroke-width:2" />

	<line x1 = "438" y1 = "927" x2 = "631" y2 = "979" style="stroke:rgb(255,0,0);stroke-width:2" />

	<line x1 = "631" y1 = "979" x2 = "579" y2 = "1172" style="stroke:rgb(255,0,0);stroke-width:2" />

	<line x1 = "386" y1 = "1120" x2 = "579" y2 = "1172" style="stroke:rgb(255,0,0);stroke-width:2" />

	<circle cx = "509" cy = "1050" r = "2" stroke = "black" stroke-width = "3" />
1
	<line x1 = "597" y1 = "2003" x2 = "600" y2 = "1803" style="stroke:rgb(255,0,0);stroke-width:2" />

	<line x1 = "600" y1 = "1803" x2 = "800" y2 = "1806" style="stroke:rgb(255,0,0);stroke-width:2" />

	<line x1 = "800" y1 = "1806" x2 = "797" y2 = "2006" style="stroke:rgb(255,0,0);stroke-width:2" />

	<line x1 = "597" y1 = "2003" x2 = "797" y2 = "2006" style="stroke:rgb(255,0,0);stroke-width:2" />

	<circle cx = "699" cy = "1905" r = "2" stroke = "black" stroke-width = "3" />
1
	<line x1 = "914" y1 = "861" x2 = "722" y2 = "916" style="stroke:rgb(255,0,0);stroke-width:2" />

	<line x1 = "722" y1 = "916" x2 = "667" y2 = "724" style="stroke:rgb(255,0,0);stroke-width:2" />

	<line x1 = "667" y1 = "724" x2 = "859" y2 = "669" style="stroke:rgb(255,0,0);stroke-width:2" />

	<line x1 = "914" y1 = "861" x2 = "859" y2 = "669" style="stroke:rgb(255,0,0);stroke-width:2" />

	<circle cx = "791" cy = "793" r = "2" stroke = "black" stroke-width = "3" />
1
	<line x1 = "548" y1 = "346" x2 = "461" y2 = "166" style="stroke:rgb(255,0,0);stroke-width:2" />

	<line x1 = "461" y1 = "166" x2 = "641" y2 = "79" style="stroke:rgb(255,0,0);stroke-width:2" />

	<line x1 = "641" y1 = "79" x2 = "728" y2 = "259" style="stroke:rgb(255,0,0);stroke-width:2" />

	<line x1 = "548" y1 = "346" x2 = "728" y2 = "259" style="stroke:rgb(255,0,0);stroke-width:2" />

	<circle cx = "595" cy = "213" r = "2" stroke = "black" stroke-width = "3" />
1
	<line x1 = "815" y1 = "614" x2 = "736" y2 = "430" style="stroke:rgb(255,0,0);stroke-width:2" />

	<line x1 = "736" y1 = "430" x2 = "920" y2 = "351" style="stroke:rgb(255,0,0);stroke-width:2" />

	<line x1 = "920" y1 = "351" x2 = "999" y2 = "535" style="stroke:rgb(255,0,0);stroke-width:2" />

	<line x1 = "815" y1 = "614" x2 = "999" y2 = "535" style="stroke:rgb(255,0,0);stroke-width:2" />

	<circle cx = "868" cy = "483" r = "2" stroke = "black" stroke-width = "3" />
1
	<line x1 = "754" y1 = "585" x2 = "712" y2 = "612" style="stroke:rgb(255,0,0);stroke-width:2" />

	<line x1 = "712" y1 = "612" x2 = "685" y2 = "570" style="stroke:rgb(255,0,0);stroke-width:2" />

	<line x1 = "685" y1 = "570" x2 = "727" y2 = "543" style="stroke:rgb(255,0,0);stroke-width:2" />

	<line x1 = "754" y1 = "585" x2 = "727" y2 = "543" style="stroke:rgb(255,0,0);stroke-width:2" />

	<circle cx = "720" cy = "578" r = "2" stroke = "black" stroke-width = "3" />
1
	<line x1 = "1502" y1 = "1085" x2 = "1456" y2 = "1106" style="stroke:rgb(255,0,0);stroke-width:2" />

	<line x1 = "1456" y1 = "1106" x2 = "1435" y2 = "1060" style="stroke:rgb(255,0,0);stroke-width:2" />

	<line x1 = "1435" y1 = "1060" x2 = "1481" y2 = "1039" style="stroke:rgb(255,0,0);stroke-width:2" />

	<line x1 = "1502" y1 = "1085" x2 = "1481" y2 = "1039" style="stroke:rgb(255,0,0);stroke-width:2" />

	<circle cx = "1469" cy = "1073" r = "2" stroke = "black" stroke-width = "3" />
1
	<line x1 = "1479" y1 = "910" x2 = "1431" y2 = "925" style="stroke:rgb(255,0,0);stroke-width:2" />

	<line x1 = "1431" y1 = "925" x2 = "1416" y2 = "877" style="stroke:rgb(255,0,0);stroke-width:2" />

	<line x1 = "1416" y1 = "877" x2 = "1464" y2 = "862" style="stroke:rgb(255,0,0);stroke-width:2" />

	<line x1 = "1479" y1 = "910" x2 = "1464" y2 = "862" style="stroke:rgb(255,0,0);stroke-width:2" />

	<circle cx = "1448" cy = "894" r = "2" stroke = "black" stroke-width = "3" />
1
	<line x1 = "676" y1 = "703" x2 = "638" y2 = "736" style="stroke:rgb(255,0,0);stroke-width:2" />

	<line x1 = "638" y1 = "736" x2 = "605" y2 = "698" style="stroke:rgb(255,0,0);stroke-width:2" />

	<line x1 = "605" y1 = "698" x2 = "643" y2 = "665" style="stroke:rgb(255,0,0);stroke-width:2" />

	<line x1 = "676" y1 = "703" x2 = "643" y2 = "665" style="stroke:rgb(255,0,0);stroke-width:2" />

	<circle cx = "641" cy = "701" r = "2" stroke = "black" stroke-width = "3" />
1
	<line x1 = "488" y1 = "558" x2 = "528" y2 = "587" style="stroke:rgb(255,0,0);stroke-width:2" />

	<line x1 = "528" y1 = "587" x2 = "499" y2 = "627" style="stroke:rgb(255,0,0);stroke-width:2" />

	<line x1 = "499" y1 = "627" x2 = "459" y2 = "598" style="stroke:rgb(255,0,0);stroke-width:2" />

	<line x1 = "488" y1 = "558" x2 = "459" y2 = "598" style="stroke:rgb(255,0,0);stroke-width:2" />

	<circle cx = "494" cy = "593" r = "2" stroke = "black" stroke-width = "3" />
1
	<line x1 = "1464" y1 = "1110" x2 = "1506" y2 = "1083" style="stroke:rgb(255,0,0);stroke-width:2" />

	<line x1 = "1506" y1 = "1083" x2 = "1533" y2 = "1125" style="stroke:rgb(255,0,0);stroke-width:2" />

	<line x1 = "1533" y1 = "1125" x2 = "1491" y2 = "1152" style="stroke:rgb(255,0,0);stroke-width:2" />

	<line x1 = "1464" y1 = "1110" x2 = "1491" y2 = "1152" style="stroke:rgb(255,0,0);stroke-width:2" />

	<circle cx = "1499" cy = "1118" r = "2" stroke = "black" stroke-width = "3" />
1
	<line x1 = "254" y1 = "393" x2 = "299" y2 = "415" style="stroke:rgb(255,0,0);stroke-width:2" />

	<line x1 = "299" y1 = "415" x2 = "277" y2 = "459" style="stroke:rgb(255,0,0);stroke-width:2" />

	<line x1 = "277" y1 = "459" x2 = "232" y2 = "438" style="stroke:rgb(255,0,0);stroke-width:2" />

	<line x1 = "254" y1 = "393" x2 = "232" y2 = "438" style="stroke:rgb(255,0,0);stroke-width:2" />

	<circle cx = "266" cy = "426" r = "2" stroke = "black" stroke-width = "3" />
1
	<line x1 = "1089" y1 = "718" x2 = "1047" y2 = "745" style="stroke:rgb(255,0,0);stroke-width:2" />

	<line x1 = "1047" y1 = "745" x2 = "1020" y2 = "703" style="stroke:rgb(255,0,0);stroke-width:2" />

	<line x1 = "1020" y1 = "703" x2 = "1062" y2 = "676" style="stroke:rgb(255,0,0);stroke-width:2" />

	<line x1 = "1089" y1 = "718" x2 = "1062" y2 = "676" style="stroke:rgb(255,0,0);stroke-width:2" />

	<circle cx = "1055" cy = "711" r = "2" stroke = "black" stroke-width = "3" />
1
	<line x1 = "435" y1 = "559" x2 = "434" y2 = "609" style="stroke:rgb(255,0,0);stroke-width:2" />

	<line x1 = "434" y1 = "609" x2 = "384" y2 = "608" style="stroke:rgb(255,0,0);stroke-width:2" />

	<line x1 = "384" y1 = "608" x2 = "385" y2 = "558" style="stroke:rgb(255,0,0);stroke-width:2" />

	<line x1 = "435" y1 = "559" x2 = "385" y2 = "558" style="stroke:rgb(255,0,0);stroke-width:2" />

	<circle cx = "409" cy = "583" r = "2" stroke = "black" stroke-width = "3" />
1
	<line x1 = "1002" y1 = "742" x2 = "954" y2 = "729" style="stroke:rgb(255,0,0);stroke-width:2" />

	<line x1 = "954" y1 = "729" x2 = "967" y2 = "681" style="stroke:rgb(255,0,0);stroke-width:2" />

	<line x1 = "967" y1 = "681" x2 = "1015" y2 = "694" style="stroke:rgb(255,0,0);stroke-width:2" />

	<line x1 = "1002" y1 = "742" x2 = "1015" y2 = "694" style="stroke:rgb(255,0,0);stroke-width:2" />

	<circle cx = "985" cy = "712" r = "2" stroke = "black" stroke-width = "3" />
1
	<line x1 = "1229" y1 = "1328" x2 = "1181" y2 = "1317" style="stroke:rgb(255,0,0);stroke-width:2" />

	<line x1 = "1181" y1 = "1317" x2 = "1192" y2 = "1269" style="stroke:rgb(255,0,0);stroke-width:2" />

	<line x1 = "1192" y1 = "1269" x2 = "1240" y2 = "1280" style="stroke:rgb(255,0,0);stroke-width:2" />

	<line x1 = "1229" y1 = "1328" x2 = "1240" y2 = "1280" style="stroke:rgb(255,0,0);stroke-width:2" />

	<circle cx = "1211" cy = "1299" r = "2" stroke = "black" stroke-width = "3" />
1
	<line x1 = "375" y1 = "599" x2 = "346" y2 = "640" style="stroke:rgb(255,0,0);stroke-width:2" />

	<line x1 = "346" y1 = "640" x2 = "306" y2 = "610" style="stroke:rgb(255,0,0);stroke-width:2" />

	<line x1 = "306" y1 = "610" x2 = "335" y2 = "570" style="stroke:rgb(255,0,0);stroke-width:2" />

	<line x1 = "375" y1 = "599" x2 = "335" y2 = "570" style="stroke:rgb(255,0,0);stroke-width:2" />

	<circle cx = "341" cy = "605" r = "2" stroke = "black" stroke-width = "3" />
1
	<line x1 = "645" y1 = "307" x2 = "693" y2 = "320" style="stroke:rgb(255,0,0);stroke-width:2" />

	<line x1 = "693" y1 = "320" x2 = "680" y2 = "368" style="stroke:rgb(255,0,0);stroke-width:2" />

	<line x1 = "680" y1 = "368" x2 = "632" y2 = "355" style="stroke:rgb(255,0,0);stroke-width:2" />

	<line x1 = "645" y1 = "307" x2 = "632" y2 = "355" style="stroke:rgb(255,0,0);stroke-width:2" />

	<circle cx = "663" cy = "338" r = "2" stroke = "black" stroke-width = "3" />
1
	<line x1 = "1201" y1 = "1235" x2 = "1176" y2 = "1279" style="stroke:rgb(255,0,0);stroke-width:2" />

	<line x1 = "1176" y1 = "1279" x2 = "1132" y2 = "1254" style="stroke:rgb(255,0,0);stroke-width:2" />

	<line x1 = "1132" y1 = "1254" x2 = "1157" y2 = "1210" style="stroke:rgb(255,0,0);stroke-width:2" />

	<line x1 = "1201" y1 = "1235" x2 = "1157" y2 = "1210" style="stroke:rgb(255,0,0);stroke-width:2" />

	<circle cx = "1167" cy = "1245" r = "2" stroke = "black" stroke-width = "3" />
1
	<line x1 = "364" y1 = "1385" x2 = "350" y2 = "1433" style="stroke:rgb(255,0,0);stroke-width:2" />

	<line x1 = "350" y1 = "1433" x2 = "302" y2 = "1418" style="stroke:rgb(255,0,0);stroke-width:2" />

	<line x1 = "302" y1 = "1418" x2 = "317" y2 = "1370" style="stroke:rgb(255,0,0);stroke-width:2" />

	<line x1 = "364" y1 = "1385" x2 = "317" y2 = "1370" style="stroke:rgb(255,0,0);stroke-width:2" />

	<circle cx = "333" cy = "1402" r = "2" stroke = "black" stroke-width = "3" />
1
	<line x1 = "429" y1 = "306" x2 = "460" y2 = "345" style="stroke:rgb(255,0,0);stroke-width:2" />

	<line x1 = "460" y1 = "345" x2 = "421" y2 = "376" style="stroke:rgb(255,0,0);stroke-width:2" />

	<line x1 = "421" y1 = "376" x2 = "390" y2 = "337" style="stroke:rgb(255,0,0);stroke-width:2" />

	<line x1 = "429" y1 = "306" x2 = "390" y2 = "337" style="stroke:rgb(255,0,0);stroke-width:2" />

	<circle cx = "425" cy = "341" r = "2" stroke = "black" stroke-width = "3" />
1
	<line x1 = "748" y1 = "400" x2 = "710" y2 = "433" style="stroke:rgb(255,0,0);stroke-width:2" />

	<line x1 = "710" y1 = "433" x2 = "677" y2 = "395" style="stroke:rgb(255,0,0);stroke-width:2" />

	<line x1 = "677" y1 = "395" x2 = "715" y2 = "362" style="stroke:rgb(255,0,0);stroke-width:2" />

	<line x1 = "748" y1 = "400" x2 = "715" y2 = "362" style="stroke:rgb(255,0,0);stroke-width:2" />

	<circle cx = "713" cy = "398" r = "2" stroke = "black" stroke-width = "3" />
1
	<line x1 = "434" y1 = "395" x2 = "473" y2 = "426" style="stroke:rgb(255,0,0);stroke-width:2" />

	<line x1 = "473" y1 = "426" x2 = "442" y2 = "465" style="stroke:rgb(255,0,0);stroke-width:2" />

	<line x1 = "442" y1 = "465" x2 = "403" y2 = "434" style="stroke:rgb(255,0,0);stroke-width:2" />

	<line x1 = "434" y1 = "395" x2 = "403" y2 = "434" style="stroke:rgb(255,0,0);stroke-width:2" />

	<circle cx = "438" cy = "430" r = "2" stroke = "black" stroke-width = "3" />
1
	<line x1 = "344" y1 = "403" x2 = "369" y2 = "359" style="stroke:rgb(255,0,0);stroke-width:2" />

	<line x1 = "369" y1 = "359" x2 = "413" y2 = "384" style="stroke:rgb(255,0,0);stroke-width:2" />

	<line x1 = "413" y1 = "384" x2 = "388" y2 = "428" style="stroke:rgb(255,0,0);stroke-width:2" />

	<line x1 = "344" y1 = "403" x2 = "388" y2 = "428" style="stroke:rgb(255,0,0);stroke-width:2" />

	<circle cx = "379" cy = "394" r = "2" stroke = "black" stroke-width = "3" />
1
	<line x1 = "1342" y1 = "1461" x2 = "1315" y2 = "1419" style="stroke:rgb(255,0,0);stroke-width:2" />

	<line x1 = "1315" y1 = "1419" x2 = "1357" y2 = "1392" style="stroke:rgb(255,0,0);stroke-width:2" />

	<line x1 = "1357" y1 = "1392" x2 = "1384" y2 = "1434" style="stroke:rgb(255,0,0);stroke-width:2" />

	<line x1 = "1342" y1 = "1461" x2 = "1384" y2 = "1434" style="stroke:rgb(255,0,0);stroke-width:2" />

	<circle cx = "1350" cy = "1427" r = "2" stroke = "black" stroke-width = "3" />
1</svg>
