<svg xmlns="http://www.w3.org/2000/svg" version="1.1" height="1000" width="1000">

	<line x1 = "256" y1 = "310" x2 = "395" y2 = "454" style="stroke:rgb(255,0,0);stroke-width:2" />

	<line x1 = "395" y1 = "454" x2 = "251" y2 = "593" style="stroke:rgb(255,0,0);stroke-width:2" />

	<line x1 = "251" y1 = "593" x2 = "112" y2 = "449" style="stroke:rgb(255,0,0);stroke-width:2" />

	<line x1 = "256" y1 = "310" x2 = "112" y2 = "449" style="stroke:rgb(255,0,0);stroke-width:2" />

	<circle cx = "253" cy = "452" r = "2" stroke = "black" stroke-width = "3" />
1
	<line x1 = "585" y1 = "545" x2 = "589" y2 = "745" style="stroke:rgb(255,0,0);stroke-width:2" />

	<line x1 = "589" y1 = "745" x2 = "389" y2 = "749" style="stroke:rgb(255,0,0);stroke-width:2" />

	<line x1 = "389" y1 = "749" x2 = "385" y2 = "549" style="stroke:rgb(255,0,0);stroke-width:2" />

	<line x1 = "585" y1 = "545" x2 = "385" y2 = "549" style="stroke:rgb(255,0,0);stroke-width:2" />

	<circle cx = "487" cy = "647" r = "2" stroke = "black" stroke-width = "3" />
1
	<line x1 = "614" y1 = "231" x2 = "552" y2 = "422" style="stroke:rgb(255,0,0);stroke-width:2" />

	<line x1 = "552" y1 = "422" x2 = "361" y2 = "360" style="stroke:rgb(255,0,0);stroke-width:2" />

	<line x1 = "361" y1 = "360" x2 = "423" y2 = "169" style="stroke:rgb(255,0,0);stroke-width:2" />

	<line x1 = "614" y1 = "231" x2 = "423" y2 = "169" style="stroke:rgb(255,0,0);stroke-width:2" />

	<circle cx = "488" cy = "296" r = "2" stroke = "black" stroke-width = "3" />
1
	<line x1 = "680" y1 = "644" x2 = "605" y2 = "458" style="stroke:rgb(255,0,0);stroke-width:2" />

	<line x1 = "605" y1 = "458" x2 = "791" y2 = "383" style="stroke:rgb(255,0,0);stroke-width:2" />

	<line x1 = "791" y1 = "383" x2 = "866" y2 = "569" style="stroke:rgb(255,0,0);stroke-width:2" />

	<line x1 = "680" y1 = "644" x2 = "866" y2 = "569" style="stroke:rgb(255,0,0);stroke-width:2" />

	<circle cx = "736" cy = "514" r = "2" stroke = "black" stroke-width = "3" />
1
	<line x1 = "636" y1 = "949" x2 = "479" y2 = "1073" style="stroke:rgb(255,0,0);stroke-width:2" />

	<line x1 = "479" y1 = "1073" x2 = "355" y2 = "915" style="stroke:rgb(255,0,0);stroke-width:2" />

	<line x1 = "355" y1 = "915" x2 = "513" y2 = "792" style="stroke:rgb(255,0,0);stroke-width:2" />

	<line x1 = "636" y1 = "949" x2 = "513" y2 = "792" style="stroke:rgb(255,0,0);stroke-width:2" />

	<circle cx = "496" cy = "932" r = "2" stroke = "black" stroke-width = "3" />
1
	<line x1 = "1045" y1 = "1066" x2 = "1014" y2 = "868" style="stroke:rgb(255,0,0);stroke-width:2" />

	<line x1 = "1014" y1 = "868" x2 = "1212" y2 = "837" style="stroke:rgb(255,0,0);stroke-width:2" />

	<line x1 = "1212" y1 = "837" x2 = "1243" y2 = "1035" style="stroke:rgb(255,0,0);stroke-width:2" />

	<line x1 = "1045" y1 = "1066" x2 = "1243" y2 = "1035" style="stroke:rgb(255,0,0);stroke-width:2" />

	<circle cx = "1129" cy = "952" r = "2" stroke = "black" stroke-width = "3" />
1
	<line x1 = "1464" y1 = "757" x2 = "1265" y2 = "775" style="stroke:rgb(255,0,0);stroke-width:2" />

	<line x1 = "1265" y1 = "775" x2 = "1247" y2 = "576" style="stroke:rgb(255,0,0);stroke-width:2" />

	<line x1 = "1247" y1 = "576" x2 = "1446" y2 = "558" style="stroke:rgb(255,0,0);stroke-width:2" />

	<line x1 = "1464" y1 = "757" x2 = "1446" y2 = "558" style="stroke:rgb(255,0,0);stroke-width:2" />

	<circle cx = "1356" cy = "667" r = "2" stroke = "black" stroke-width = "3" />
1
	<line x1 = "303" y1 = "277" x2 = "116" y2 = "205" style="stroke:rgb(255,0,0);stroke-width:2" />

	<line x1 = "116" y1 = "205" x2 = "188" y2 = "18" style="stroke:rgb(255,0,0);stroke-width:2" />

	<line x1 = "188" y1 = "18" x2 = "375" y2 = "90" style="stroke:rgb(255,0,0);stroke-width:2" />

	<line x1 = "303" y1 = "277" x2 = "375" y2 = "90" style="stroke:rgb(255,0,0);stroke-width:2" />

	<circle cx = "246" cy = "148" r = "2" stroke = "black" stroke-width = "3" />
1
	<line x1 = "1292" y1 = "1372" x2 = "1127" y2 = "1260" style="stroke:rgb(255,0,0);stroke-width:2" />

	<line x1 = "1127" y1 = "1260" x2 = "1239" y2 = "1095" style="stroke:rgb(255,0,0);stroke-width:2" />

	<line x1 = "1239" y1 = "1095" x2 = "1404" y2 = "1207" style="stroke:rgb(255,0,0);stroke-width:2" />

	<line x1 = "1292" y1 = "1372" x2 = "1404" y2 = "1207" style="stroke:rgb(255,0,0);stroke-width:2" />

	<circle cx = "1266" cy = "1234" r = "2" stroke = "black" stroke-width = "3" />
1
	<line x1 = "1106" y1 = "719" x2 = "913" y2 = "771" style="stroke:rgb(255,0,0);stroke-width:2" />

	<line x1 = "913" y1 = "771" x2 = "861" y2 = "578" style="stroke:rgb(255,0,0);stroke-width:2" />

	<line x1 = "861" y1 = "578" x2 = "1054" y2 = "526" style="stroke:rgb(255,0,0);stroke-width:2" />

	<line x1 = "1106" y1 = "719" x2 = "1054" y2 = "526" style="stroke:rgb(255,0,0);stroke-width:2" />

	<circle cx = "984" cy = "649" r = "2" stroke = "black" stroke-width = "3" />
1
	<line x1 = "892" y1 = "879" x2 = "984" y2 = "918" style="stroke:rgb(255,0,0);stroke-width:2" />

	<line x1 = "984" y1 = "918" x2 = "945" y2 = "1010" style="stroke:rgb(255,0,0);stroke-width:2" />

	<line x1 = "945" y1 = "1010" x2 = "853" y2 = "971" style="stroke:rgb(255,0,0);stroke-width:2" />

	<line x1 = "892" y1 = "879" x2 = "853" y2 = "971" style="stroke:rgb(255,0,0);stroke-width:2" />

	<circle cx = "919" cy = "945" r = "2" stroke = "black" stroke-width = "3" />
1
	<line x1 = "853" y1 = "989" x2 = "775" y2 = "1052" style="stroke:rgb(255,0,0);stroke-width:2" />

	<line x1 = "775" y1 = "1052" x2 = "712" y2 = "974" style="stroke:rgb(255,0,0);stroke-width:2" />

	<line x1 = "712" y1 = "974" x2 = "790" y2 = "911" style="stroke:rgb(255,0,0);stroke-width:2" />

	<line x1 = "853" y1 = "989" x2 = "790" y2 = "911" style="stroke:rgb(255,0,0);stroke-width:2" />

	<circle cx = "783" cy = "982" r = "2" stroke = "black" stroke-width = "3" />
1
	<line x1 = "841" y1 = "1647" x2 = "744" y2 = "1621" style="stroke:rgb(255,0,0);stroke-width:2" />

	<line x1 = "744" y1 = "1621" x2 = "770" y2 = "1524" style="stroke:rgb(255,0,0);stroke-width:2" />

	<line x1 = "770" y1 = "1524" x2 = "867" y2 = "1550" style="stroke:rgb(255,0,0);stroke-width:2" />

	<line x1 = "841" y1 = "1647" x2 = "867" y2 = "1550" style="stroke:rgb(255,0,0);stroke-width:2" />

	<circle cx = "806" cy = "1586" r = "2" stroke = "black" stroke-width = "3" />
1
	<line x1 = "724" y1 = "854" x2 = "779" y2 = "770" style="stroke:rgb(255,0,0);stroke-width:2" />

	<line x1 = "779" y1 = "770" x2 = "863" y2 = "825" style="stroke:rgb(255,0,0);stroke-width:2" />

	<line x1 = "863" y1 = "825" x2 = "808" y2 = "909" style="stroke:rgb(255,0,0);stroke-width:2" />

	<line x1 = "724" y1 = "854" x2 = "808" y2 = "909" style="stroke:rgb(255,0,0);stroke-width:2" />

	<circle cx = "794" cy = "840" r = "2" stroke = "black" stroke-width = "3" />
1
	<line x1 = "1418" y1 = "1437" x2 = "1339" y2 = "1499" style="stroke:rgb(255,0,0);stroke-width:2" />

	<line x1 = "1339" y1 = "1499" x2 = "1277" y2 = "1420" style="stroke:rgb(255,0,0);stroke-width:2" />

	<line x1 = "1277" y1 = "1420" x2 = "1356" y2 = "1358" style="stroke:rgb(255,0,0);stroke-width:2" />

	<line x1 = "1418" y1 = "1437" x2 = "1356" y2 = "1358" style="stroke:rgb(255,0,0);stroke-width:2" />

	<circle cx = "1348" cy = "1429" r = "2" stroke = "black" stroke-width = "3" />
1
	<line x1 = "244" y1 = "633" x2 = "332" y2 = "586" style="stroke:rgb(255,0,0);stroke-width:2" />

	<line x1 = "332" y1 = "586" x2 = "379" y2 = "674" style="stroke:rgb(255,0,0);stroke-width:2" />

	<line x1 = "379" y1 = "674" x2 = "291" y2 = "721" style="stroke:rgb(255,0,0);stroke-width:2" />

	<line x1 = "244" y1 = "633" x2 = "291" y2 = "721" style="stroke:rgb(255,0,0);stroke-width:2" />

	<circle cx = "312" cy = "654" r = "2" stroke = "black" stroke-width = "3" />
1
	<line x1 = "1003" y1 = "436" x2 = "905" y2 = "455" style="stroke:rgb(255,0,0);stroke-width:2" />

	<line x1 = "905" y1 = "455" x2 = "886" y2 = "357" style="stroke:rgb(255,0,0);stroke-width:2" />

	<line x1 = "886" y1 = "357" x2 = "984" y2 = "338" style="stroke:rgb(255,0,0);stroke-width:2" />

	<line x1 = "1003" y1 = "436" x2 = "984" y2 = "338" style="stroke:rgb(255,0,0);stroke-width:2" />

	<circle cx = "944" cy = "397" r = "2" stroke = "black" stroke-width = "3" />
1
	<line x1 = "603" y1 = "845" x2 = "586" y2 = "747" style="stroke:rgb(255,0,0);stroke-width:2" />

	<line x1 = "586" y1 = "747" x2 = "684" y2 = "730" style="stroke:rgb(255,0,0);stroke-width:2" />

	<line x1 = "684" y1 = "730" x2 = "701" y2 = "828" style="stroke:rgb(255,0,0);stroke-width:2" />

	<line x1 = "603" y1 = "845" x2 = "701" y2 = "828" style="stroke:rgb(255,0,0);stroke-width:2" />

	<circle cx = "644" cy = "788" r = "2" stroke = "black" stroke-width = "3" />
1
	<line x1 = "651" y1 = "1163" x2 = "725" y2 = "1096" style="stroke:rgb(255,0,0);stroke-width:2" />

	<line x1 = "725" y1 = "1096" x2 = "792" y2 = "1170" style="stroke:rgb(255,0,0);stroke-width:2" />

	<line x1 = "792" y1 = "1170" x2 = "718" y2 = "1237" style="stroke:rgb(255,0,0);stroke-width:2" />

	<line x1 = "651" y1 = "1163" x2 = "718" y2 = "1237" style="stroke:rgb(255,0,0);stroke-width:2" />

	<circle cx = "722" cy = "1167" r = "2" stroke = "black" stroke-width = "3" />
1
	<line x1 = "1683" y1 = "1766" x2 = "1764" y2 = "1824" style="stroke:rgb(255,0,0);stroke-width:2" />

	<line x1 = "1764" y1 = "1824" x2 = "1706" y2 = "1905" style="stroke:rgb(255,0,0);stroke-width:2" />

	<line x1 = "1706" y1 = "1905" x2 = "1625" y2 = "1847" style="stroke:rgb(255,0,0);stroke-width:2" />

	<line x1 = "1683" y1 = "1766" x2 = "1625" y2 = "1847" style="stroke:rgb(255,0,0);stroke-width:2" />

	<circle cx = "1695" cy = "1836" r = "2" stroke = "black" stroke-width = "3" />
1
	<line x1 = "344" y1 = "311" x2 = "301" y2 = "337" style="stroke:rgb(255,0,0);stroke-width:2" />

	<line x1 = "301" y1 = "337" x2 = "275" y2 = "294" style="stroke:rgb(255,0,0);stroke-width:2" />

	<line x1 = "275" y1 = "294" x2 = "318" y2 = "268" style="stroke:rgb(255,0,0);stroke-width:2" />

	<line x1 = "344" y1 = "311" x2 = "318" y2 = "268" style="stroke:rgb(255,0,0);stroke-width:2" />

	<circle cx = "310" cy = "303" r = "2" stroke = "black" stroke-width = "3" />
1
	<line x1 = "647" y1 = "622" x2 = "654" y2 = "672" style="stroke:rgb(255,0,0);stroke-width:2" />

	<line x1 = "654" y1 = "672" x2 = "604" y2 = "679" style="stroke:rgb(255,0,0);stroke-width:2" />

	<line x1 = "604" y1 = "679" x2 = "597" y2 = "629" style="stroke:rgb(255,0,0);stroke-width:2" />

	<line x1 = "647" y1 = "622" x2 = "597" y2 = "629" style="stroke:rgb(255,0,0);stroke-width:2" />

	<circle cx = "626" cy = "651" r = "2" stroke = "black" stroke-width = "3" />
1
	<line x1 = "325" y1 = "1049" x2 = "351" y2 = "1091" style="stroke:rgb(255,0,0);stroke-width:2" />

	<line x1 = "351" y1 = "1091" x2 = "309" y2 = "1118" style="stroke:rgb(255,0,0);stroke-width:2" />

	<line x1 = "309" y1 = "1118" x2 = "282" y2 = "1075" style="stroke:rgb(255,0,0);stroke-width:2" />

	<line x1 = "325" y1 = "1049" x2 = "282" y2 = "1075" style="stroke:rgb(255,0,0);stroke-width:2" />

	<circle cx = "317" cy = "1083" r = "2" stroke = "black" stroke-width = "3" />
1
	<line x1 = "1202" y1 = "1087" x2 = "1168" y2 = "1124" style="stroke:rgb(255,0,0);stroke-width:2" />

	<line x1 = "1168" y1 = "1124" x2 = "1131" y2 = "1090" style="stroke:rgb(255,0,0);stroke-width:2" />

	<line x1 = "1131" y1 = "1090" x2 = "1165" y2 = "1053" style="stroke:rgb(255,0,0);stroke-width:2" />

	<line x1 = "1202" y1 = "1087" x2 = "1165" y2 = "1053" style="stroke:rgb(255,0,0);stroke-width:2" />

	<circle cx = "1167" cy = "1089" r = "2" stroke = "black" stroke-width = "3" />
1
	<line x1 = "582" y1 = "483" x2 = "532" y2 = "484" style="stroke:rgb(255,0,0);stroke-width:2" />

	<line x1 = "532" y1 = "484" x2 = "531" y2 = "434" style="stroke:rgb(255,0,0);stroke-width:2" />

	<line x1 = "531" y1 = "434" x2 = "581" y2 = "433" style="stroke:rgb(255,0,0);stroke-width:2" />

	<line x1 = "582" y1 = "483" x2 = "581" y2 = "433" style="stroke:rgb(255,0,0);stroke-width:2" />

	<circle cx = "557" cy = "459" r = "2" stroke = "black" stroke-width = "3" />
1
	<line x1 = "522" y1 = "488" x2 = "475" y2 = "506" style="stroke:rgb(255,0,0);stroke-width:2" />

	<line x1 = "475" y1 = "506" x2 = "457" y2 = "459" style="stroke:rgb(255,0,0);stroke-width:2" />

	<line x1 = "457" y1 = "459" x2 = "504" y2 = "441" style="stroke:rgb(255,0,0);stroke-width:2" />

	<line x1 = "522" y1 = "488" x2 = "504" y2 = "441" style="stroke:rgb(255,0,0);stroke-width:2" />

	<circle cx = "490" cy = "474" r = "2" stroke = "black" stroke-width = "3" />
1
	<line x1 = "434" y1 = "403" x2 = "462" y2 = "444" style="stroke:rgb(255,0,0);stroke-width:2" />

	<line x1 = "462" y1 = "444" x2 = "421" y2 = "472" style="stroke:rgb(255,0,0);stroke-width:2" />

	<line x1 = "421" y1 = "472" x2 = "393" y2 = "431" style="stroke:rgb(255,0,0);stroke-width:2" />

	<line x1 = "434" y1 = "403" x2 = "393" y2 = "431" style="stroke:rgb(255,0,0);stroke-width:2" />

	<circle cx = "428" cy = "438" r = "2" stroke = "black" stroke-width = "3" />
1
	<line x1 = "1768" y1 = "598" x2 = "1727" y2 = "627" style="stroke:rgb(255,0,0);stroke-width:2" />

	<line x1 = "1727" y1 = "627" x2 = "1699" y2 = "586" style="stroke:rgb(255,0,0);stroke-width:2" />

	<line x1 = "1699" y1 = "586" x2 = "1740" y2 = "557" style="stroke:rgb(255,0,0);stroke-width:2" />

	<line x1 = "1768" y1 = "598" x2 = "1740" y2 = "557" style="stroke:rgb(255,0,0);stroke-width:2" />

	<circle cx = "1733" cy = "592" r = "2" stroke = "black" stroke-width = "3" />
1
	<line x1 = "1106" y1 = "1590" x2 = "1093" y2 = "1542" style="stroke:rgb(255,0,0);stroke-width:2" />

	<line x1 = "1093" y1 = "1542" x2 = "1141" y2 = "1529" style="stroke:rgb(255,0,0);stroke-width:2" />

	<line x1 = "1141" y1 = "1529" x2 = "1154" y2 = "1577" style="stroke:rgb(255,0,0);stroke-width:2" />

	<line x1 = "1106" y1 = "1590" x2 = "1154" y2 = "1577" style="stroke:rgb(255,0,0);stroke-width:2" />

	<circle cx = "1124" cy = "1560" r = "2" stroke = "black" stroke-width = "3" />
1
	<line x1 = "505" y1 = "1165" x2 = "551" y2 = "1183" style="stroke:rgb(255,0,0);stroke-width:2" />

	<line x1 = "551" y1 = "1183" x2 = "533" y2 = "1230" style="stroke:rgb(255,0,0);stroke-width:2" />

	<line x1 = "533" y1 = "1230" x2 = "487" y2 = "1212" style="stroke:rgb(255,0,0);stroke-width:2" />

	<line x1 = "505" y1 = "1165" x2 = "487" y2 = "1212" style="stroke:rgb(255,0,0);stroke-width:2" />

	<circle cx = "519" cy = "1197" r = "2" stroke = "black" stroke-width = "3" />
1
	<line x1 = "837" y1 = "397" x2 = "793" y2 = "374" style="stroke:rgb(255,0,0);stroke-width:2" />

	<line x1 = "793" y1 = "374" x2 = "816" y2 = "330" style="stroke:rgb(255,0,0);stroke-width:2" />

	<line x1 = "816" y1 = "330" x2 = "860" y2 = "353" style="stroke:rgb(255,0,0);stroke-width:2" />

	<line x1 = "837" y1 = "397" x2 = "860" y2 = "353" style="stroke:rgb(255,0,0);stroke-width:2" />

	<circle cx = "827" cy = "364" r = "2" stroke = "black" stroke-width = "3" />
1
	<line x1 = "758" y1 = "1308" x2 = "748" y2 = "1357" style="stroke:rgb(255,0,0);stroke-width:2" />

	<line x1 = "748" y1 = "1357" x2 = "699" y2 = "1347" style="stroke:rgb(255,0,0);stroke-width:2" />

	<line x1 = "699" y1 = "1347" x2 = "709" y2 = "1298" style="stroke:rgb(255,0,0);stroke-width:2" />

	<line x1 = "758" y1 = "1308" x2 = "709" y2 = "1298" style="stroke:rgb(255,0,0);stroke-width:2" />

	<circle cx = "729" cy = "1328" r = "2" stroke = "black" stroke-width = "3" />
1
	<line x1 = "1182" y1 = "760" x2 = "1230" y2 = "775" style="stroke:rgb(255,0,0);stroke-width:2" />

	<line x1 = "1230" y1 = "775" x2 = "1215" y2 = "823" style="stroke:rgb(255,0,0);stroke-width:2" />

	<line x1 = "1215" y1 = "823" x2 = "1167" y2 = "808" style="stroke:rgb(255,0,0);stroke-width:2" />

	<line x1 = "1182" y1 = "760" x2 = "1167" y2 = "808" style="stroke:rgb(255,0,0);stroke-width:2" />

	<circle cx = "1199" cy = "792" r = "2" stroke = "black" stroke-width = "3" />
1
	<line x1 = "715" y1 = "317" x2 = "679" y2 = "351" style="stroke:rgb(255,0,0);stroke-width:2" />

	<line x1 = "679" y1 = "351" x2 = "645" y2 = "314" style="stroke:rgb(255,0,0);stroke-width:2" />

	<line x1 = "645" y1 = "314" x2 = "681" y2 = "280" style="stroke:rgb(255,0,0);stroke-width:2" />

	<line x1 = "715" y1 = "317" x2 = "681" y2 = "280" style="stroke:rgb(255,0,0);stroke-width:2" />

	<circle cx = "680" cy = "316" r = "2" stroke = "black" stroke-width = "3" />
1
	<line x1 = "1031" y1 = "1594" x2 = "1070" y2 = "1562" style="stroke:rgb(255,0,0);stroke-width:2" />

	<line x1 = "1070" y1 = "1562" x2 = "1102" y2 = "1601" style="stroke:rgb(255,0,0);stroke-width:2" />

	<line x1 = "1102" y1 = "1601" x2 = "1063" y2 = "1633" style="stroke:rgb(255,0,0);stroke-width:2" />

	<line x1 = "1031" y1 = "1594" x2 = "1063" y2 = "1633" style="stroke:rgb(255,0,0);stroke-width:2" />

	<circle cx = "1067" cy = "1598" r = "2" stroke = "black" stroke-width = "3" />
1
	<line x1 = "397" y1 = "785" x2 = "447" y2 = "784" style="stroke:rgb(255,0,0);stroke-width:2" />

	<line x1 = "447" y1 = "784" x2 = "448" y2 = "834" style="stroke:rgb(255,0,0);stroke-width:2" />

	<line x1 = "448" y1 = "834" x2 = "398" y2 = "835" style="stroke:rgb(255,0,0);stroke-width:2" />

	<line x1 = "397" y1 = "785" x2 = "398" y2 = "835" style="stroke:rgb(255,0,0);stroke-width:2" />

	<circle cx = "423" cy = "810" r = "2" stroke = "black" stroke-width = "3" />
1
	<line x1 = "348" y1 = "900" x2 = "300" y2 = "887" style="stroke:rgb(255,0,0);stroke-width:2" />

	<line x1 = "300" y1 = "887" x2 = "313" y2 = "839" style="stroke:rgb(255,0,0);stroke-width:2" />

	<line x1 = "313" y1 = "839" x2 = "361" y2 = "852" style="stroke:rgb(255,0,0);stroke-width:2" />

	<line x1 = "348" y1 = "900" x2 = "361" y2 = "852" style="stroke:rgb(255,0,0);stroke-width:2" />

	<circle cx = "331" cy = "870" r = "2" stroke = "black" stroke-width = "3" />
1
	<line x1 = "462" y1 = "518" x2 = "419" y2 = "542" style="stroke:rgb(255,0,0);stroke-width:2" />

	<line x1 = "419" y1 = "542" x2 = "395" y2 = "499" style="stroke:rgb(255,0,0);stroke-width:2" />

	<line x1 = "395" y1 = "499" x2 = "438" y2 = "475" style="stroke:rgb(255,0,0);stroke-width:2" />

	<line x1 = "462" y1 = "518" x2 = "438" y2 = "475" style="stroke:rgb(255,0,0);stroke-width:2" />

	<circle cx = "429" cy = "509" r = "2" stroke = "black" stroke-width = "3" />
1
	<line x1 = "292" y1 = "807" x2 = "242" y2 = "813" style="stroke:rgb(255,0,0);stroke-width:2" />

	<line x1 = "242" y1 = "813" x2 = "236" y2 = "764" style="stroke:rgb(255,0,0);stroke-width:2" />

	<line x1 = "236" y1 = "764" x2 = "286" y2 = "758" style="stroke:rgb(255,0,0);stroke-width:2" />

	<line x1 = "292" y1 = "807" x2 = "286" y2 = "758" style="stroke:rgb(255,0,0);stroke-width:2" />

	<circle cx = "264" cy = "785" r = "2" stroke = "black" stroke-width = "3" />
1
	<line x1 = "698" y1 = "756" x2 = "732" y2 = "719" style="stroke:rgb(255,0,0);stroke-width:2" />

	<line x1 = "732" y1 = "719" x2 = "769" y2 = "753" style="stroke:rgb(255,0,0);stroke-width:2" />

	<line x1 = "769" y1 = "753" x2 = "735" y2 = "790" style="stroke:rgb(255,0,0);stroke-width:2" />

	<line x1 = "698" y1 = "756" x2 = "735" y2 = "790" style="stroke:rgb(255,0,0);stroke-width:2" />

	<circle cx = "734" cy = "755" r = "2" stroke = "black" stroke-width = "3" />
1</svg>
