<svg xmlns="http://www.w3.org/2000/svg" version="1.1" height="1000" width="1000">

	<line x1 = "683" y1 = "559" x2 = "879" y2 = "600" style="stroke:rgb(255,0,0);stroke-width:2" />

	<line x1 = "879" y1 = "600" x2 = "837" y2 = "796" style="stroke:rgb(255,0,0);stroke-width:2" />

	<line x1 = "837" y1 = "796" x2 = "642" y2 = "754" style="stroke:rgb(255,0,0);stroke-width:2" />

	<line x1 = "683" y1 = "559" x2 = "642" y2 = "754" style="stroke:rgb(255,0,0);stroke-width:2" />

	<circle cx = "760" cy = "677" r = "2" stroke = "black" stroke-width = "3" />
1
	<line x1 = "660" y1 = "444" x2 = "598" y2 = "635" style="stroke:rgb(255,0,0);stroke-width:2" />

	<line x1 = "598" y1 = "635" x2 = "407" y2 = "573" style="stroke:rgb(255,0,0);stroke-width:2" />

	<line x1 = "407" y1 = "573" x2 = "469" y2 = "382" style="stroke:rgb(255,0,0);stroke-width:2" />

	<line x1 = "660" y1 = "444" x2 = "469" y2 = "382" style="stroke:rgb(255,0,0);stroke-width:2" />

	<circle cx = "534" cy = "509" r = "2" stroke = "black" stroke-width = "3" />
1
	<line x1 = "1168" y1 = "569" x2 = "1071" y2 = "743" style="stroke:rgb(255,0,0);stroke-width:2" />

	<line x1 = "1071" y1 = "743" x2 = "897" y2 = "646" style="stroke:rgb(255,0,0);stroke-width:2" />

	<line x1 = "897" y1 = "646" x2 = "994" y2 = "472" style="stroke:rgb(255,0,0);stroke-width:2" />

	<line x1 = "1168" y1 = "569" x2 = "994" y2 = "472" style="stroke:rgb(255,0,0);stroke-width:2" />

	<circle cx = "1033" cy = "608" r = "2" stroke = "black" stroke-width = "3" />
1
	<line x1 = "633" y1 = "940" x2 = "695" y2 = "1130" style="stroke:rgb(255,0,0);stroke-width:2" />

	<line x1 = "695" y1 = "1130" x2 = "505" y2 = "1192" style="stroke:rgb(255,0,0);stroke-width:2" />

	<line x1 = "505" y1 = "1192" x2 = "443" y2 = "1001" style="stroke:rgb(255,0,0);stroke-width:2" />

	<line x1 = "633" y1 = "940" x2 = "443" y2 = "1001" style="stroke:rgb(255,0,0);stroke-width:2" />

	<circle cx = "569" cy = "1066" r = "2" stroke = "black" stroke-width = "3" />
1
	<line x1 = "664" y1 = "314" x2 = "466" y2 = "335" style="stroke:rgb(255,0,0);stroke-width:2" />

	<line x1 = "466" y1 = "335" x2 = "445" y2 = "137" style="stroke:rgb(255,0,0);stroke-width:2" />

	<line x1 = "445" y1 = "137" x2 = "643" y2 = "116" style="stroke:rgb(255,0,0);stroke-width:2" />

	<line x1 = "664" y1 = "314" x2 = "643" y2 = "116" style="stroke:rgb(255,0,0);stroke-width:2" />

	<circle cx = "555" cy = "226" r = "2" stroke = "black" stroke-width = "3" />
1
	<line x1 = "651" y1 = "770" x2 = "539" y2 = "936" style="stroke:rgb(255,0,0);stroke-width:2" />

	<line x1 = "539" y1 = "936" x2 = "373" y2 = "824" style="stroke:rgb(255,0,0);stroke-width:2" />

	<line x1 = "373" y1 = "824" x2 = "485" y2 = "658" style="stroke:rgb(255,0,0);stroke-width:2" />

	<line x1 = "651" y1 = "770" x2 = "485" y2 = "658" style="stroke:rgb(255,0,0);stroke-width:2" />

	<circle cx = "512" cy = "797" r = "2" stroke = "black" stroke-width = "3" />
1
	<line x1 = "1768" y1 = "1258" x2 = "1604" y2 = "1143" style="stroke:rgb(255,0,0);stroke-width:2" />

	<line x1 = "1604" y1 = "1143" x2 = "1719" y2 = "979" style="stroke:rgb(255,0,0);stroke-width:2" />

	<line x1 = "1719" y1 = "979" x2 = "1883" y2 = "1094" style="stroke:rgb(255,0,0);stroke-width:2" />

	<line x1 = "1768" y1 = "1258" x2 = "1883" y2 = "1094" style="stroke:rgb(255,0,0);stroke-width:2" />

	<circle cx = "1744" cy = "1119" r = "2" stroke = "black" stroke-width = "3" />
1
	<line x1 = "1174" y1 = "1578" x2 = "1177" y2 = "1378" style="stroke:rgb(255,0,0);stroke-width:2" />

	<line x1 = "1177" y1 = "1378" x2 = "1377" y2 = "1381" style="stroke:rgb(255,0,0);stroke-width:2" />

	<line x1 = "1377" y1 = "1381" x2 = "1374" y2 = "1581" style="stroke:rgb(255,0,0);stroke-width:2" />

	<line x1 = "1174" y1 = "1578" x2 = "1374" y2 = "1581" style="stroke:rgb(255,0,0);stroke-width:2" />

	<circle cx = "1276" cy = "1480" r = "2" stroke = "black" stroke-width = "3" />
1
	<line x1 = "810" y1 = "1154" x2 = "710" y2 = "981" style="stroke:rgb(255,0,0);stroke-width:2" />

	<line x1 = "710" y1 = "981" x2 = "883" y2 = "881" style="stroke:rgb(255,0,0);stroke-width:2" />

	<line x1 = "883" y1 = "881" x2 = "983" y2 = "1054" style="stroke:rgb(255,0,0);stroke-width:2" />

	<line x1 = "810" y1 = "1154" x2 = "983" y2 = "1054" style="stroke:rgb(255,0,0);stroke-width:2" />

	<circle cx = "847" cy = "1018" r = "2" stroke = "black" stroke-width = "3" />
1
	<line x1 = "900" y1 = "508" x2 = "742" y2 = "385" style="stroke:rgb(255,0,0);stroke-width:2" />

	<line x1 = "742" y1 = "385" x2 = "865" y2 = "227" style="stroke:rgb(255,0,0);stroke-width:2" />

	<line x1 = "865" y1 = "227" x2 = "1023" y2 = "350" style="stroke:rgb(255,0,0);stroke-width:2" />

	<line x1 = "900" y1 = "508" x2 = "1023" y2 = "350" style="stroke:rgb(255,0,0);stroke-width:2" />

	<circle cx = "883" cy = "368" r = "2" stroke = "black" stroke-width = "3" />
1
	<line x1 = "2102" y1 = "1635" x2 = "2133" y2 = "1675" style="stroke:rgb(255,0,0);stroke-width:2" />

	<line x1 = "2133" y1 = "1675" x2 = "2093" y2 = "1705" style="stroke:rgb(255,0,0);stroke-width:2" />

	<line x1 = "2093" y1 = "1705" x2 = "2063" y2 = "1665" style="stroke:rgb(255,0,0);stroke-width:2" />

	<line x1 = "2102" y1 = "1635" x2 = "2063" y2 = "1665" style="stroke:rgb(255,0,0);stroke-width:2" />

	<circle cx = "2098" cy = "1670" r = "2" stroke = "black" stroke-width = "3" />
1
	<line x1 = "278" y1 = "1153" x2 = "326" y2 = "1164" style="stroke:rgb(255,0,0);stroke-width:2" />

	<line x1 = "326" y1 = "1164" x2 = "316" y2 = "1213" style="stroke:rgb(255,0,0);stroke-width:2" />

	<line x1 = "316" y1 = "1213" x2 = "267" y2 = "1202" style="stroke:rgb(255,0,0);stroke-width:2" />

	<line x1 = "278" y1 = "1153" x2 = "267" y2 = "1202" style="stroke:rgb(255,0,0);stroke-width:2" />

	<circle cx = "297" cy = "1183" r = "2" stroke = "black" stroke-width = "3" />
1
	<line x1 = "721" y1 = "467" x2 = "711" y2 = "516" style="stroke:rgb(255,0,0);stroke-width:2" />

	<line x1 = "711" y1 = "516" x2 = "662" y2 = "506" style="stroke:rgb(255,0,0);stroke-width:2" />

	<line x1 = "662" y1 = "506" x2 = "672" y2 = "457" style="stroke:rgb(255,0,0);stroke-width:2" />

	<line x1 = "721" y1 = "467" x2 = "672" y2 = "457" style="stroke:rgb(255,0,0);stroke-width:2" />

	<circle cx = "692" cy = "486" r = "2" stroke = "black" stroke-width = "3" />
1
	<line x1 = "377" y1 = "408" x2 = "397" y2 = "454" style="stroke:rgb(255,0,0);stroke-width:2" />

	<line x1 = "397" y1 = "454" x2 = "350" y2 = "474" style="stroke:rgb(255,0,0);stroke-width:2" />

	<line x1 = "350" y1 = "474" x2 = "331" y2 = "427" style="stroke:rgb(255,0,0);stroke-width:2" />

	<line x1 = "377" y1 = "408" x2 = "331" y2 = "427" style="stroke:rgb(255,0,0);stroke-width:2" />

	<circle cx = "364" cy = "441" r = "2" stroke = "black" stroke-width = "3" />
1
	<line x1 = "1266" y1 = "2022" x2 = "1281" y2 = "2070" style="stroke:rgb(255,0,0);stroke-width:2" />

	<line x1 = "1281" y1 = "2070" x2 = "1233" y2 = "2085" style="stroke:rgb(255,0,0);stroke-width:2" />

	<line x1 = "1233" y1 = "2085" x2 = "1218" y2 = "2037" style="stroke:rgb(255,0,0);stroke-width:2" />

	<line x1 = "1266" y1 = "2022" x2 = "1218" y2 = "2037" style="stroke:rgb(255,0,0);stroke-width:2" />

	<circle cx = "1249" cy = "2054" r = "2" stroke = "black" stroke-width = "3" />
1
	<line x1 = "408" y1 = "1012" x2 = "384" y2 = "1056" style="stroke:rgb(255,0,0);stroke-width:2" />

	<line x1 = "384" y1 = "1056" x2 = "340" y2 = "1033" style="stroke:rgb(255,0,0);stroke-width:2" />

	<line x1 = "340" y1 = "1033" x2 = "364" y2 = "989" style="stroke:rgb(255,0,0);stroke-width:2" />

	<line x1 = "408" y1 = "1012" x2 = "364" y2 = "989" style="stroke:rgb(255,0,0);stroke-width:2" />

	<circle cx = "374" cy = "1023" r = "2" stroke = "black" stroke-width = "3" />
1
	<line x1 = "1050" y1 = "1019" x2 = "1040" y2 = "1068" style="stroke:rgb(255,0,0);stroke-width:2" />

	<line x1 = "1040" y1 = "1068" x2 = "991" y2 = "1058" style="stroke:rgb(255,0,0);stroke-width:2" />

	<line x1 = "991" y1 = "1058" x2 = "1001" y2 = "1009" style="stroke:rgb(255,0,0);stroke-width:2" />

	<line x1 = "1050" y1 = "1019" x2 = "1001" y2 = "1009" style="stroke:rgb(255,0,0);stroke-width:2" />

	<circle cx = "1021" cy = "1039" r = "2" stroke = "black" stroke-width = "3" />
1
	<line x1 = "964" y1 = "833" x2 = "936" y2 = "875" style="stroke:rgb(255,0,0);stroke-width:2" />

	<line x1 = "936" y1 = "875" x2 = "894" y2 = "847" style="stroke:rgb(255,0,0);stroke-width:2" />

	<line x1 = "894" y1 = "847" x2 = "922" y2 = "805" style="stroke:rgb(255,0,0);stroke-width:2" />

	<line x1 = "964" y1 = "833" x2 = "922" y2 = "805" style="stroke:rgb(255,0,0);stroke-width:2" />

	<circle cx = "929" cy = "840" r = "2" stroke = "black" stroke-width = "3" />
1
	<line x1 = "803" y1 = "2176" x2 = "801" y2 = "2226" style="stroke:rgb(255,0,0);stroke-width:2" />

	<line x1 = "801" y1 = "2226" x2 = "751" y2 = "2224" style="stroke:rgb(255,0,0);stroke-width:2" />

	<line x1 = "751" y1 = "2224" x2 = "753" y2 = "2174" style="stroke:rgb(255,0,0);stroke-width:2" />

	<line x1 = "803" y1 = "2176" x2 = "753" y2 = "2174" style="stroke:rgb(255,0,0);stroke-width:2" />

	<circle cx = "777" cy = "2200" r = "2" stroke = "black" stroke-width = "3" />
1
	<line x1 = "573" y1 = "692" x2 = "581" y2 = "643" style="stroke:rgb(255,0,0);stroke-width:2" />

	<line x1 = "581" y1 = "643" x2 = "630" y2 = "651" style="stroke:rgb(255,0,0);stroke-width:2" />

	<line x1 = "630" y1 = "651" x2 = "622" y2 = "700" style="stroke:rgb(255,0,0);stroke-width:2" />

	<line x1 = "573" y1 = "692" x2 = "622" y2 = "700" style="stroke:rgb(255,0,0);stroke-width:2" />

	<circle cx = "602" cy = "672" r = "2" stroke = "black" stroke-width = "3" />
1</svg>
